<svg width="406" height="438" viewBox="0 0 406 438" fill="none" xmlns="http://www.w3.org/2000/svg">
<path d="M208.047 376.046C299.856 376.046 374.174 302.051 374.174 210.564C374.174 119.077 299.937 45.0002 208.047 45.0002C116.56 45.0002 42 118.996 42 210.483C42 301.97 116.237 376.046 208.047 376.046Z" fill="#2C3039"/>
<path d="M388.921 400.357C423.017 365.052 398.272 305.162 348.538 305.162C325.888 305.162 306.462 318.543 297.515 337.808C289.616 338.291 282.28 340.79 266.401 351.269L263.822 294.523H244.315L242.703 329.828C236.335 324.911 230.209 325.475 225.937 325.797L226.985 325.636L225.293 290.734H192.809L190.793 332.246C185.312 328.054 183.62 330.07 181.927 330.07C178.622 330.07 175.478 330.956 172.818 332.407L171.045 294.442H151.539L150.168 324.508C141.302 319.268 130.904 316.205 119.861 316.205C106.48 316.205 94.1477 320.639 84.1526 328.054C40.7064 307.419 -7.01196 347.48 5.88489 393.909L37.0791 413.899C36.3537 414.383 35.6283 414.866 34.9028 415.35L37.0791 413.899C27.0035 423.33 56.9081 396.085 65.0492 399.793C65.694 401.244 66.3389 402.614 67.0643 403.985L65.694 400.196C66.5807 400.922 67.0643 402.131 67.0643 403.985C67.0643 403.985 67.0643 404.065 67.1449 404.065C59.0844 404.468 51.5075 406.403 44.5754 409.708L70.5304 405.032C92.6968 409.788 214.25 426.473 214.491 428.569L212.718 425.264C213.444 425.345 214.25 425.426 215.056 425.506C219.005 431.31 224.809 435.824 231.58 438C226.099 435.179 221.504 430.987 218.199 425.829C244.88 428.408 279.621 426.635 292.356 425.264C304.044 427.36 316.296 424.7 326.291 417.446C328.387 415.914 330.402 414.141 332.256 412.206C344.588 412.126 367.238 415.672 366.916 410.191L389.163 414.141C382.876 411.239 376.105 409.305 368.851 408.66L388.921 400.357ZM324.518 414.221C324.598 413.98 324.679 413.818 324.921 413.577L324.518 414.221Z" fill="#1E1F28"/>
<path d="M172.819 332.407L171.046 294.522H151.539L150.169 324.508" fill="#1E1F28"/>
<path d="M172.819 332.407L171.046 294.522H151.539L150.169 324.508" stroke="#353B4A" stroke-width="2" stroke-miterlimit="10" stroke-linecap="round" stroke-linejoin="round"/>
<path d="M266.483 352.72L263.823 294.522H244.316L242.704 329.908" fill="#1E1F28"/>
<path d="M266.483 352.72L263.823 294.522H244.316L242.704 329.908" stroke="#353B4A" stroke-width="2" stroke-miterlimit="10" stroke-linecap="round" stroke-linejoin="round"/>
<path d="M226.986 325.556L225.212 290.734H192.809L190.794 331.682L190.875 332.326" fill="#1E1F28"/>
<path d="M226.986 325.556L225.212 290.734H192.809L190.794 331.682L190.875 332.326" stroke="#353B4A" stroke-width="2" stroke-miterlimit="10" stroke-linecap="round" stroke-linejoin="round"/>
<path d="M51.5884 384.72C54.4096 383.753 57.392 383.108 60.5356 382.786" stroke="#353B4A" stroke-width="2" stroke-miterlimit="10" stroke-linecap="round" stroke-linejoin="round"/>
<path d="M221.827 278.321H195.227L189.746 282.029C188.617 282.835 187.973 284.044 187.973 285.414V289.042H229.887V285.576C229.887 284.125 229.162 282.835 227.953 282.109L221.827 278.321Z" fill="#5C6479"/>
<path d="M231.661 290.734C231.661 291.621 230.935 292.346 230.049 292.346H187.489C186.602 292.346 185.877 291.621 185.877 290.734C185.877 289.848 186.602 289.122 187.489 289.122H230.049C230.935 289.122 231.661 289.848 231.661 290.734Z" fill="#5C6479"/>
<path d="M139.045 53.5129H138.4C137.352 53.5129 136.546 52.7068 136.546 51.659V51.0141C136.546 50.2081 135.901 49.5632 135.095 49.5632C134.289 49.5632 133.644 50.2081 133.644 51.0141V51.659C133.644 52.7068 132.838 53.5129 131.791 53.5129H131.146C130.34 53.5129 129.695 54.1577 129.695 54.9638C129.695 55.7698 130.34 56.4147 131.146 56.4147H131.791C132.838 56.4147 133.644 57.2207 133.644 58.2686V58.9134C133.644 59.7195 134.289 60.3643 135.095 60.3643C135.901 60.3643 136.546 59.7195 136.546 58.9134V58.2686C136.546 57.2207 137.352 56.4147 138.4 56.4147H139.045C139.851 56.4147 140.496 55.7698 140.496 54.9638C140.496 54.2383 139.851 53.5129 139.045 53.5129Z" fill="#4E5567"/>
<path d="M97.9364 27.7999H97.3722C96.5661 27.7999 95.8407 27.1551 95.8407 26.2684V25.7042C95.8407 25.0594 95.2764 24.4951 94.6316 24.4951C93.9867 24.4951 93.4225 25.0594 93.4225 25.7042V26.2684C93.4225 27.0745 92.7777 27.7999 91.891 27.7999H91.3268C90.6819 27.7999 90.1177 28.3642 90.1177 29.009C90.1177 29.6539 90.6819 30.2181 91.3268 30.2181H91.891C92.697 30.2181 93.4225 30.8629 93.4225 31.7496V32.3138C93.4225 32.9587 93.9867 33.5229 94.6316 33.5229C95.2764 33.5229 95.8407 32.9587 95.8407 32.3138V31.7496C95.8407 30.9435 96.4855 30.2181 97.3722 30.2181H97.9364C98.5812 30.2181 99.1455 29.6539 99.1455 29.009C99.1455 28.3642 98.5812 27.7999 97.9364 27.7999Z" fill="#4E5567"/>
<path d="M47.8807 198.28H47.3165C46.5104 198.28 45.785 197.635 45.785 196.749V196.184C45.785 195.54 45.2207 194.975 44.5759 194.975C43.9311 194.975 43.3668 195.54 43.3668 196.184V196.749C43.3668 197.555 42.722 198.28 41.8353 198.28H41.2711C40.6262 198.28 40.062 198.844 40.062 199.489C40.062 200.134 40.6262 200.698 41.2711 200.698H41.8353C42.6414 200.698 43.3668 201.343 43.3668 202.23V202.794C43.3668 203.439 43.9311 204.003 44.5759 204.003C45.2207 204.003 45.785 203.439 45.785 202.794V202.23C45.785 201.424 46.4298 200.698 47.3165 200.698H47.8807C48.5256 200.698 49.0898 200.134 49.0898 199.489C49.0898 198.764 48.5256 198.28 47.8807 198.28Z" fill="#4E5567"/>
<path d="M180.557 3.69882H179.993C179.187 3.69882 178.461 3.05398 178.461 2.16732V1.68369C178.461 1.03885 177.897 0.474609 177.252 0.474609C176.607 0.474609 176.043 1.03885 176.043 1.68369V2.24793C176.043 3.05398 175.398 3.77943 174.512 3.77943H173.947C173.303 3.77943 172.738 4.34366 172.738 4.98851C172.738 5.63335 173.303 6.19759 173.947 6.19759H174.512C175.318 6.19759 176.043 6.84243 176.043 7.72909V8.29332C176.043 8.93817 176.607 9.5024 177.252 9.5024C177.897 9.5024 178.461 8.93817 178.461 8.29332V7.56788C178.461 6.76182 179.106 6.03638 179.993 6.03638H180.557C181.202 6.03638 181.766 5.47214 181.766 4.8273C181.766 4.26306 181.282 3.69882 180.557 3.69882Z" fill="#4E5567"/>
<path d="M392.307 99.2968H391.743C390.937 99.2968 390.211 98.6519 390.211 97.7653V97.201C390.211 96.5562 389.647 95.9919 389.002 95.9919C388.357 95.9919 387.793 96.5562 387.793 97.201V97.7653C387.793 98.5713 387.148 99.2968 386.262 99.2968H385.697C385.053 99.2968 384.488 99.861 384.488 100.506C384.488 101.151 385.053 101.715 385.697 101.715H386.262C387.068 101.715 387.793 102.36 387.793 103.246V103.811C387.793 104.455 388.357 105.02 389.002 105.02C389.647 105.02 390.211 104.455 390.211 103.811V103.246C390.211 102.44 390.856 101.715 391.743 101.715H392.307C392.952 101.715 393.516 101.151 393.516 100.506C393.516 99.861 392.952 99.2968 392.307 99.2968Z" fill="#4E5567"/>
<path d="M347.571 274.21H347.007C346.201 274.21 345.475 273.565 345.475 272.679V272.114C345.475 271.47 344.911 270.905 344.266 270.905C343.621 270.905 343.057 271.47 343.057 272.114V272.679C343.057 273.485 342.412 274.21 341.526 274.21H341.123C340.478 274.21 339.914 274.774 339.914 275.419C339.914 276.064 340.478 276.628 341.123 276.628H341.687C342.493 276.628 343.218 277.273 343.218 278.16V278.724C343.218 279.369 343.783 279.933 344.427 279.933C345.072 279.933 345.637 279.369 345.637 278.724V278.16C345.637 277.354 346.281 276.628 347.168 276.628H347.732C348.377 276.628 348.941 276.064 348.941 275.419C348.78 274.774 348.216 274.21 347.571 274.21Z" fill="#4E5567"/>
<path d="M42.5604 286.462H42.0767C41.2707 286.462 40.5452 285.817 40.5452 284.931V284.367C40.5452 283.722 39.981 283.157 39.3362 283.157C38.6913 283.157 38.1271 283.722 38.1271 284.367V284.931C38.1271 285.737 37.4822 286.462 36.5956 286.462H36.0313C35.3865 286.462 34.8223 287.027 34.8223 287.671C34.8223 288.316 35.3865 288.88 36.0313 288.88H36.5956C37.4016 288.88 38.1271 289.525 38.1271 290.412V290.976C38.1271 291.621 38.6913 292.185 39.3362 292.185C39.981 292.185 40.5452 291.621 40.5452 290.976V290.412C40.5452 289.606 41.1901 288.88 42.0767 288.88H42.641C43.2858 288.88 43.8501 288.316 43.8501 287.671C43.7695 287.027 43.2052 286.462 42.5604 286.462Z" fill="#4E5567"/>
<path d="M296.145 142.904H295.5C294.452 142.904 293.646 142.098 293.646 141.05V140.405C293.646 139.599 293.001 138.955 292.195 138.955C291.389 138.955 290.744 139.599 290.744 140.405V141.05C290.744 142.098 289.938 142.904 288.89 142.904H288.245C287.439 142.904 286.794 143.549 286.794 144.355C286.794 145.161 287.439 145.806 288.245 145.806H288.89C289.938 145.806 290.744 146.612 290.744 147.66V148.305C290.744 149.111 291.389 149.756 292.195 149.756C293.001 149.756 293.646 149.111 293.646 148.305V147.66C293.646 146.612 294.452 145.806 295.5 145.806H296.145C296.951 145.806 297.596 145.161 297.596 144.355C297.596 143.549 296.951 142.904 296.145 142.904Z" fill="#4E5567"/>
<path d="M314.442 253.898H313.797C312.749 253.898 311.943 253.092 311.943 252.044V251.399C311.943 250.593 311.298 249.948 310.492 249.948C309.686 249.948 309.041 250.593 309.041 251.399V252.044C309.041 253.092 308.235 253.898 307.188 253.898H306.462C305.656 253.898 305.011 254.543 305.011 255.349C305.011 256.155 305.656 256.799 306.462 256.799H307.107C308.155 256.799 308.961 257.605 308.961 258.653V259.298C308.961 260.104 309.606 260.749 310.412 260.749C311.218 260.749 311.863 260.104 311.863 259.298V258.653C311.863 257.605 312.669 256.799 313.717 256.799H314.361C315.167 256.799 315.812 256.155 315.812 255.349C315.893 254.543 315.248 253.898 314.442 253.898Z" fill="#4E5567"/>
<path d="M385.053 140.567H384.65C384.005 140.567 383.521 140.083 383.521 139.438V139.116C383.521 138.632 383.118 138.229 382.634 138.229C382.151 138.229 381.748 138.632 381.748 139.116V139.519C381.748 140.164 381.264 140.647 380.619 140.647H380.216C379.733 140.647 379.33 141.05 379.33 141.534C379.33 142.017 379.733 142.42 380.216 142.42H380.619C381.264 142.42 381.748 142.904 381.748 143.549V143.952C381.748 144.436 382.151 144.839 382.634 144.839C383.118 144.839 383.521 144.436 383.521 143.952V143.549C383.521 142.904 384.005 142.42 384.65 142.42H385.053C385.536 142.42 385.939 142.017 385.939 141.534C385.939 140.97 385.536 140.567 385.053 140.567Z" fill="#4E5567"/>
<path d="M347.329 160.557H347.007C346.523 160.557 346.12 160.154 346.12 159.67V159.348C346.12 158.944 345.798 158.622 345.395 158.622C344.992 158.622 344.669 158.944 344.669 159.348V159.67C344.669 160.154 344.266 160.557 343.783 160.557H343.46C343.057 160.557 342.735 160.879 342.735 161.282C342.735 161.685 343.057 162.007 343.46 162.007H343.783C344.266 162.007 344.669 162.411 344.669 162.894V163.217C344.669 163.62 344.992 163.942 345.395 163.942C345.798 163.942 346.12 163.62 346.12 163.217V162.894C346.12 162.411 346.523 162.007 347.007 162.007H347.329C347.732 162.007 348.055 161.685 348.055 161.282C348.055 160.879 347.732 160.557 347.329 160.557Z" fill="#4E5567"/>
<path d="M270.109 56.979H269.787C269.303 56.979 268.9 56.5759 268.9 56.0923V55.7699C268.9 55.3669 268.578 55.0444 268.175 55.0444C267.772 55.0444 267.449 55.3669 267.449 55.7699V56.0923C267.449 56.5759 267.046 56.979 266.563 56.979H266.24C265.837 56.979 265.515 57.3014 265.515 57.7044C265.515 58.1074 265.837 58.4299 266.24 58.4299H266.563C267.046 58.4299 267.449 58.8329 267.449 59.3165V59.6389C267.449 60.042 267.772 60.3644 268.175 60.3644C268.578 60.3644 268.9 60.042 268.9 59.6389V59.3165C268.9 58.8329 269.303 58.4299 269.787 58.4299H270.109C270.512 58.4299 270.835 58.1074 270.835 57.7044C270.754 57.3014 270.512 56.979 270.109 56.979Z" fill="#4E5567"/>
<path d="M349.99 54.3191H349.667C349.183 54.3191 348.78 53.916 348.78 53.4324V53.11C348.78 52.7069 348.458 52.3845 348.055 52.3845C347.652 52.3845 347.33 52.7069 347.33 53.11V53.4324C347.33 53.916 346.927 54.3191 346.443 54.3191H346.12C345.717 54.3191 345.395 54.6415 345.395 55.0445C345.395 55.4475 345.717 55.7699 346.12 55.7699H346.443C346.927 55.7699 347.33 56.173 347.33 56.6566V56.979C347.33 57.382 347.652 57.7045 348.055 57.7045C348.458 57.7045 348.78 57.382 348.78 56.979V56.6566C348.78 56.173 349.183 55.7699 349.667 55.7699H349.99C350.393 55.7699 350.715 55.4475 350.715 55.0445C350.715 54.6415 350.393 54.3191 349.99 54.3191Z" fill="#4E5567"/>
<path d="M26.4395 121.383H26.0365C25.3916 121.383 24.8274 120.818 24.8274 120.174V119.77C24.8274 119.206 24.4243 118.803 23.8601 118.803C23.2959 118.803 22.8928 119.206 22.8928 119.77V120.174C22.8928 120.818 22.3286 121.383 21.6838 121.383H21.2807C20.7165 121.383 20.3135 121.786 20.3135 122.35C20.3135 122.914 20.7165 123.317 21.2807 123.317H21.6838C22.3286 123.317 22.8928 123.881 22.8928 124.526V124.929C22.8928 125.493 23.2959 125.896 23.8601 125.896C24.4243 125.896 24.8274 125.493 24.8274 124.929V124.526C24.8274 123.881 25.3916 123.317 26.0365 123.317H26.4395C27.0037 123.317 27.4067 122.914 27.4067 122.35C27.4067 121.866 26.9231 121.383 26.4395 121.383Z" fill="#4E5567"/>
<path d="M104.869 237.374H104.466C103.821 237.374 103.257 236.809 103.257 236.164V235.761C103.257 235.197 102.854 234.794 102.289 234.794C101.725 234.794 101.322 235.197 101.322 235.761V236.164C101.322 236.809 100.758 237.374 100.113 237.374H99.7099C99.1457 237.374 98.7427 237.777 98.7427 238.341C98.7427 238.905 99.1457 239.308 99.7099 239.308H100.113C100.758 239.308 101.322 239.872 101.322 240.517V240.92C101.322 241.484 101.725 241.887 102.289 241.887C102.854 241.887 103.257 241.484 103.257 240.92V240.517C103.257 239.872 103.821 239.308 104.466 239.308H104.869C105.433 239.308 105.836 238.905 105.836 238.341C105.836 237.777 105.352 237.374 104.869 237.374Z" fill="#4E5567"/>
<path d="M400.69 277.515H400.287C399.642 277.515 399.078 276.951 399.078 276.306V275.903C399.078 275.339 398.675 274.936 398.111 274.936C397.546 274.936 397.143 275.339 397.143 275.903V276.306C397.143 276.951 396.579 277.515 395.934 277.515H395.531C394.967 277.515 394.564 277.918 394.564 278.482C394.564 279.047 394.967 279.45 395.531 279.45H395.934C396.579 279.45 397.143 280.014 397.143 280.659V281.062C397.143 281.626 397.546 282.029 398.111 282.029C398.675 282.029 399.078 281.626 399.078 281.062V280.659C399.078 280.014 399.642 279.45 400.287 279.45H400.69C401.254 279.45 401.657 279.047 401.657 278.482C401.657 277.999 401.174 277.515 400.69 277.515Z" fill="#4E5567"/>
<path d="M18.4594 70.0369H18.137C17.5728 70.0369 17.1698 69.6339 17.1698 69.0696V68.7472C17.1698 68.3442 16.8473 67.9412 16.3637 67.9412C15.9607 67.9412 15.5577 68.2636 15.5577 68.7472V69.0696C15.5577 69.6339 15.1546 70.0369 14.5904 70.0369H14.268C13.8649 70.0369 13.4619 70.3593 13.4619 70.843C13.4619 71.246 13.7843 71.649 14.268 71.649H14.671C15.2352 71.649 15.6383 72.052 15.6383 72.6163V72.9387C15.6383 73.3417 15.9607 73.7447 16.4443 73.7447C16.8473 73.7447 17.2504 73.4223 17.2504 72.9387V72.6163C17.2504 72.052 17.6534 71.649 18.2176 71.649H18.54C18.9431 71.649 19.3461 71.3266 19.3461 70.843C19.2655 70.3593 18.8625 70.0369 18.4594 70.0369Z" fill="#4E5567"/>
<path d="M48.8476 33.6839H48.5252C47.961 33.6839 47.5579 33.2808 47.5579 32.7166V32.3942C47.5579 31.9912 47.2355 31.5881 46.7519 31.5881C46.3489 31.5881 45.9458 31.9106 45.9458 32.3942V32.7166C45.9458 33.2808 45.5428 33.6839 44.9786 33.6839H44.6562C44.2531 33.6839 43.8501 34.0063 43.8501 34.4899C43.8501 34.893 44.1725 35.296 44.6562 35.296H44.9786C45.5428 35.296 45.9458 35.699 45.9458 36.2632V36.5857C45.9458 36.9887 46.2683 37.3917 46.7519 37.3917C47.1549 37.3917 47.5579 37.0693 47.5579 36.5857V36.2632C47.5579 35.699 47.961 35.296 48.5252 35.296H48.8476C49.2507 35.296 49.6537 34.9736 49.6537 34.4899C49.6537 34.0063 49.3313 33.6839 48.8476 33.6839Z" fill="#4E5567"/>
<path d="M5.88519 191.751H5.56276C4.99853 191.751 4.5955 191.348 4.5955 190.784V190.461C4.5955 190.058 4.27308 189.655 3.78945 189.655C3.38642 189.655 2.98339 189.978 2.98339 190.461V190.784C2.98339 191.348 2.58037 191.751 2.01613 191.751H1.77431C1.37129 191.751 0.968262 192.073 0.968262 192.557C0.968262 192.96 1.29068 193.363 1.77431 193.363H2.09674C2.66097 193.363 3.064 193.766 3.064 194.33V194.653C3.064 195.056 3.38642 195.459 3.87005 195.459C4.27308 195.459 4.67611 195.136 4.67611 194.653V194.33C4.67611 193.766 5.07913 193.363 5.64337 193.363H5.96579C6.36882 193.363 6.77184 193.041 6.77184 192.557C6.69124 192.073 6.36882 191.751 5.88519 191.751Z" fill="#4E5567"/>
<path d="M124.214 94.8633H123.891C123.327 94.8633 122.924 94.4603 122.924 93.8961V93.5736C122.924 93.1706 122.602 92.7676 122.118 92.7676C121.715 92.7676 121.312 93.09 121.312 93.5736V93.8961C121.312 94.4603 120.909 94.8633 120.345 94.8633H120.022C119.619 94.8633 119.216 95.1857 119.216 95.6694C119.216 96.0724 119.539 96.4754 120.022 96.4754H120.345C120.909 96.4754 121.312 96.8785 121.312 97.4427V97.7651C121.312 98.1681 121.634 98.5712 122.118 98.5712C122.521 98.5712 122.924 98.2487 122.924 97.7651V97.4427C122.924 96.8785 123.327 96.4754 123.891 96.4754H124.214C124.617 96.4754 125.02 96.153 125.02 95.6694C125.02 95.1857 124.617 94.8633 124.214 94.8633Z" fill="#4E5567"/>
<path d="M102.531 188.849H102.209C101.645 188.849 101.242 188.446 101.242 187.882V187.559C101.242 187.156 100.919 186.753 100.435 186.753C100.032 186.753 99.6294 187.076 99.6294 187.559V187.882C99.6294 188.446 99.2264 188.849 98.6622 188.849H98.3397C97.9367 188.849 97.5337 189.172 97.5337 189.655C97.5337 190.058 97.8561 190.461 98.3397 190.461H98.6622C99.2264 190.461 99.6294 190.864 99.6294 191.429V191.751C99.6294 192.154 99.9518 192.557 100.435 192.557C100.839 192.557 101.242 192.235 101.242 191.751V191.429C101.242 190.864 101.645 190.461 102.209 190.461H102.531C102.934 190.461 103.337 190.139 103.337 189.655C103.257 189.172 102.934 188.849 102.531 188.849Z" fill="#4E5567"/>
<path d="M241.656 22.7216C239.157 22.7216 237.142 20.7065 237.142 18.2077C237.142 15.709 239.157 13.6938 241.656 13.6938C244.154 13.6938 246.169 15.709 246.169 18.2077C246.169 20.7065 244.074 22.7216 241.656 22.7216ZM241.656 16.1926C240.527 16.1926 239.56 17.0793 239.56 18.2884C239.56 19.4974 240.446 20.3841 241.656 20.3841C242.784 20.3841 243.751 19.4974 243.751 18.2884C243.751 17.0793 242.784 16.1926 241.656 16.1926Z" fill="#4E5567"/>
<path d="M84.1531 72.3745C81.6543 72.3745 79.6392 70.3593 79.6392 67.8606C79.6392 65.3618 81.6543 63.3467 84.1531 63.3467C86.6518 63.3467 88.667 65.3618 88.667 67.8606C88.667 70.3593 86.5712 72.3745 84.1531 72.3745ZM84.1531 65.8454C83.0246 65.8454 82.0573 66.7321 82.0573 67.9412C82.0573 69.1503 82.944 70.0369 84.1531 70.0369C85.3621 70.0369 86.2488 69.1503 86.2488 67.9412C86.2488 66.7321 85.2815 65.8454 84.1531 65.8454Z" fill="#4E5567"/>
<path d="M278.492 36.7471C276.719 36.7471 275.188 35.2962 275.188 33.4423C275.188 31.5883 276.638 30.1375 278.492 30.1375C280.266 30.1375 281.797 31.5883 281.797 33.4423C281.797 35.2962 280.266 36.7471 278.492 36.7471ZM278.492 31.9108C277.686 31.9108 276.961 32.5556 276.961 33.4423C276.961 34.3289 277.606 34.9738 278.492 34.9738C279.298 34.9738 280.024 34.3289 280.024 33.4423C280.024 32.5556 279.298 31.9108 278.492 31.9108Z" fill="#4E5567"/>
<path d="M302.674 298.795C300.901 298.795 299.369 297.344 299.369 295.49C299.369 293.717 300.82 292.185 302.674 292.185C304.447 292.185 305.979 293.636 305.979 295.49C305.898 297.344 304.447 298.795 302.674 298.795ZM302.674 294.039C301.868 294.039 301.142 294.684 301.142 295.57C301.142 296.377 301.787 297.102 302.674 297.102C303.48 297.102 304.205 296.457 304.205 295.57C304.205 294.684 303.48 294.039 302.674 294.039Z" fill="#4E5567"/>
<path d="M173.947 294.603H148.073C147.508 294.603 147.105 294.2 147.105 293.636C147.105 293.072 147.508 292.669 148.073 292.669H173.947C174.511 292.669 174.914 293.072 174.914 293.636C174.914 294.2 174.431 294.603 173.947 294.603Z" fill="#5C6479"/>
<path d="M172.657 288.397C173.383 288.88 173.866 289.686 173.866 290.492V292.588H148.395V290.412C148.395 289.606 148.798 288.8 149.443 288.316L152.748 286.059H152.828V276.951H169.03V286.22L172.657 288.397Z" fill="#848B9D"/>
<path opacity="0.3" d="M173.786 290.573V292.669H166.29V290.573C166.29 289.686 166.128 288.88 165.806 288.477L164.355 286.22V276.951H169.03V286.22L172.657 288.477C173.383 288.88 173.786 289.686 173.786 290.573Z" fill="#2C3039"/>
<g filter="url(#filter0_d)">
<path d="M162.662 71.6491C161.695 70.7625 160.164 70.7625 159.196 71.6491C154.441 75.6794 147.025 89.9465 147.025 105.1V283.157C147.025 284.85 148.395 286.14 150.007 286.14H160.889H171.851C173.544 286.14 174.834 284.77 174.834 283.157V105.1C174.914 89.9465 167.418 75.76 162.662 71.6491Z" fill="url(#paint0_linear)"/>
</g>
<path d="M174.914 105.1V283.157C174.914 284.85 173.544 286.22 171.851 286.22H164.113C164.597 286.22 165 284.85 165 283.157V105.1C165 89.9464 162.824 75.7599 161.453 71.649C161.292 71.246 161.131 71.0042 160.97 71.0042C161.615 71.0042 162.179 71.246 162.662 71.649C167.418 75.7599 174.914 89.9464 174.914 105.1Z" fill="url(#paint1_linear)"/>
<path d="M211.67 25.704C209.333 24.5755 205.867 24.5755 203.529 25.704C192.486 31.2658 174.833 57.3013 174.833 78.0169C174.833 101.473 174.833 275.339 174.833 275.339H207.559H240.285C240.285 275.339 240.285 101.473 240.285 78.0169C240.285 57.3819 222.713 31.3464 211.67 25.704Z" fill="url(#paint2_linear)"/>
<path d="M240.285 78.0975C240.285 101.554 240.285 275.419 240.285 275.419H221.182C221.182 275.419 221.182 101.554 221.182 78.0975C221.182 57.3819 213.847 31.3464 209.252 25.7846C208.769 25.2204 208.124 24.8979 207.56 24.8979C209.01 24.8979 210.461 25.2204 211.59 25.7846C222.713 31.3464 240.285 57.3819 240.285 78.0975Z" fill="url(#paint3_linear)"/>
<path opacity="0.2" d="M207.559 24.8979C207.076 24.8979 206.592 25.2204 206.27 25.7846C202.643 31.3464 197 57.3819 197 78.0975C197 101.554 197 275.419 197 275.419H183.458C183.458 275.419 183.458 101.554 183.458 78.0975C183.458 57.3819 196.436 31.3464 204.658 25.7846C205.464 25.1398 206.512 24.8979 207.559 24.8979Z" fill="url(#paint4_linear)"/>
<path opacity="0.4" fill-rule="evenodd" clip-rule="evenodd" d="M175.5 91.5002H240.5V94.5002H175.5V91.5002Z" fill="#2E323B"/>
<path opacity="0.4" fill-rule="evenodd" clip-rule="evenodd" d="M174.5 126.5H240.5V129.5H174.5V126.5Z" fill="#2E323B"/>
<path opacity="0.4" fill-rule="evenodd" clip-rule="evenodd" d="M146.525 170.745H175.414V173.745H146.525V170.745Z" fill="#2C3039"/>
<path opacity="0.4" fill-rule="evenodd" clip-rule="evenodd" d="M146.525 143H175.414V146H146.525V143Z" fill="#2C3039"/>
<path opacity="0.4" fill-rule="evenodd" clip-rule="evenodd" d="M146.525 106H175.414V109H146.525V106Z" fill="#2C3039"/>
<path d="M267.207 294.603H241.333C240.769 294.603 240.366 294.2 240.366 293.636C240.366 293.072 240.769 292.669 241.333 292.669H267.207C267.772 292.669 268.175 293.072 268.175 293.636C268.175 294.2 267.691 294.603 267.207 294.603Z" fill="#5C6479"/>
<path d="M265.918 288.397C266.643 288.88 267.127 289.686 267.127 290.492V292.588H241.656V290.412C241.656 289.606 242.059 288.8 242.704 288.316L246.008 286.059H246.089V276.951H262.291V286.22L265.918 288.397Z" fill="#848B9D"/>
<path opacity="0.3" d="M267.046 290.573V292.669H260.356V290.573C260.356 289.686 260.114 288.88 259.792 288.477L258.099 286.22V276.951H262.291V286.22L265.918 288.477C266.643 288.88 267.046 289.686 267.046 290.573Z" fill="#2C3039"/>
<g filter="url(#filter1_d)">
<path d="M255.923 71.6491C254.955 70.7625 253.424 70.7625 252.457 71.6491C247.701 75.6794 240.285 89.9465 240.285 105.1V283.157C240.285 284.85 241.655 286.14 243.268 286.14H254.149H265.031C266.724 286.14 268.013 284.77 268.013 283.157V105.1C268.175 89.9465 260.678 75.76 255.923 71.6491Z" fill="url(#paint5_linear)"/>
</g>
<path d="M268.175 105.1V283.157C268.175 284.85 266.804 286.22 265.112 286.22H257.374C257.857 286.22 258.26 284.85 258.26 283.157V105.1C258.26 89.9464 256.084 75.7599 254.714 71.649C254.552 71.246 254.391 71.0042 254.23 71.0042C254.875 71.0042 255.439 71.246 255.923 71.649C260.678 75.7599 268.175 89.9464 268.175 105.1Z" fill="url(#paint6_linear)"/>
<path opacity="0.4" fill-rule="evenodd" clip-rule="evenodd" d="M239.525 170.745H268.414V173.745H239.525V170.745Z" fill="#2C3039"/>
<path opacity="0.4" fill-rule="evenodd" clip-rule="evenodd" d="M239.525 143H268.414V146H239.525V143Z" fill="#2C3039"/>
<path opacity="0.4" fill-rule="evenodd" clip-rule="evenodd" d="M239.525 106H268.414V109H239.525V106Z" fill="#2C3039"/>
<g filter="url(#filter2_d)">
<path d="M188.78 131.297L190.15 126.138L193.536 125.332L199.178 124.043L199.823 123.881L200.306 131.297L208.689 253.656L190.553 278.402L183.46 277.193L134.129 268.729C131.066 268.245 128.89 265.585 128.89 262.522V239.228C128.89 236.487 130.019 233.746 131.953 231.812L165.163 198.119C170.563 192.638 174.432 185.867 176.367 178.451L183.46 151.69L188.78 131.297Z" fill="#848B9D"/>
</g>
<circle cx="166" cy="234" r="7" stroke="#2D313A" stroke-width="2"/>
<path d="M193.454 125.332V159.106L189.826 163.136L189.504 160.96C189.343 159.912 188.456 159.106 187.408 159.106C186.441 159.106 185.635 159.751 185.312 160.637L175.64 196.346C174.995 198.764 173.705 200.94 172.013 202.713L135.74 239.066C135.015 239.792 134.612 240.759 134.612 241.726V249.626C134.612 251.721 136.304 253.414 138.4 253.414H184.748L185.796 260.91C185.796 261.394 138.884 260.991 128.808 260.91V239.066C128.808 236.326 129.856 233.585 131.871 231.651L165.08 197.958C170.481 192.477 174.35 185.706 176.285 178.29L190.068 126.058L193.454 125.332Z" fill="#2C3039"/>
<path d="M208.688 253.656L190.552 278.321L183.378 277.112V151.61L188.778 131.297H200.305L208.688 253.656Z" fill="url(#paint7_linear)"/>
<g filter="url(#filter3_d)">
<path d="M288.729 239.147V262.442C288.729 265.505 286.553 268.165 283.49 268.648L246.492 275.016L227.066 278.321L208.93 253.656L217.796 123.881L218.441 124.043L224.083 125.413L227.469 126.219L239.802 172.728L241.333 178.451C243.268 185.867 247.137 192.638 252.537 198.119L285.747 231.812C287.681 233.746 288.729 236.406 288.729 239.147Z" fill="#848B9D"/>
</g>
<path opacity="0.4" d="M258.018 228.427H242.703V239.308H258.018V228.427Z" fill="#2C3039"/>
<path d="M250.683 228.427H242.703V234.391H250.683V228.427Z" fill="#2C3039"/>
<path d="M224.083 125.332V159.106L227.711 163.136L228.033 160.96C228.194 159.912 229.081 159.106 230.129 159.106C231.096 159.106 231.902 159.751 232.225 160.637L241.978 196.346C242.623 198.764 243.912 200.94 245.605 202.713L281.878 239.066C282.603 239.792 283.006 240.759 283.006 241.726V249.626C283.006 251.721 281.313 253.414 279.218 253.414H232.95L231.902 260.91C231.902 261.394 278.815 260.991 288.89 260.91V239.066C288.89 236.326 287.842 233.585 285.827 231.651L252.457 198.038C247.056 192.557 243.187 185.786 241.252 178.371L227.469 126.138L224.083 125.332Z" fill="#2C3039"/>
<path d="M246.492 252.527V275.016L227.066 278.321L208.93 253.656L217.796 123.881L218.441 124.043L224.083 125.413L227.469 126.219L239.802 172.728V242.935C243.671 244.306 246.492 248.094 246.492 252.527Z" fill="url(#paint8_linear)"/>
<g filter="url(#filter4_d)">
<path d="M227.711 119.529V275.419H189.262V119.529C189.262 112.758 190.713 106.068 193.615 99.9415C194.179 98.8131 194.743 97.604 195.388 96.4755V96.3949L203.449 83.0144C205.706 79.226 211.187 79.226 213.524 83.0144L221.585 96.3949V96.4755C222.23 97.604 222.794 98.7325 223.358 99.8609C226.26 106.068 227.711 112.758 227.711 119.529Z" fill="#848B9D"/>
</g>
<path d="M227.711 119.529V275.419H216.184V119.529C216.184 112.758 215.62 106.068 214.411 99.9416C214.169 98.8131 214.008 97.6847 213.686 96.5562V96.4756L210.461 83.0951C209.978 81.1606 209.252 80.2739 208.446 80.2739C210.381 80.2739 212.315 81.2412 213.444 83.0951L221.504 96.4756V96.5562C222.149 97.6847 222.713 98.8131 223.278 99.9416C226.26 106.068 227.711 112.758 227.711 119.529Z" fill="url(#paint9_linear)"/>
<path d="M223.358 99.9415C221.988 97.8458 219.65 96.4755 217.071 96.4755H200.063C197.484 96.4755 195.066 97.8458 193.695 99.9415C194.26 98.8131 194.824 97.604 195.469 96.4755V96.3949L203.529 83.0144C205.786 79.226 211.267 79.226 213.605 83.0144L221.665 96.3949V96.4755C222.23 97.604 222.874 98.7325 223.358 99.9415Z" fill="#69768C"/>
<path d="M217.151 117.03C217.151 117.675 216.426 117.917 216.023 117.433C215.136 116.304 213.766 115.66 212.154 115.66H204.738C203.287 115.66 201.917 116.304 201.03 117.352C200.95 117.433 200.95 117.433 200.869 117.514C200.466 117.997 199.741 117.675 199.741 117.11C199.741 116.627 199.741 115.982 199.741 115.176C199.741 112.435 201.998 110.259 204.738 110.259H212.154C212.315 110.259 212.476 110.259 212.638 110.259C213.363 110.34 214.008 110.581 214.653 110.904C216.104 111.791 217.151 113.403 217.151 115.176C217.151 115.982 217.151 116.546 217.151 117.03Z" fill="#2C3039"/>
<path opacity="0.3" fill-rule="evenodd" clip-rule="evenodd" d="M189.027 161.958H228.211V164.958H189.027V161.958Z" fill="#2C3039"/>
<path opacity="0.3" fill-rule="evenodd" clip-rule="evenodd" d="M189.027 205H228.211V208H189.027V205Z" fill="#2C3039"/>
<g filter="url(#filter5_d)">
<path d="M198.451 242.21H193.776C188.053 242.21 183.458 246.804 183.458 252.527V278.482H208.769V252.527C208.688 246.804 204.093 242.21 198.451 242.21Z" fill="url(#paint10_linear)"/>
</g>
<path d="M208.688 252.527V278.482H198.612V244.789C198.612 243.338 197.484 242.21 196.033 242.21H198.37C204.093 242.21 208.688 246.804 208.688 252.527Z" fill="url(#paint11_linear)"/>
<g filter="url(#filter6_d)">
<path d="M223.519 242.21H218.844C213.121 242.21 208.527 246.804 208.527 252.527V278.482H233.837V252.527C233.837 246.804 229.242 242.21 223.519 242.21Z" fill="url(#paint12_linear)"/>
</g>
<path d="M233.837 252.527V278.482H225.051V245.595C225.051 243.741 223.519 242.21 221.666 242.21H223.519C229.242 242.21 233.837 246.804 233.837 252.527Z" fill="url(#paint13_linear)"/>
<path opacity="0.4" d="M208.446 252.527V278.482H217.232V245.595C217.232 243.741 218.764 242.21 220.618 242.21H218.764C213.121 242.21 208.446 246.804 208.446 252.527Z" fill="url(#paint14_linear)"/>
<g filter="url(#filter7_d)">
<path d="M221.826 278.321H195.227L189.745 282.029C188.617 282.835 187.972 284.044 187.972 285.414V289.042H229.887V285.576C229.887 284.125 229.161 282.835 227.952 282.109L221.826 278.321Z" fill="#848B9D"/>
</g>
<path opacity="0.3" d="M229.887 285.656V289.122H217.313V285.656C217.313 284.205 216.99 282.916 216.507 282.109L214.088 278.321H221.826L227.953 282.109C229.162 282.835 229.887 284.205 229.887 285.656Z" fill="#2C3039"/>
<path d="M205.947 138.874H204.174C203.287 138.874 202.562 138.149 202.562 137.262V135.489C202.562 134.602 203.287 133.876 204.174 133.876H205.947C206.834 133.876 207.56 134.602 207.56 135.489V137.262C207.56 138.149 206.834 138.874 205.947 138.874Z" fill="#2C3039"/>
<path d="M213.444 138.874H211.67C210.784 138.874 210.058 138.149 210.058 137.262V135.489C210.058 134.602 210.784 133.876 211.67 133.876H213.444C214.33 133.876 215.056 134.602 215.056 135.489V137.262C215.056 138.149 214.33 138.874 213.444 138.874Z" fill="#2C3039"/>
<g filter="url(#filter8_d)">
<path d="M211.106 295.571H205.867V235.923C205.867 234.472 207.076 233.343 208.446 233.343C209.897 233.343 211.025 234.552 211.025 235.923V295.571H211.106Z" fill="#8E96AB"/>
</g>
<path d="M169.917 334.342C173.141 331.682 177.333 330.07 181.927 330.07C189.343 330.07 195.711 334.342 198.774 340.549" stroke="#353B4A" stroke-width="2" stroke-miterlimit="10" stroke-linecap="round" stroke-linejoin="round"/>
<path opacity="0.3" d="M209.494 110.178L206.593 115.66H204.739C203.288 115.66 201.917 116.304 201.031 117.352L204.819 110.178H209.494Z" fill="#5C6479"/>
<path opacity="0.3" d="M214.653 110.823L212.154 115.66H209.736L212.638 110.178C213.363 110.259 214.008 110.501 214.653 110.823Z" fill="#5C6479"/>
<path d="M60.5354 382.705C60.2935 380.448 60.1323 378.191 60.1323 375.934C60.1323 342.967 86.8127 316.286 119.78 316.286C147.267 316.286 170.4 334.826 177.332 360.136" stroke="#353B4A" stroke-width="2" stroke-miterlimit="10" stroke-linecap="round" stroke-linejoin="round"/>
<path d="M67.1453 403.985C64.566 399.148 62.6314 393.828 61.4224 388.347" stroke="#353B4A" stroke-width="2" stroke-miterlimit="10" stroke-linecap="round" stroke-linejoin="round"/>
<path d="M177.816 359.894C178.461 349.093 187.489 340.468 198.451 340.468C202.562 340.468 206.351 341.677 209.575 343.692" stroke="#353B4A" stroke-width="2" stroke-miterlimit="10" stroke-linecap="round" stroke-linejoin="round"/>
<path d="M218.441 329.103C221.746 326.846 225.777 325.556 230.049 325.556C236.9 325.556 242.865 328.861 246.653 333.939" stroke="#353B4A" stroke-width="2" stroke-miterlimit="10" stroke-linecap="round" stroke-linejoin="round"/>
<path d="M339.994 362.715C342.815 368.518 344.347 374.967 344.347 381.818C344.347 385.365 343.944 388.831 343.138 392.136" stroke="#353B4A" stroke-width="2" stroke-miterlimit="10" stroke-linecap="round" stroke-linejoin="round"/>
<path d="M263.983 356.67C271.963 345.224 285.183 337.727 300.175 337.727C314.442 337.727 327.178 344.498 335.239 355.057" stroke="#353B4A" stroke-width="2" stroke-miterlimit="10" stroke-linecap="round" stroke-linejoin="round"/>
<path d="M344.347 378.755C344.75 378.755 345.153 378.755 345.556 378.755C356.276 378.755 364.982 387.461 364.982 398.181C364.982 402.05 363.853 405.597 361.919 408.579" stroke="#353B4A" stroke-width="2" stroke-miterlimit="10" stroke-linecap="round" stroke-linejoin="round"/>
<path opacity="0.3" d="M344.347 381.899C344.347 412.69 313.556 433.97 284.78 423.249C312.347 429.295 338.463 408.337 338.463 380.125C338.463 361.183 326.533 344.982 309.687 338.775C329.516 343.128 344.347 360.78 344.347 381.899Z" fill="#414655"/>
<path d="M320.004 421.315C319.279 421.718 318.553 422.04 317.828 422.363" stroke="#353B4A" stroke-width="2" stroke-miterlimit="10" stroke-linecap="round" stroke-linejoin="round"/>
<path d="M343.218 391.652C340.8 402.212 334.674 411.32 326.21 417.527" stroke="#353B4A" stroke-width="2" stroke-miterlimit="10" stroke-linecap="round" stroke-linejoin="round"/>
<path d="M129.775 390.443C134.934 391.249 139.045 395.118 140.254 400.116" stroke="#353B4A" stroke-width="2" stroke-miterlimit="10" stroke-linecap="round" stroke-linejoin="round"/>
<path d="M135.015 392.216C139.126 385.768 146.38 381.415 154.602 381.415C159.277 381.415 163.63 382.786 167.257 385.204" stroke="#353B4A" stroke-width="2" stroke-miterlimit="10" stroke-linecap="round" stroke-linejoin="round"/>
<path d="M163.307 383.108C163.227 382.544 163.227 381.979 163.227 381.415C163.227 368.599 173.625 358.281 186.36 358.281C199.096 358.281 209.494 368.68 209.494 381.415C209.494 383.108 209.333 384.72 209.01 386.332" stroke="#353B4A" stroke-width="2" stroke-miterlimit="10" stroke-linecap="round" stroke-linejoin="round"/>
<path d="M209.011 386.332C210.784 388.025 212.316 390.04 213.363 392.297" stroke="#353B4A" stroke-width="2" stroke-miterlimit="10" stroke-linecap="round" stroke-linejoin="round"/>
<path d="M210.784 398.665C214.653 385.204 226.985 375.37 241.736 375.37C257.051 375.37 269.867 386.09 273.092 400.358" stroke="#353B4A" stroke-width="2" stroke-miterlimit="10" stroke-linecap="round" stroke-linejoin="round"/>
<path opacity="0.3" d="M231.58 438C218.764 433.728 209.494 421.718 209.494 407.451C209.494 392.539 219.65 380.045 233.353 376.337C206.995 387.864 205.948 425.023 231.58 438Z" fill="#414655"/>
<path d="M209.575 405.919C209.575 405.355 209.655 404.871 209.655 404.388" stroke="#353B4A" stroke-width="2" stroke-miterlimit="10" stroke-linecap="round" stroke-linejoin="round"/>
<path d="M262.532 425.99C262.452 425.184 262.371 424.459 262.371 423.653C262.371 414.786 269.545 407.531 278.492 407.531C287.359 407.531 294.613 414.705 294.613 423.653" stroke="#353B4A" stroke-width="2" stroke-miterlimit="10" stroke-linecap="round" stroke-linejoin="round"/>
<path d="M386.423 381.979C387.551 380.206 389.566 378.997 391.823 378.997C395.289 378.997 398.111 381.818 398.111 385.284" stroke="#353B4A" stroke-width="2" stroke-miterlimit="10" stroke-linecap="round" stroke-linejoin="round"/>
<path d="M385.617 386.493C385.617 386.413 385.617 386.332 385.536 386.251" stroke="#353B4A" stroke-width="2" stroke-miterlimit="10" stroke-linecap="round" stroke-linejoin="round"/>
<path d="M396.498 389.476C395.37 390.766 393.677 391.572 391.743 391.572C389.566 391.572 387.712 390.524 386.584 388.912" stroke="#353B4A" stroke-width="2" stroke-miterlimit="10" stroke-linecap="round" stroke-linejoin="round"/>
<path d="M152.023 403.501C153.151 401.728 155.167 400.519 157.424 400.519C160.89 400.519 163.711 403.34 163.711 406.806" stroke="#353B4A" stroke-width="2" stroke-miterlimit="10" stroke-linecap="round" stroke-linejoin="round"/>
<path d="M151.217 408.096C151.217 408.015 151.217 407.935 151.136 407.854" stroke="#353B4A" stroke-width="2" stroke-miterlimit="10" stroke-linecap="round" stroke-linejoin="round"/>
<path d="M162.099 410.998C160.97 412.287 159.277 413.093 157.343 413.093C155.166 413.093 153.313 412.045 152.184 410.433" stroke="#353B4A" stroke-width="2" stroke-miterlimit="10" stroke-linecap="round" stroke-linejoin="round"/>
<path d="M44.6562 409.708C52.475 406.081 61.1803 403.985 70.2887 403.985C71.9814 403.985 73.6742 404.065 75.2863 404.227" stroke="#353B4A" stroke-width="2" stroke-miterlimit="10" stroke-linecap="round" stroke-linejoin="round"/>
<path d="M34.9033 415.431C36.3542 414.383 37.8051 413.415 39.3366 412.529" stroke="#353B4A" stroke-width="2" stroke-miterlimit="10" stroke-linecap="round" stroke-linejoin="round"/>
<path d="M389.083 414.221C381.264 410.594 372.559 408.499 363.45 408.499C361.757 408.499 360.065 408.579 358.453 408.74" stroke="#353B4A" stroke-width="2" stroke-miterlimit="10" stroke-linecap="round" stroke-linejoin="round"/>
<path d="M295.017 206.26C295.017 199.811 300.256 194.572 306.704 194.572C307.994 194.572 309.203 194.814 310.412 195.136" stroke="#353B4A" stroke-width="2" stroke-miterlimit="10" stroke-linecap="round" stroke-linejoin="round"/>
<path d="M372.962 207.469H393.597" stroke="#353B4A" stroke-width="2" stroke-miterlimit="10" stroke-linecap="round" stroke-linejoin="round"/>
<path d="M338.06 199.408C342.493 199.408 346.04 202.955 346.04 207.388H363.451" stroke="#353B4A" stroke-width="2" stroke-miterlimit="10" stroke-linecap="round" stroke-linejoin="round"/>
<path d="M310.493 195.136C312.266 189.575 317.505 185.544 323.712 185.544C331.369 185.544 337.576 191.751 337.576 199.409" stroke="#353B4A" stroke-width="2" stroke-miterlimit="10" stroke-linecap="round" stroke-linejoin="round"/>
<path d="M122.118 223.026C122.118 220.044 119.7 217.545 116.637 217.545C116.073 217.545 115.428 217.626 114.944 217.787" stroke="#353B4A" stroke-width="2" stroke-miterlimit="10" stroke-linecap="round" stroke-linejoin="round"/>
<path d="M85.7649 223.51H76.0923" stroke="#353B4A" stroke-width="2" stroke-miterlimit="10" stroke-linecap="round" stroke-linejoin="round"/>
<path d="M102.047 219.802C99.9515 219.802 98.3394 221.494 98.3394 223.51H90.1982" stroke="#353B4A" stroke-width="2" stroke-miterlimit="10" stroke-linecap="round" stroke-linejoin="round"/>
<path d="M114.863 217.787C114.057 215.207 111.559 213.273 108.737 213.273C105.191 213.273 102.289 216.174 102.289 219.721" stroke="#353B4A" stroke-width="2" stroke-miterlimit="10" stroke-linecap="round" stroke-linejoin="round"/>
<path d="M16.3643 266.553C16.3643 263.087 19.1854 260.185 22.7321 260.185C23.4575 260.185 24.1024 260.265 24.7472 260.507" stroke="#353B4A" stroke-width="2" stroke-miterlimit="10" stroke-linecap="round" stroke-linejoin="round"/>
<path d="M39.6592 262.845C42.0773 262.845 44.0119 264.779 44.0119 267.198H53.4427" stroke="#353B4A" stroke-width="2" stroke-miterlimit="10" stroke-linecap="round" stroke-linejoin="round"/>
<path d="M24.7471 260.588C25.7143 257.606 28.5355 255.349 31.9209 255.349C36.0318 255.349 39.4172 258.734 39.4172 262.845" stroke="#353B4A" stroke-width="2" stroke-miterlimit="10" stroke-linecap="round" stroke-linejoin="round"/>
<path opacity="0.3" d="M297.515 337.808C306.382 318.543 325.888 305.163 348.538 305.163C379.571 305.163 404.72 330.311 404.72 361.345C404.72 376.498 398.755 390.282 389.002 400.357" stroke="#353B4A" stroke-width="2" stroke-miterlimit="10" stroke-linecap="round" stroke-linejoin="round"/>
<path opacity="0.3" d="M5.88548 393.909C0.162503 373.435 6.36911 350.624 23.6186 336.034C41.0294 321.284 64.808 318.946 84.1532 328.135" stroke="#353B4A" stroke-width="2" stroke-miterlimit="10" stroke-linecap="round" stroke-linejoin="round"/>
<path d="M71.0142 291.943H77.7044V291.54C77.7044 288.074 80.5256 285.253 83.9916 285.253C85.6037 285.253 87.0546 285.898 88.1831 286.865V286.785C89.8758 281.626 94.7121 277.837 100.435 277.837C107.528 277.837 113.332 283.641 113.332 290.734C113.332 291.379 113.251 292.105 113.171 292.749L113.332 292.911H116.798" stroke="#353B4A" stroke-width="2" stroke-miterlimit="10" stroke-linecap="round" stroke-linejoin="round"/>
<path d="M374.493 247.852H368.125V247.449C368.125 244.144 365.465 241.484 362.161 241.484C360.629 241.484 359.259 242.049 358.13 243.016V242.935C356.518 238.018 351.924 234.391 346.362 234.391C339.591 234.391 334.029 239.872 334.029 246.724C334.029 247.369 334.11 248.013 334.191 248.658L334.029 248.819H330.725" stroke="#353B4A" stroke-width="2" stroke-miterlimit="10" stroke-linecap="round" stroke-linejoin="round"/>
<g filter="url(#filter9_d)">
<path d="M346.424 107.264C355.71 97.9782 355.71 82.9226 346.424 73.6366C337.138 64.3506 322.082 64.3506 312.796 73.6366C303.51 82.9226 303.51 97.9782 312.796 107.264C322.082 116.55 337.138 116.55 346.424 107.264Z" fill="#414655"/>
</g>
<g filter="url(#filter10_d)">
<path d="M315.248 71.4879C298.805 56.8984 285.747 48.193 283.167 50.7724C280.507 53.4323 290.261 67.8607 306.301 85.5133C332.74 114.773 365.062 141.131 369.334 136.859C373.768 132.426 345.072 97.8459 315.248 71.4879ZM340.881 111.388C312.105 89.5435 287.762 53.1099 313.878 72.5358C332.256 86.1581 355.954 113.645 352.568 117.03C351.359 118.239 346.926 115.982 340.881 111.388Z" fill="#D5DDEA"/>
</g>
<path opacity="0.3" d="M294.21 60.2032C291.228 63.1856 303.48 80.2739 321.616 98.4101C339.752 116.546 356.841 128.798 359.823 125.816C366.836 118.803 301.304 53.1099 294.21 60.2032ZM302.996 67.4577C305.173 65.2813 318.069 74.551 331.772 88.2539C345.475 101.957 354.745 114.773 352.569 117.03C347.329 122.269 297.757 72.697 302.996 67.4577Z" fill="url(#paint15_linear)"/>
<g filter="url(#filter11_d)">
<path d="M340.881 111.388C330.322 103.408 316.619 89.7047 308.639 79.1454C315.974 65.4425 334.916 62.0571 346.443 73.5836C357.889 85.0296 354.664 103.972 340.881 111.388Z" fill="#414655"/>
</g>
<path opacity="0.3" d="M346.362 107.357C344.669 108.969 342.815 110.34 340.881 111.388C330.322 103.408 316.619 89.7048 308.639 79.1455C309.606 77.2916 310.976 75.6795 312.508 74.0674C310.815 80.677 341.687 110.904 346.362 107.357Z" fill="#1E1F28"/>
<path d="M345.878 97.6847C347.703 97.6847 349.183 95.2667 349.183 92.2841C349.183 89.3015 347.703 86.8835 345.878 86.8835C344.053 86.8835 342.573 89.3015 342.573 92.2841C342.573 95.2667 344.053 97.6847 345.878 97.6847Z" fill="#2C3039"/>
<path d="M337.657 81.3217C339.126 81.3217 340.317 79.8782 340.317 78.0975C340.317 76.3168 339.126 74.8733 337.657 74.8733C336.188 74.8733 334.997 76.3168 334.997 78.0975C334.997 79.8782 336.188 81.3217 337.657 81.3217Z" fill="#2C3039"/>
<path d="M321.271 78.8016C322.633 78.5811 323.593 77.5118 323.415 76.4132C323.237 75.3146 321.989 74.6028 320.627 74.8234C319.264 75.0439 318.304 76.1132 318.482 77.2118C318.66 78.3104 319.909 79.0222 321.271 78.8016Z" fill="#2C3039"/>
<path d="M330.117 87.7343C332.314 87.3786 333.853 85.5941 333.554 83.7485C333.255 81.9029 331.232 80.6951 329.035 81.0508C326.838 81.4065 325.299 83.191 325.598 85.0366C325.896 86.8822 327.92 88.09 330.117 87.7343Z" fill="#2C3039"/>
<path d="M115.106 131.216C115.106 156.929 89.1509 174.663 65.2112 165.232C58.9239 162.733 53.5234 158.622 49.4931 153.302C31.3569 129.443 48.2034 94.6216 78.5916 94.6216C82.7831 94.6216 86.7328 95.347 90.4406 96.5561C104.869 101.634 115.106 115.337 115.106 131.216Z" fill="url(#paint16_linear)"/>
<path opacity="0.5" d="M73.9968 134.682C73.9968 139.841 69.8053 144.033 64.6466 144.033C63.1957 144.033 61.8254 143.71 60.5357 143.065C57.3921 141.534 55.2964 138.39 55.2964 134.682C55.2964 129.524 59.4879 125.332 64.6466 125.332C67.3066 125.332 69.8053 126.461 71.4981 128.315C73.0296 129.927 73.9968 132.184 73.9968 134.682Z" fill="#69768C"/>
<path opacity="0.4" d="M73.9965 134.683C73.9965 139.841 69.805 144.033 64.6463 144.033C63.1954 144.033 61.8251 143.71 60.5354 143.065C59.0039 141.373 58.0366 139.196 58.0366 136.698C58.0366 131.539 62.2281 127.347 67.3868 127.347C68.8377 127.347 70.208 127.67 71.4977 128.315C73.0292 129.927 73.9965 132.184 73.9965 134.683Z" fill="#69768C"/>
<path opacity="0.5" d="M88.1028 118.964C88.1028 122.511 85.2816 125.332 81.735 125.332C81.0902 125.332 80.5259 125.252 79.9617 125.091C77.3017 124.365 75.3672 121.866 75.3672 118.964C75.3672 115.418 78.1884 112.597 81.735 112.597C83.5083 112.597 85.0398 113.322 86.1683 114.37C87.3774 115.579 88.1028 117.191 88.1028 118.964Z" fill="#69768C"/>
<path opacity="0.4" d="M88.1025 118.964C88.1025 122.511 85.2813 125.332 81.7347 125.332C81.0899 125.332 80.5256 125.252 79.9614 125.09C78.7523 123.962 78.0269 122.35 78.0269 120.577C78.0269 117.03 80.848 114.209 84.3947 114.209C85.0395 114.209 85.6038 114.289 86.168 114.451C87.3771 115.579 88.1025 117.191 88.1025 118.964Z" fill="#69768C"/>
<path opacity="0.5" d="M93.3421 145.08C93.3421 148.627 90.5209 151.448 86.9743 151.448C86.6518 151.448 86.2488 151.448 85.9264 151.368C82.8634 150.884 80.6064 148.224 80.6064 145.08C80.6064 141.534 83.4276 138.713 86.9743 138.713C88.2639 138.713 89.473 139.116 90.5209 139.761C92.2136 140.889 93.3421 142.824 93.3421 145.08Z" fill="#69768C"/>
<path opacity="0.4" d="M93.3419 145.08C93.3419 148.627 90.5207 151.448 86.974 151.448C86.6516 151.448 86.2486 151.448 85.9262 151.368C84.2335 150.239 83.105 148.305 83.105 146.048C83.105 142.501 85.9262 139.68 89.4728 139.68C89.7952 139.68 90.1176 139.68 90.5207 139.761C92.2134 140.889 93.3419 142.824 93.3419 145.08Z" fill="#69768C"/>
<path opacity="0.5" d="M100.435 130.41C100.435 132.748 98.5813 134.602 96.2438 134.602C96.0019 134.602 95.7601 134.602 95.5183 134.521C93.5032 134.199 91.9717 132.425 91.9717 130.33C91.9717 127.992 93.9062 126.138 96.1632 126.138C97.1304 126.138 98.0171 126.461 98.7425 127.025C99.7904 127.912 100.435 129.121 100.435 130.41Z" fill="#69768C"/>
<path opacity="0.4" d="M100.435 130.41C100.435 132.748 98.5814 134.602 96.2438 134.602C96.002 134.602 95.7602 134.602 95.5184 134.521C94.5511 133.715 93.9062 132.506 93.9062 131.216C93.9062 128.879 95.7602 127.025 98.0977 127.025C98.3395 127.025 98.5814 127.025 98.8232 127.106C99.7904 127.912 100.435 129.121 100.435 130.41Z" fill="#69768C"/>
<path opacity="0.1" d="M115.106 131.216C115.106 156.93 89.1507 174.663 65.2109 165.232C65.7752 164.748 66.5006 164.426 67.1455 164.103C79.6393 157.977 91.1658 162.975 96.0828 154.27C98.3397 150.239 97.05 145 99.1458 140.889C100.113 138.874 101.806 137.262 102.773 135.327C106.239 128.234 99.1458 112.919 100.516 108.647C101.08 106.954 102.773 105.906 104.546 105.584C111.075 112.194 115.106 121.221 115.106 131.216Z" fill="#69768C"/>
<path opacity="0.1" d="M91.3268 102.198C89.3117 107.277 80.9287 105.745 77.2209 105.826C69.7246 105.906 68.6767 109.695 67.1452 111.71C64.7271 114.854 60.2938 116.143 56.5859 114.854C59.8102 130.33 53.1199 128.959 51.9108 133.876C50.5405 139.68 60.858 143.227 58.9235 148.95C57.795 152.254 52.9587 153.06 49.4121 153.302C31.2759 129.443 48.1224 94.6216 78.5106 94.6216C82.7021 94.6216 86.6517 95.347 90.3596 96.5561C91.488 98.3294 92.0523 100.425 91.3268 102.198Z" fill="#5C6479"/>
<path opacity="0.3" d="M62.1477 118.32C63.5723 118.32 64.7271 117.165 64.7271 115.74C64.7271 114.316 63.5723 113.161 62.1477 113.161C60.7232 113.161 59.5684 114.316 59.5684 115.74C59.5684 117.165 60.7232 118.32 62.1477 118.32Z" fill="#AAB2C5"/>
<defs>
<filter id="filter0_d" x="125.025" y="59.9841" width="71.8096" height="259.156" filterUnits="userSpaceOnUse" color-interpolation-filters="sRGB">
<feFlood flood-opacity="0" result="BackgroundImageFix"/>
<feColorMatrix in="SourceAlpha" type="matrix" values="0 0 0 0 0 0 0 0 0 0 0 0 0 0 0 0 0 0 127 0" result="hardAlpha"/>
<feOffset dy="11"/>
<feGaussianBlur stdDeviation="11"/>
<feColorMatrix type="matrix" values="0 0 0 0 0 0 0 0 0 0 0 0 0 0 0 0 0 0 0.27 0"/>
<feBlend mode="normal" in2="BackgroundImageFix" result="effect1_dropShadow"/>
<feBlend mode="normal" in="SourceGraphic" in2="effect1_dropShadow" result="shape"/>
</filter>
<filter id="filter1_d" x="218.285" y="59.9841" width="71.731" height="259.156" filterUnits="userSpaceOnUse" color-interpolation-filters="sRGB">
<feFlood flood-opacity="0" result="BackgroundImageFix"/>
<feColorMatrix in="SourceAlpha" type="matrix" values="0 0 0 0 0 0 0 0 0 0 0 0 0 0 0 0 0 0 127 0" result="hardAlpha"/>
<feOffset dy="11"/>
<feGaussianBlur stdDeviation="11"/>
<feColorMatrix type="matrix" values="0 0 0 0 0 0 0 0 0 0 0 0 0 0 0 0 0 0 0.27 0"/>
<feBlend mode="normal" in2="BackgroundImageFix" result="effect1_dropShadow"/>
<feBlend mode="normal" in="SourceGraphic" in2="effect1_dropShadow" result="shape"/>
</filter>
<filter id="filter2_d" x="106.89" y="112.881" width="123.799" height="198.52" filterUnits="userSpaceOnUse" color-interpolation-filters="sRGB">
<feFlood flood-opacity="0" result="BackgroundImageFix"/>
<feColorMatrix in="SourceAlpha" type="matrix" values="0 0 0 0 0 0 0 0 0 0 0 0 0 0 0 0 0 0 127 0" result="hardAlpha"/>
<feOffset dy="11"/>
<feGaussianBlur stdDeviation="11"/>
<feColorMatrix type="matrix" values="0 0 0 0 0 0 0 0 0 0 0 0 0 0 0 0 0 0 0.27 0"/>
<feBlend mode="normal" in2="BackgroundImageFix" result="effect1_dropShadow"/>
<feBlend mode="normal" in="SourceGraphic" in2="effect1_dropShadow" result="shape"/>
</filter>
<filter id="filter3_d" x="186.93" y="112.881" width="123.799" height="198.44" filterUnits="userSpaceOnUse" color-interpolation-filters="sRGB">
<feFlood flood-opacity="0" result="BackgroundImageFix"/>
<feColorMatrix in="SourceAlpha" type="matrix" values="0 0 0 0 0 0 0 0 0 0 0 0 0 0 0 0 0 0 127 0" result="hardAlpha"/>
<feOffset dy="11"/>
<feGaussianBlur stdDeviation="11"/>
<feColorMatrix type="matrix" values="0 0 0 0 0 0 0 0 0 0 0 0 0 0 0 0 0 0 0.27 0"/>
<feBlend mode="normal" in2="BackgroundImageFix" result="effect1_dropShadow"/>
<feBlend mode="normal" in="SourceGraphic" in2="effect1_dropShadow" result="shape"/>
</filter>
<filter id="filter4_d" x="167.262" y="69.1731" width="82.4487" height="239.246" filterUnits="userSpaceOnUse" color-interpolation-filters="sRGB">
<feFlood flood-opacity="0" result="BackgroundImageFix"/>
<feColorMatrix in="SourceAlpha" type="matrix" values="0 0 0 0 0 0 0 0 0 0 0 0 0 0 0 0 0 0 127 0" result="hardAlpha"/>
<feOffset dy="11"/>
<feGaussianBlur stdDeviation="11"/>
<feColorMatrix type="matrix" values="0 0 0 0 0 0 0 0 0 0 0 0 0 0 0 0 0 0 0.27 0"/>
<feBlend mode="normal" in2="BackgroundImageFix" result="effect1_dropShadow"/>
<feBlend mode="normal" in="SourceGraphic" in2="effect1_dropShadow" result="shape"/>
</filter>
<filter id="filter5_d" x="161.458" y="231.21" width="69.3101" height="80.2725" filterUnits="userSpaceOnUse" color-interpolation-filters="sRGB">
<feFlood flood-opacity="0" result="BackgroundImageFix"/>
<feColorMatrix in="SourceAlpha" type="matrix" values="0 0 0 0 0 0 0 0 0 0 0 0 0 0 0 0 0 0 127 0" result="hardAlpha"/>
<feOffset dy="11"/>
<feGaussianBlur stdDeviation="11"/>
<feColorMatrix type="matrix" values="0 0 0 0 0 0 0 0 0 0 0 0 0 0 0 0 0 0 0.27 0"/>
<feBlend mode="normal" in2="BackgroundImageFix" result="effect1_dropShadow"/>
<feBlend mode="normal" in="SourceGraphic" in2="effect1_dropShadow" result="shape"/>
</filter>
<filter id="filter6_d" x="186.527" y="231.21" width="69.3101" height="80.2725" filterUnits="userSpaceOnUse" color-interpolation-filters="sRGB">
<feFlood flood-opacity="0" result="BackgroundImageFix"/>
<feColorMatrix in="SourceAlpha" type="matrix" values="0 0 0 0 0 0 0 0 0 0 0 0 0 0 0 0 0 0 127 0" result="hardAlpha"/>
<feOffset dy="11"/>
<feGaussianBlur stdDeviation="11"/>
<feColorMatrix type="matrix" values="0 0 0 0 0 0 0 0 0 0 0 0 0 0 0 0 0 0 0.27 0"/>
<feBlend mode="normal" in2="BackgroundImageFix" result="effect1_dropShadow"/>
<feBlend mode="normal" in="SourceGraphic" in2="effect1_dropShadow" result="shape"/>
</filter>
<filter id="filter7_d" x="165.972" y="267.321" width="85.9146" height="54.7205" filterUnits="userSpaceOnUse" color-interpolation-filters="sRGB">
<feFlood flood-opacity="0" result="BackgroundImageFix"/>
<feColorMatrix in="SourceAlpha" type="matrix" values="0 0 0 0 0 0 0 0 0 0 0 0 0 0 0 0 0 0 127 0" result="hardAlpha"/>
<feOffset dy="11"/>
<feGaussianBlur stdDeviation="11"/>
<feColorMatrix type="matrix" values="0 0 0 0 0 0 0 0 0 0 0 0 0 0 0 0 0 0 0.27 0"/>
<feBlend mode="normal" in2="BackgroundImageFix" result="effect1_dropShadow"/>
<feBlend mode="normal" in="SourceGraphic" in2="effect1_dropShadow" result="shape"/>
</filter>
<filter id="filter8_d" x="183.867" y="222.343" width="49.2393" height="106.227" filterUnits="userSpaceOnUse" color-interpolation-filters="sRGB">
<feFlood flood-opacity="0" result="BackgroundImageFix"/>
<feColorMatrix in="SourceAlpha" type="matrix" values="0 0 0 0 0 0 0 0 0 0 0 0 0 0 0 0 0 0 127 0" result="hardAlpha"/>
<feOffset dy="11"/>
<feGaussianBlur stdDeviation="11"/>
<feColorMatrix type="matrix" values="0 0 0 0 0.397708 0 0 0 0 0.47749 0 0 0 0 0.575 0 0 0 0.27 0"/>
<feBlend mode="normal" in2="BackgroundImageFix" result="effect1_dropShadow"/>
<feBlend mode="normal" in="SourceGraphic" in2="effect1_dropShadow" result="shape"/>
</filter>
<filter id="filter9_d" x="282.982" y="54.8228" width="93.2554" height="93.2554" filterUnits="userSpaceOnUse" color-interpolation-filters="sRGB">
<feFlood flood-opacity="0" result="BackgroundImageFix"/>
<feColorMatrix in="SourceAlpha" type="matrix" values="0 0 0 0 0 0 0 0 0 0 0 0 0 0 0 0 0 0 127 0" result="hardAlpha"/>
<feOffset dy="11"/>
<feGaussianBlur stdDeviation="6.5"/>
<feColorMatrix type="matrix" values="0 0 0 0 0 0 0 0 0 0 0 0 0 0 0 0 0 0 0.22 0"/>
<feBlend mode="normal" in2="BackgroundImageFix" result="effect1_dropShadow"/>
<feBlend mode="normal" in="SourceGraphic" in2="effect1_dropShadow" result="shape"/>
</filter>
<filter id="filter10_d" x="260.732" y="39.3218" width="131.058" height="130.994" filterUnits="userSpaceOnUse" color-interpolation-filters="sRGB">
<feFlood flood-opacity="0" result="BackgroundImageFix"/>
<feColorMatrix in="SourceAlpha" type="matrix" values="0 0 0 0 0 0 0 0 0 0 0 0 0 0 0 0 0 0 127 0" result="hardAlpha"/>
<feOffset dy="11"/>
<feGaussianBlur stdDeviation="11"/>
<feColorMatrix type="matrix" values="0 0 0 0 0 0 0 0 0 0 0 0 0 0 0 0 0 0 0.27 0"/>
<feBlend mode="normal" in2="BackgroundImageFix" result="effect1_dropShadow"/>
<feBlend mode="normal" in="SourceGraphic" in2="effect1_dropShadow" result="shape"/>
</filter>
<filter id="filter11_d" x="295.639" y="64.6091" width="70.7681" height="70.7783" filterUnits="userSpaceOnUse" color-interpolation-filters="sRGB">
<feFlood flood-opacity="0" result="BackgroundImageFix"/>
<feColorMatrix in="SourceAlpha" type="matrix" values="0 0 0 0 0 0 0 0 0 0 0 0 0 0 0 0 0 0 127 0" result="hardAlpha"/>
<feOffset dy="11"/>
<feGaussianBlur stdDeviation="6.5"/>
<feColorMatrix type="matrix" values="0 0 0 0 0 0 0 0 0 0 0 0 0 0 0 0 0 0 0.22 0"/>
<feBlend mode="normal" in2="BackgroundImageFix" result="effect1_dropShadow"/>
<feBlend mode="normal" in="SourceGraphic" in2="effect1_dropShadow" result="shape"/>
</filter>
<linearGradient id="paint0_linear" x1="147" y1="174.5" x2="170.5" y2="175" gradientUnits="userSpaceOnUse">
<stop stop-color="#5D6271"/>
<stop offset="0.9964" stop-color="#383C49"/>
</linearGradient>
<linearGradient id="paint1_linear" x1="178.74" y1="170.5" x2="160.74" y2="170" gradientUnits="userSpaceOnUse">
<stop stop-color="#191D28"/>
<stop offset="1" stop-color="#454957" stop-opacity="0"/>
</linearGradient>
<linearGradient id="paint2_linear" x1="198" y1="79.0002" x2="240" y2="81.5002" gradientUnits="userSpaceOnUse">
<stop stop-color="#555C6D"/>
<stop offset="1" stop-color="#22262F"/>
</linearGradient>
<linearGradient id="paint3_linear" x1="246" y1="146" x2="224" y2="146" gradientUnits="userSpaceOnUse">
<stop stop-color="#11151D"/>
<stop offset="1" stop-color="#3D465A" stop-opacity="0"/>
</linearGradient>
<linearGradient id="paint4_linear" x1="225.5" y1="91.0001" x2="165.5" y2="69.5001" gradientUnits="userSpaceOnUse">
<stop stop-color="white"/>
<stop offset="1" stop-color="white" stop-opacity="0"/>
</linearGradient>
<linearGradient id="paint5_linear" x1="240.26" y1="174.5" x2="263.694" y2="174.997" gradientUnits="userSpaceOnUse">
<stop stop-color="#5D6271"/>
<stop offset="0.9964" stop-color="#383C49"/>
</linearGradient>
<linearGradient id="paint6_linear" x1="272" y1="170.5" x2="254" y2="170" gradientUnits="userSpaceOnUse">
<stop stop-color="#191D28"/>
<stop offset="1" stop-color="#454957" stop-opacity="0"/>
</linearGradient>
<linearGradient id="paint7_linear" x1="191.5" y1="202.501" x2="184" y2="202.501" gradientUnits="userSpaceOnUse">
<stop stop-color="#373D4B" stop-opacity="0.27"/>
<stop offset="1" stop-color="#546181" stop-opacity="0"/>
</linearGradient>
<linearGradient id="paint8_linear" x1="226" y1="209" x2="238" y2="209" gradientUnits="userSpaceOnUse">
<stop stop-color="#2E3544" stop-opacity="0.38"/>
<stop offset="1" stop-color="#82899B" stop-opacity="0"/>
</linearGradient>
<linearGradient id="paint9_linear" x1="232.996" y1="170.491" x2="218.009" y2="170.13" gradientUnits="userSpaceOnUse">
<stop stop-color="#414857"/>
<stop offset="1" stop-color="#606778" stop-opacity="0"/>
</linearGradient>
<linearGradient id="paint10_linear" x1="196.105" y1="241.371" x2="196.105" y2="278.873" gradientUnits="userSpaceOnUse">
<stop stop-color="#5C6479"/>
<stop offset="0.9964" stop-color="#5C6479"/>
</linearGradient>
<linearGradient id="paint11_linear" x1="213.536" y1="260" x2="198.98" y2="260" gradientUnits="userSpaceOnUse">
<stop stop-color="#474E5F"/>
<stop offset="1" stop-color="#5C657A"/>
</linearGradient>
<linearGradient id="paint12_linear" x1="221.174" y1="241.371" x2="221.174" y2="278.873" gradientUnits="userSpaceOnUse">
<stop stop-color="#5C6479"/>
<stop offset="0.9964" stop-color="#5C6479"/>
</linearGradient>
<linearGradient id="paint13_linear" x1="238.5" y1="260" x2="224.5" y2="260" gradientUnits="userSpaceOnUse">
<stop stop-color="#474E5F"/>
<stop offset="1" stop-color="#5C657A"/>
</linearGradient>
<linearGradient id="paint14_linear" x1="211" y1="267.5" x2="217.023" y2="267.334" gradientUnits="userSpaceOnUse">
<stop stop-color="#AAB2C5"/>
<stop offset="1" stop-color="#AAB2C5" stop-opacity="0"/>
</linearGradient>
<linearGradient id="paint15_linear" x1="327.034" y1="58.1281" x2="327.034" y2="126.981" gradientUnits="userSpaceOnUse">
<stop stop-color="#5C6479"/>
<stop offset="0.9964" stop-color="#5C6479"/>
</linearGradient>
<linearGradient id="paint16_linear" x1="78.566" y1="97.1637" x2="78.566" y2="138.237" gradientUnits="userSpaceOnUse">
<stop stop-color="#B0BACC"/>
<stop offset="1" stop-color="#969EAE"/>
</linearGradient>
</defs>
</svg>
