<svg width="420" height="238" viewBox="0 0 420 238" fill="none" xmlns="http://www.w3.org/2000/svg">
<path d="M235.251 205.317C225.43 205.652 213.762 205.317 205.368 205.233C197.141 205.568 185.221 205.652 175.484 205.317C185.137 199.86 188.579 189.619 189.083 182.988H221.568C222.324 189.535 225.682 199.86 235.251 205.317Z" fill="url(#paint0_linear)"/>
<path d="M266.646 96.7021V180.813C266.646 182.911 264.967 184.59 263.12 184.59H148.202C146.188 184.59 144.677 182.911 144.677 180.813V96.7021C144.677 94.6875 146.356 92.9247 148.202 92.9247H262.952C265.135 93.0926 266.646 94.7714 266.646 96.7021Z" fill="url(#paint1_linear)"/>
<path d="M267 96.7074V170H145V96.7074C145 94.7111 146.708 93 148.559 93H263.299C265.434 93 267 94.7111 267 96.7074Z" fill="#262A31"/>
<path d="M262.857 98H149V166H263V98H262.857Z" fill="#474E61"/>
<path d="M205.535 179.553C207.214 179.553 208.557 178.294 208.557 176.531C208.557 174.853 207.298 173.51 205.535 173.51C203.856 173.51 202.513 174.769 202.513 176.531C202.513 178.21 203.772 179.553 205.535 179.553Z" fill="#262A31"/>
<path fill-rule="evenodd" clip-rule="evenodd" d="M22.4707 206.569C22.4707 205.464 23.3661 204.569 24.4707 204.569H408.089C409.194 204.569 410.089 205.464 410.089 206.569C410.089 207.673 409.194 208.569 408.089 208.569H24.4707C23.3661 208.569 22.4707 207.673 22.4707 206.569Z" fill="#2B323C"/>
<g filter="url(#filter0_d)">
<path d="M387.104 108.202C387.356 107.95 387.524 107.782 387.608 107.698C387.608 107.698 388.195 107.195 388.195 107.111L388.615 106.775C388.951 106.607 389.539 106.02 390.546 105.768C392.225 105.264 393.232 105.768 393.82 105.684C393.904 105.684 394.071 105.6 394.071 105.6C394.239 105.516 394.407 105.432 394.407 105.432C394.911 105.012 394.743 105.012 397.429 87.5521L397.513 87.1324C397.597 86.6287 397.177 86.293 396.674 86.293H396.59H396.506L395.918 86.5448L389.371 89.3988L389.203 89.4828C377.283 94.6872 379.046 93.2602 379.801 96.6179C379.969 97.0376 380.221 98.5486 379.717 99.9756C379.549 100.563 379.214 101.067 378.71 101.906L387.104 108.202ZM385.425 101.906C384.334 101.067 384.082 99.472 384.922 98.2968C385.761 97.2055 387.356 96.9537 388.447 97.7931C389.539 98.6326 389.79 100.227 388.951 101.319C388.112 102.494 386.517 102.746 385.425 101.906Z" fill="url(#paint2_linear)"/>
</g>
<path fill-rule="evenodd" clip-rule="evenodd" d="M397.115 86.6753C397.553 87.0119 397.635 87.6397 397.298 88.0776L389.492 98.2347C389.155 98.6726 388.527 98.7547 388.089 98.4181C387.651 98.0816 387.569 97.4538 387.906 97.0159L395.713 86.8588C396.049 86.4209 396.677 86.3388 397.115 86.6753Z" fill="#1E1F28"/>
<path d="M399.612 86.6289C406.075 92.337 409.685 101.487 406.915 111.308M371.239 83.7748C379.885 78.6543 389.454 79.6616 396.59 84.2785M397.597 82.8514L383.83 72.2747M414.553 95.8626L400.787 85.2858M416.316 95.4429C416.652 95.4429 416.988 95.5268 417.323 95.7786C418.079 96.3662 418.247 97.4575 417.659 98.213C417.072 98.9685 415.98 99.1364 415.225 98.5488C414.889 98.2969 414.721 97.9612 414.637 97.6254C414.469 97.1217 414.553 96.5341 414.889 96.1144C415.225 95.6108 415.813 95.3589 416.316 95.4429ZM382.235 69.2527C382.571 69.2527 382.907 69.3367 383.243 69.5885C383.998 70.1761 384.166 71.2674 383.578 72.0228C382.991 72.7783 381.9 72.9462 381.144 72.3586C380.808 72.1068 380.64 71.771 380.557 71.4352C380.389 70.9316 380.473 70.344 380.808 69.9243C381.144 69.4206 381.732 69.1688 382.235 69.2527ZM403.977 115.505L403.557 112.147L405.823 111.812L406.915 111.644L407.25 114.33L407.334 114.918L403.977 115.505ZM367.965 87.888L367.545 84.5303L369.812 84.1945L370.903 84.0266L371.239 86.7128L371.323 87.3004L367.965 87.888ZM397.093 86.6289L396.674 83.2712L398.94 82.9354L400.031 82.7675L400.367 85.4537L400.451 86.0413L397.093 86.6289Z" stroke="#474D60" stroke-width="2" stroke-miterlimit="10"/>
<path d="M366.099 84.5578L366.465 88.2478C366.519 88.7974 367.009 89.1988 367.559 89.1443L371.249 88.7788C371.798 88.7243 372.2 88.2346 372.145 87.685L371.78 83.995C371.725 83.4454 371.236 83.044 370.686 83.0985L366.996 83.464C366.446 83.5185 366.045 84.0082 366.099 84.5578Z" fill="url(#paint3_linear)"/>
<path d="M396.099 82.5578L396.465 86.2478C396.519 86.7974 397.009 87.1988 397.559 87.1443L401.249 86.7788C401.798 86.7243 402.2 86.2346 402.145 85.685L401.78 81.995C401.725 81.4454 401.236 81.044 400.686 81.0985L396.996 81.464C396.446 81.5185 396.045 82.0082 396.099 82.5578Z" fill="url(#paint4_linear)"/>
<path d="M402.099 112.558L402.465 116.248C402.519 116.797 403.009 117.199 403.559 117.144L407.249 116.779C407.798 116.724 408.2 116.235 408.145 115.685L407.78 111.995C407.725 111.445 407.236 111.044 406.686 111.098L402.996 111.464C402.446 111.518 402.045 112.008 402.099 112.558Z" fill="url(#paint5_linear)"/>
<path d="M416.404 99.9615C417.972 99.8061 419.118 98.4086 418.962 96.84C418.807 95.2715 417.409 94.1259 415.841 94.2813C414.272 94.4367 413.127 95.8342 413.282 97.4028C413.438 98.9713 414.835 100.117 416.404 99.9615Z" fill="url(#paint6_linear)"/>
<path d="M383.404 73.9617C384.972 73.8063 386.118 72.4087 385.962 70.8401C385.807 69.2716 384.409 68.126 382.841 68.2814C381.272 68.4368 380.127 69.8343 380.282 71.4029C380.438 72.9715 381.835 74.1171 383.404 73.9617Z" fill="url(#paint7_linear)"/>
<path d="M381.312 112.819L373.757 107.027C373.337 106.691 373.253 106.104 373.589 105.684L375.1 103.669L376.359 102.074L376.695 101.571C377.031 101.151 377.618 101.067 378.038 101.403L387.691 108.874C388.111 109.209 388.195 109.797 387.859 110.217L384.753 114.246C384.418 114.666 383.83 114.75 383.41 114.414L383.075 114.162L381.312 112.819Z" fill="url(#paint8_linear)"/>
<g filter="url(#filter1_d)">
<path d="M74.5849 105.936L48.059 99.3042C47.5553 99.2203 47.1356 98.8845 46.7998 98.5487L43.4421 95.1071L41.4275 93.0085C41.0078 92.5888 41.1757 91.8333 41.7633 91.6654L44.5334 90.826L49.1502 89.399C49.6539 89.2311 50.1575 89.2311 50.6612 89.315L77.1871 95.9465C78.1944 96.1983 78.782 97.2056 78.5302 98.213L76.9353 104.593C76.5995 105.516 75.5922 106.188 74.5849 105.936Z" fill="url(#paint9_linear)"/>
</g>
<path d="M74.5848 105.936L70.3877 104.844L72.906 94.8552L77.1031 95.9465C78.1104 96.1983 78.698 97.2056 78.4462 98.2129L76.8513 104.593C76.5995 105.516 75.5921 106.187 74.5848 105.936Z" fill="#9DA6B6"/>
<path d="M43.3581 95.1071L41.3435 93.0086C40.9238 92.5889 41.0917 91.8334 41.6793 91.6655L44.4494 90.826L43.3581 95.1071Z" fill="#9AA6BA"/>
<path d="M70.6394 94.2679L68.1211 104.341" stroke="#838D9E" stroke-width="2" stroke-miterlimit="10"/>
<path d="M50.1579 89.1472L47.6396 99.1364" stroke="#838D9E" stroke-width="2" stroke-miterlimit="10"/>
<path d="M69.8004 97.4575L49.4023 92.337" stroke="#838D9E" stroke-width="2" stroke-miterlimit="10"/>
<path d="M68.9605 100.899L48.4785 95.7787" stroke="#838D9E" stroke-width="2" stroke-miterlimit="10"/>
<path d="M145.525 38.0951L116.841 24.3323L103.078 53.0161L131.762 66.7789L145.525 38.0951Z" stroke="#474D60" stroke-width="2" stroke-miterlimit="10"/>
<path d="M129.483 67.8258L112.778 73.7018L129.483 67.8258ZM151.14 60.187L134.184 66.1469L151.14 60.187ZM151.728 58.3402C151.98 58.0045 152.231 57.7526 152.651 57.6687C153.575 57.3329 154.666 57.8366 155.002 58.76C155.337 59.6833 154.834 60.7746 153.91 61.1104C153.491 61.2782 153.155 61.2782 152.735 61.1104C152.231 60.9425 151.728 60.5228 151.56 59.9352C151.308 59.4315 151.392 58.8439 151.728 58.3402ZM109.253 73.366C109.505 73.0302 109.756 72.7784 110.176 72.6945C111.1 72.3587 112.191 72.8623 112.527 73.7857C112.862 74.7091 112.359 75.8003 111.435 76.1361C111.016 76.304 110.68 76.304 110.26 76.1361C109.756 75.9682 109.253 75.5485 109.085 74.9609C108.833 74.3733 108.917 73.7857 109.253 73.366ZM132.673 69.3367L129.483 67.8258L130.49 65.6433L130.994 64.636L133.596 65.8951L134.184 66.1469L132.673 69.3367Z" stroke="#474D60" stroke-width="2" stroke-miterlimit="10"/>
<path d="M114.793 25.8545L98.0879 31.7305M114.793 25.8545L117.982 27.3655L119.493 24.1756L118.906 23.9238L116.303 22.6647L115.8 23.672L114.793 25.8545ZM136.366 18.2997L119.409 24.2596M137.037 16.4529C137.289 16.1171 137.541 15.8653 137.961 15.7814C138.884 15.4456 139.975 15.9493 140.311 16.8726C140.647 17.796 140.143 18.8873 139.22 19.223C138.8 19.3909 138.464 19.3909 138.045 19.223C137.541 19.0551 137.037 18.6354 136.869 18.0478C136.618 17.4602 136.702 16.8726 137.037 16.4529ZM94.4784 31.3947C94.7302 31.059 94.982 30.8071 95.4017 30.7232C96.3251 30.3874 97.4164 30.8911 97.7521 31.8144C98.0879 32.7378 97.5843 33.8291 96.6609 34.1648C96.2412 34.3327 95.9054 34.3327 95.4857 34.1648C94.982 33.997 94.4784 33.5772 94.3105 32.9896C94.0587 32.402 94.1426 31.8144 94.4784 31.3947ZM104.048 55.4863L100.858 53.9753L101.865 51.7928L102.369 50.7855L104.971 52.0446L105.559 52.2965L104.048 55.4863ZM148.202 37.3547L146.691 40.5445L144.508 39.5372L143.501 39.0335L144.76 36.4313L145.012 35.8437L148.202 37.3547Z" stroke="#474D60" stroke-width="2" stroke-miterlimit="10"/>
<path d="M115.309 21.8213L113.455 25.0327C113.179 25.5109 113.343 26.1225 113.821 26.3987L117.032 28.2527C117.511 28.5289 118.122 28.365 118.398 27.8867L120.252 24.6754C120.529 24.1971 120.365 23.5855 119.886 23.3094L116.675 21.4553C116.197 21.1792 115.585 21.3431 115.309 21.8213Z" fill="url(#paint10_linear)"/>
<path d="M101.354 49.866L99.5 53.0773C99.2239 53.5556 99.3877 54.1672 99.866 54.4434L103.077 56.2974C103.556 56.5736 104.167 56.4097 104.443 55.9314L106.297 52.7201C106.574 52.2418 106.41 51.6302 105.931 51.3541L102.72 49.5C102.242 49.2239 101.63 49.3877 101.354 49.866Z" fill="url(#paint11_linear)"/>
<path d="M144.354 34.866L142.5 38.0773C142.224 38.5556 142.388 39.1672 142.866 39.4434L146.077 41.2974C146.556 41.5736 147.167 41.4097 147.443 40.9314L149.297 37.7201C149.574 37.2418 149.41 36.6302 148.931 36.3541L145.72 34.5C145.242 34.2239 144.63 34.3877 144.354 34.866Z" fill="url(#paint12_linear)"/>
<path d="M130.354 63.866L128.5 67.0773C128.224 67.5556 128.388 68.1672 128.866 68.4434L132.077 70.2974C132.556 70.5736 133.167 70.4097 133.443 69.9314L135.297 66.7201C135.574 66.2418 135.41 65.6302 134.931 65.3541L131.72 63.5C131.242 63.2239 130.63 63.3877 130.354 63.866Z" fill="url(#paint13_linear)"/>
<path d="M109.37 78.0592C111.097 79.0563 113.305 78.4646 114.302 76.7376C115.299 75.0107 114.708 72.8025 112.981 71.8054C111.254 70.8084 109.046 71.4001 108.048 73.127C107.051 74.8539 107.643 77.0622 109.37 78.0592Z" fill="url(#paint14_linear)"/>
<path d="M152.127 62.0592C153.854 63.0563 156.062 62.4646 157.059 60.7376C158.056 59.0107 157.464 56.8025 155.738 55.8054C154.011 54.8084 151.802 55.4001 150.805 57.127C149.808 58.8539 150.4 61.0622 152.127 62.0592Z" fill="url(#paint15_linear)"/>
<path d="M137.127 20.0593C138.854 21.0564 141.062 20.4647 142.059 18.7378C143.056 17.0108 142.464 14.8026 140.738 13.8056C139.011 12.8085 136.802 13.4002 135.805 15.1271C134.808 16.8541 135.4 19.0623 137.127 20.0593Z" fill="url(#paint16_linear)"/>
<path d="M94.1269 36.0595C95.8538 37.0565 98.0621 36.4648 99.0591 34.7379C100.056 33.011 99.4645 30.8027 97.7375 29.8057C96.0106 28.8086 93.8024 29.4003 92.8053 31.1273C91.8083 32.8542 92.4 35.0624 94.1269 36.0595Z" fill="url(#paint17_linear)"/>
<path d="M125.37 48.1832L115.884 51.5409C115.38 51.7088 114.877 51.457 114.709 50.9533L111.351 41.4678C111.183 40.9641 111.435 40.4604 111.939 40.2926L121.424 36.9349C121.928 36.767 122.432 37.0188 122.599 37.5225L125.957 47.008C126.125 47.5116 125.873 48.0153 125.37 48.1832Z" fill="#67718A"/>
<path d="M131.329 49.9462L125.789 53.4718C124.53 54.2273 122.935 53.8915 122.096 52.6323L118.57 47.0921C117.814 45.833 118.15 44.2381 119.409 43.3986L124.95 39.873C126.209 39.1176 127.804 39.4533 128.643 40.7125L132.169 46.2527C132.924 47.5118 132.504 49.1907 131.329 49.9462Z" fill="#A8B2C3"/>
<path d="M136.282 51.9606C134.855 54.8986 131.329 56.1577 128.391 54.7307C125.453 53.3037 124.194 49.7781 125.621 46.8401C127.048 43.9021 130.574 42.643 133.512 44.07C136.45 45.4131 137.709 48.9387 136.282 51.9606Z" fill="#67718A"/>
<path d="M90.3656 138.338H79.2852V171.747H90.3656V138.338Z" fill="url(#paint18_linear)"/>
<path d="M89.3659 144.13H84.833" stroke="#677089" stroke-width="2" stroke-miterlimit="10" stroke-linecap="square" stroke-linejoin="round"/>
<path d="M89.3659 149.922H84.833" stroke="#677089" stroke-width="2" stroke-miterlimit="10" stroke-linecap="square" stroke-linejoin="round"/>
<path d="M89.3659 155.798H84.833" stroke="#677089" stroke-width="2" stroke-miterlimit="10" stroke-linecap="square" stroke-linejoin="round"/>
<path d="M89.3659 161.59H84.833" stroke="#677089" stroke-width="2" stroke-miterlimit="10" stroke-linecap="square" stroke-linejoin="round"/>
<path d="M104.636 155.378L102.537 151.265L102.285 151.684L102.369 151.181L98.0883 152.776C98.0883 152.776 92.4641 161.506 87.9312 173.174C85.4129 179.805 88.6867 179.469 92.1284 177.958C93.6393 181.316 95.8218 183.834 98.4241 177.203C102.873 165.703 104.636 155.378 104.636 155.378Z" fill="#9EA7B7"/>
<path d="M108.833 152.356C107.574 155.63 103.881 157.225 100.607 155.966C97.3333 154.706 95.7384 151.013 96.9976 147.739C98.0049 145.053 104.552 139.849 106.903 138.002C107.323 137.666 107.91 137.918 107.994 138.421C108.582 141.527 109.841 149.754 108.833 152.356Z" fill="#677189"/>
<path d="M70.8914 177.203L61.8256 150.929C61.6577 150.425 61.6577 149.922 61.7417 149.418L62.8329 144.633L63.5045 141.779C63.6723 141.192 64.3439 140.94 64.8475 141.276L67.114 143.122L70.8914 146.228C71.3111 146.564 71.563 146.984 71.7309 147.487L80.7967 173.761C81.1324 174.769 80.6288 175.86 79.6215 176.196L73.3258 178.378C72.2345 178.714 71.2272 178.127 70.8914 177.203Z" fill="url(#paint19_linear)"/>
<path d="M70.8909 177.203L69.4639 173.006L79.3691 169.564L80.7961 173.762C81.1319 174.769 80.6283 175.86 79.6209 176.196L73.3252 178.378C72.234 178.714 71.2267 178.127 70.8909 177.203Z" fill="#F1F3FA" stroke="#D6DDE8" stroke-width="2" stroke-miterlimit="10"/>
<path d="M62.749 144.549L63.4206 141.695C63.5884 141.108 64.26 140.856 64.7636 141.192L67.0301 143.038L62.749 144.549Z" fill="#677089"/>
<path d="M78.5302 167.382L68.625 170.74" stroke="#D6DDE8" stroke-width="2" stroke-miterlimit="10"/>
<path d="M71.5625 147.152L61.7412 150.509" stroke="#677089" stroke-width="2" stroke-miterlimit="10"/>
<path d="M73.9975 169.061L67.0303 148.83" stroke="#677089" stroke-width="2" stroke-miterlimit="10"/>
<g filter="url(#filter2_d)">
<path d="M64.0078 163.856H105.643C105.643 163.856 110.344 180.309 95.6542 191.305C95.6542 203.225 95.6542 204.401 95.6542 204.401H74.3327V197.503C74.3327 196.398 73.4373 195.503 72.3327 195.503H66.7632C65.6587 195.503 64.7632 194.607 64.7632 193.503V185.233C64.7632 184.313 64.1357 183.512 63.2427 183.291L60.5098 182.616C59.2284 182.3 58.5994 180.851 59.2435 179.699L63.9238 171.327C63.0844 167.969 63.2523 166.374 64.0078 163.856Z" fill="url(#paint20_linear)"/>
</g>
<path d="M72.4859 172.586C69.8837 172.586 67.7852 170.488 67.7852 167.802H69.3801C69.3801 169.564 70.8071 170.991 72.5699 170.991C74.3327 170.991 75.7597 169.564 75.7597 167.802H77.3546C77.2707 170.488 75.0882 172.586 72.4859 172.586Z" fill="#9DA6B6"/>
<g filter="url(#filter3_d)">
<path d="M127.469 180.645L103.965 204.149C103.125 204.988 101.782 204.988 100.943 204.149L90.4499 193.656C89.6105 192.816 89.6105 191.473 90.4499 190.634L113.954 167.13C114.793 166.29 116.136 166.29 116.976 167.13L127.469 177.623C128.308 178.378 128.308 179.805 127.469 180.645Z" fill="url(#paint21_linear)"/>
</g>
<path d="M127.469 180.645L120.334 187.78L106.819 174.265L113.954 167.13C114.793 166.29 116.136 166.29 116.976 167.13L127.469 177.623C128.308 178.378 128.308 179.805 127.469 180.645Z" fill="#414758"/>
<g filter="url(#filter4_d)">
<path d="M129.987 192.397L98.8446 203.981C97.7533 204.4 96.4942 203.813 96.0744 202.722L90.87 188.871C90.4503 187.78 91.0379 186.521 92.1291 186.101L123.272 174.517C124.363 174.097 125.622 174.685 126.042 175.776L131.246 189.626C131.666 190.802 131.079 191.977 129.987 192.397Z" fill="url(#paint22_linear)"/>
</g>
<path d="M129.987 192.397L120.586 195.922L113.954 178.042L123.356 174.517C124.447 174.097 125.706 174.685 126.126 175.776L131.33 189.626C131.666 190.802 131.078 191.977 129.987 192.397Z" fill="#252930"/>
<path d="M113.931 178.028L102.051 182.447L108.723 200.386L120.603 195.967L113.931 178.028Z" fill="#414758"/>
<g filter="url(#filter5_d)">
<path d="M128.812 204.736H95.5702C94.395 204.736 93.3877 203.729 93.3877 202.554V187.78C93.3877 186.604 94.3111 185.597 95.5702 185.597H128.812C129.987 185.597 130.994 186.521 130.994 187.78V202.554C130.91 203.729 129.987 204.736 128.812 204.736Z" fill="url(#paint23_linear)"/>
</g>
<path d="M128.811 204.736H118.738V185.597H128.811C129.987 185.597 130.994 186.521 130.994 187.78V202.554C130.91 203.729 129.987 204.736 128.811 204.736Z" fill="#646D85"/>
<path d="M118.738 185.597H106.063V204.736H118.738V185.597Z" fill="#252930"/>
<path d="M99.5999 197.265C100.944 197.265 102.034 196.175 102.034 194.831C102.034 193.486 100.944 192.396 99.5999 192.396C98.2554 192.396 97.1655 193.486 97.1655 194.831C97.1655 196.175 98.2554 197.265 99.5999 197.265Z" fill="#262A31"/>
<g filter="url(#filter6_d)">
<path d="M328.26 204.569H298.796C295.187 204.569 292.249 201.631 292.249 198.021V159.743H334.808V198.021C334.808 201.631 331.87 204.569 328.26 204.569Z" fill="url(#paint24_linear)"/>
</g>
<path d="M329.099 159.743V173.09C329.099 174.265 328.092 175.273 326.917 175.273C325.741 175.273 324.734 174.265 324.734 173.09V164.528C324.734 163.353 323.727 162.345 322.552 162.345C321.376 162.345 320.369 163.353 320.369 164.528V169.313C320.369 170.488 319.362 171.495 318.186 171.495C317.011 171.495 316.004 170.488 316.004 169.313V168.725C316.004 167.55 314.997 166.543 313.821 166.543C312.646 166.543 311.639 167.55 311.639 168.725V181.568C311.639 182.743 310.632 183.751 309.456 183.751C308.281 183.751 307.274 182.743 307.274 181.568V159.743H329.099Z" fill="#9DA6B6"/>
<path fill-rule="evenodd" clip-rule="evenodd" d="M286.887 166.123C286.887 165.294 287.558 164.623 288.387 164.623H292.248C293.077 164.623 293.748 165.294 293.748 166.123C293.748 166.951 293.077 167.623 292.248 167.623H289.934C290.709 179.948 300.967 189.722 313.486 189.722C326.004 189.722 336.262 179.948 337.037 167.623H334.891C334.063 167.623 333.391 166.951 333.391 166.123C333.391 165.294 334.063 164.623 334.891 164.623H338.584C339.413 164.623 340.084 165.294 340.084 166.123C340.084 180.802 328.165 192.722 313.486 192.722C298.807 192.722 286.887 180.802 286.887 166.123Z" fill="#9EA7B6"/>
<path d="M336.486 160.834H290.905C290.317 160.834 289.813 160.331 289.813 159.743C289.813 159.156 290.317 158.652 290.905 158.652H336.486C337.073 158.652 337.577 159.156 337.577 159.743C337.577 160.331 337.073 160.834 336.486 160.834Z" fill="#9CA5B5" stroke="#9DA6B6" stroke-width="2" stroke-miterlimit="10" stroke-linejoin="round"/>
<g filter="url(#filter7_d)">
<path d="M229.627 148.663H162.641C159.535 148.663 157.101 146.144 157.101 143.122V92.0012C157.101 88.8953 159.619 86.4609 162.641 86.4609H229.627C232.733 86.4609 235.167 88.9792 235.167 92.0012V143.122C235.251 146.144 232.733 148.663 229.627 148.663Z" fill="url(#paint25_linear)"/>
</g>
<path d="M235 94H157V89.0533C157 87.374 158.072 86 159.382 86H232.618C233.928 86 235 87.374 235 89.0533V94Z" fill="url(#paint26_linear)"/>
<path d="M161 91C161.556 91 162 90.6111 162 90C162 89.4444 161.611 89 161 89C160.444 89 160 89.3889 160 90C160 90.5556 160.444 91 161 91Z" fill="#667089"/>
<path d="M164 91C164.556 91 165 90.6111 165 90C165 89.4444 164.611 89 164 89C163.444 89 163 89.3889 163 90C163 90.5556 163.389 91 164 91Z" fill="#667089"/>
<path d="M167 91C167.556 91 168 90.6111 168 90C168 89.4444 167.611 89 167 89C166.444 89 166 89.3889 166 90C166 90.5556 166.444 91 167 91Z" fill="#667089"/>
<path d="M207.717 108.454H183.458V133.217H207.717V108.454Z" stroke="#262A31" stroke-width="2" stroke-miterlimit="10" stroke-linecap="round" stroke-linejoin="round"/>
<path d="M185.312 105.6H181.604C181.052 105.6 180.604 106.048 180.604 106.6V110.308C180.604 110.86 181.052 111.308 181.604 111.308H185.312C185.864 111.308 186.312 110.86 186.312 110.308V106.6C186.312 106.048 185.864 105.6 185.312 105.6Z" fill="#262A31"/>
<path d="M209.571 105.6H205.863C205.311 105.6 204.863 106.048 204.863 106.6V110.308C204.863 110.86 205.311 111.308 205.863 111.308H209.571C210.124 111.308 210.571 110.86 210.571 110.308V106.6C210.571 106.048 210.124 105.6 209.571 105.6Z" fill="#262A31"/>
<path d="M185.312 130.279H181.604C181.052 130.279 180.604 130.727 180.604 131.279V134.987C180.604 135.539 181.052 135.987 181.604 135.987H185.312C185.864 135.987 186.312 135.539 186.312 134.987V131.279C186.312 130.727 185.864 130.279 185.312 130.279Z" fill="#262A31"/>
<path d="M200.29 126.716C200.03 125.935 200.772 125.191 201.553 125.45L211.071 128.604C211.914 128.883 212.002 130.04 211.212 130.443L210.608 130.752C210.007 131.058 209.876 131.86 210.348 132.342L212.733 134.776C213.117 135.168 213.114 135.796 212.726 136.183L211.195 137.714C210.804 138.105 210.171 138.105 209.781 137.714L207.451 135.385C206.99 134.924 206.218 135.02 205.885 135.58L205.309 136.546C204.871 137.281 203.772 137.162 203.502 136.35L200.29 126.716Z" fill="url(#paint27_linear)"/>
<path d="M154.918 23.9239H154.246C153.155 23.9239 152.315 23.0844 152.315 21.9932V21.3216C152.315 20.4822 151.644 19.8107 150.804 19.8107C149.965 19.8107 149.293 20.4822 149.293 21.3216V21.9932C149.293 23.0844 148.454 23.9239 147.363 23.9239H146.691C145.852 23.9239 145.18 24.5954 145.18 25.4348C145.18 26.2743 145.852 26.9458 146.691 26.9458H147.363C148.454 26.9458 149.293 27.7852 149.293 28.8765V29.548C149.293 30.3875 149.965 31.059 150.804 31.059C151.644 31.059 152.315 30.3875 152.315 29.548V28.8765C152.315 27.7852 153.155 26.9458 154.246 26.9458H154.918C155.757 26.9458 156.429 26.2743 156.429 25.4348C156.429 24.5954 155.757 23.9239 154.918 23.9239Z" fill="#474E61"/>
<path d="M100.271 87.9721H99.6833C98.8438 87.9721 98.0884 87.3005 98.0884 86.3771V85.7895C98.0884 85.118 97.5008 84.5304 96.8292 84.5304C96.1577 84.5304 95.5701 85.118 95.5701 85.7895V86.3771C95.5701 87.2166 94.8985 87.9721 93.9752 87.9721H93.3876C92.716 87.9721 92.1284 88.5597 92.1284 89.2312C92.1284 89.9027 92.716 90.4903 93.3876 90.4903H93.9752C94.8146 90.4903 95.5701 91.1619 95.5701 92.0852V92.6728C95.5701 93.3444 96.1577 93.932 96.8292 93.932C97.5008 93.932 98.0884 93.3444 98.0884 92.6728V92.0852C98.0884 91.2458 98.7599 90.4903 99.6833 90.4903H100.271C100.942 90.4903 101.53 89.9027 101.53 89.2312C101.53 88.5597 101.026 87.9721 100.271 87.9721Z" fill="#474E61"/>
<path d="M211.076 3.35771H210.488C209.649 3.35771 208.893 2.68617 208.893 1.7628V1.25914C208.893 0.587599 208.305 0 207.634 0C206.962 0 206.375 0.587599 206.375 1.25914V1.84674C206.375 2.68617 205.703 3.44165 204.78 3.44165H204.192C203.521 3.44165 202.933 4.02925 202.933 4.7008C202.933 5.37234 203.521 5.95994 204.192 5.95994H204.78C205.619 5.95994 206.375 6.63148 206.375 7.55485V8.14245C206.375 8.81399 206.962 9.40159 207.634 9.40159C208.305 9.40159 208.893 8.81399 208.893 8.14245V7.38696C208.893 6.54754 209.565 5.79205 210.488 5.79205H211.076C211.747 5.79205 212.335 5.20445 212.335 4.53291C212.335 3.94531 211.747 3.35771 211.076 3.35771Z" fill="#474E61"/>
<path d="M375.603 33.7449H374.932C373.84 33.7449 373.001 32.9055 373.001 31.8142V31.1427C373.001 30.3033 372.329 29.6317 371.49 29.6317C370.65 29.6317 369.979 30.3033 369.979 31.1427V31.8142C369.979 32.9055 369.139 33.7449 368.048 33.7449H367.377C366.537 33.7449 365.866 34.4165 365.866 35.2559C365.866 36.0953 366.537 36.7668 367.377 36.7668H368.048C369.139 36.7668 369.979 37.6063 369.979 38.6975V39.3691C369.979 40.2085 370.65 40.88 371.49 40.88C372.329 40.88 373.001 40.2085 373.001 39.3691V38.6975C373.001 37.6063 373.84 36.7668 374.932 36.7668H375.603C376.443 36.7668 377.114 36.0953 377.114 35.2559C377.114 34.4165 376.443 33.7449 375.603 33.7449Z" fill="#474E61"/>
<path d="M359.99 131.622H359.318C358.227 131.622 357.388 130.783 357.388 129.692V129.02C357.388 128.181 356.716 127.509 355.877 127.509C355.037 127.509 354.366 128.181 354.366 129.02V129.692C354.366 130.783 353.526 131.622 352.435 131.622H351.763C350.924 131.622 350.252 132.294 350.252 133.133C350.252 133.973 350.924 134.644 351.763 134.644H352.435C353.526 134.644 354.366 135.484 354.366 136.575V137.246C354.366 138.086 355.037 138.757 355.877 138.757C356.716 138.757 357.388 138.086 357.388 137.246V136.575C357.388 135.484 358.227 134.644 359.318 134.644H359.99C360.829 134.644 361.501 133.973 361.501 133.133C361.501 132.294 360.829 131.622 359.99 131.622Z" fill="#474E61"/>
<path d="M402.465 159.911H402.045C401.374 159.911 400.87 159.407 400.87 158.736V158.316C400.87 157.813 400.45 157.393 399.947 157.393C399.443 157.393 399.023 157.813 399.023 158.316V158.736C399.023 159.407 398.52 159.911 397.848 159.911H397.428C396.925 159.911 396.505 160.331 396.505 160.834C396.505 161.338 396.925 161.758 397.428 161.758H397.848C398.52 161.758 399.023 162.262 399.023 162.933V163.353C399.023 163.856 399.443 164.276 399.947 164.276C400.45 164.276 400.87 163.856 400.87 163.353V162.933C400.87 162.262 401.374 161.758 402.045 161.758H402.465C402.968 161.758 403.388 161.338 403.388 160.834C403.388 160.331 402.968 159.911 402.465 159.911Z" fill="#474E61"/>
<path d="M363.18 180.729H362.844C362.34 180.729 361.921 180.309 361.921 179.805V179.47C361.921 179.05 361.585 178.714 361.165 178.714C360.745 178.714 360.41 179.05 360.41 179.47V179.805C360.41 180.309 359.99 180.729 359.486 180.729H359.15C358.731 180.729 358.395 181.065 358.395 181.484C358.395 181.904 358.731 182.24 359.15 182.24H359.486C359.99 182.24 360.41 182.659 360.41 183.163V183.499C360.41 183.919 360.745 184.254 361.165 184.254C361.585 184.254 361.921 183.919 361.921 183.499V183.163C361.921 182.659 362.34 182.24 362.844 182.24H363.18C363.599 182.24 363.935 181.904 363.935 181.484C363.851 181.065 363.516 180.729 363.18 180.729Z" fill="#474E61"/>
<path d="M286.54 110.553H286.204C285.701 110.553 285.281 110.133 285.281 109.629V109.294C285.281 108.874 284.945 108.538 284.525 108.538C284.106 108.538 283.77 108.874 283.77 109.294V109.629C283.77 110.133 283.35 110.553 282.847 110.553H282.511C282.091 110.553 281.755 110.888 281.755 111.308C281.755 111.728 282.091 112.064 282.511 112.064H282.847C283.35 112.064 283.77 112.483 283.77 112.987V113.323C283.77 113.743 284.106 114.078 284.525 114.078C284.945 114.078 285.281 113.743 285.281 113.323V112.987C285.281 112.483 285.701 112.064 286.204 112.064H286.54C286.96 112.064 287.296 111.728 287.296 111.308C287.296 110.888 286.96 110.553 286.54 110.553Z" fill="#474E61"/>
<path d="M28.9197 139.933H28.5C27.8284 139.933 27.2408 139.345 27.2408 138.673V138.254C27.2408 137.666 26.8211 137.246 26.2335 137.246C25.6459 137.246 25.2262 137.666 25.2262 138.254V138.673C25.2262 139.345 24.6386 139.933 23.9671 139.933H23.5474C22.9598 139.933 22.54 140.352 22.54 140.94C22.54 141.527 22.9598 141.947 23.5474 141.947H23.9671C24.6386 141.947 25.2262 142.535 25.2262 143.206V143.626C25.2262 144.214 25.6459 144.633 26.2335 144.633C26.8211 144.633 27.2408 144.214 27.2408 143.626V143.206C27.2408 142.535 27.8284 141.947 28.5 141.947H28.9197C29.5073 141.947 29.927 141.527 29.927 140.94C29.927 140.352 29.5073 139.933 28.9197 139.933Z" fill="#474E61"/>
<path d="M6.00332 83.7748H5.66755C5.07995 83.7748 4.66024 83.3551 4.66024 82.7675V82.4317C4.66024 82.012 4.32447 81.5923 3.82081 81.5923C3.4011 81.5923 2.98138 81.9281 2.98138 82.4317V82.7675C2.98138 83.3551 2.56167 83.7748 1.97407 83.7748H1.72224C1.30253 83.7748 0.882812 84.1106 0.882812 84.6142C0.882812 85.0339 1.21858 85.4537 1.72224 85.4537H2.05801C2.64561 85.4537 3.06532 85.8734 3.06532 86.461V86.7967C3.06532 87.2165 3.4011 87.6362 3.90475 87.6362C4.32447 87.6362 4.74418 87.3004 4.74418 86.7967V86.461C4.74418 85.8734 5.16389 85.4537 5.75149 85.4537H6.08726C6.50698 85.4537 6.92669 85.1179 6.92669 84.6142C6.84275 84.1945 6.50698 83.7748 6.00332 83.7748Z" fill="#474E61"/>
<path d="M52.3402 48.6028H52.0044C51.4168 48.6028 50.9971 48.1831 50.9971 47.5955V47.2597C50.9971 46.84 50.6613 46.4203 50.1577 46.4203C49.738 46.4203 49.3183 46.7561 49.3183 47.2597V47.5955C49.3183 48.1831 48.8985 48.6028 48.3109 48.6028H47.9752C47.5555 48.6028 47.1357 48.9386 47.1357 49.4422C47.1357 49.8619 47.4715 50.2817 47.9752 50.2817H48.3109C48.8985 50.2817 49.3183 50.7014 49.3183 51.289V51.6247C49.3183 52.0445 49.654 52.4642 50.1577 52.4642C50.5774 52.4642 50.9971 52.1284 50.9971 51.6247V51.205C50.9971 50.6174 51.4168 50.1977 52.0044 50.1977H52.3402C52.7599 50.1977 53.1796 49.8619 53.1796 49.3583C53.1796 48.9386 52.7599 48.6028 52.3402 48.6028Z" fill="#474E61"/>
<path d="M233.404 27.785C230.802 27.785 228.703 25.6864 228.703 23.0842C228.703 20.482 230.802 18.3834 233.404 18.3834C236.006 18.3834 238.105 20.482 238.105 23.0842C238.105 25.6864 236.006 27.785 233.404 27.785ZM233.404 20.9856C232.229 20.9856 231.221 21.909 231.221 23.1682C231.221 24.4273 232.145 25.3507 233.404 25.3507C234.579 25.3507 235.586 24.4273 235.586 23.1682C235.586 21.909 234.579 20.9856 233.404 20.9856Z" fill="#474E61"/>
<path d="M94.5631 125.243C91.9609 125.243 89.8623 123.144 89.8623 120.542C89.8623 117.94 91.9609 115.841 94.5631 115.841C97.1653 115.841 99.2639 117.94 99.2639 120.542C99.2639 123.144 97.0814 125.243 94.5631 125.243ZM94.5631 118.359C93.3879 118.359 92.3806 119.283 92.3806 120.542C92.3806 121.801 93.304 122.724 94.5631 122.724C95.8222 122.724 96.7456 121.801 96.7456 120.542C96.7456 119.283 95.7383 118.359 94.5631 118.359Z" fill="#474E61"/>
<path d="M307.526 70.344C305.679 70.344 304.084 68.833 304.084 66.9023C304.084 64.9717 305.595 63.4607 307.526 63.4607C309.372 63.4607 310.967 64.9717 310.967 66.9023C310.967 68.833 309.456 70.344 307.526 70.344ZM307.526 65.3074C306.686 65.3074 305.931 65.979 305.931 66.9023C305.931 67.7418 306.602 68.4973 307.526 68.4973C308.365 68.4973 309.121 67.8257 309.121 66.9023C309.121 66.0629 308.449 65.3074 307.526 65.3074Z" fill="#474E61"/>
<g filter="url(#filter8_d)">
<path d="M297.033 46.7563L296.697 46.1687C296.613 46.0848 296.613 46.0008 296.529 45.9169C295.102 43.5665 294.598 40.7124 295.27 38.0263C296.193 34.3328 295.69 30.3035 293.423 26.7779C289.31 20.3983 280.916 18.2997 274.284 21.8253C266.897 25.7706 264.547 35.0883 268.828 42.0555C270.843 45.4132 274.116 47.5958 277.642 48.4352C280.496 49.1907 283.014 50.8695 284.525 53.3039C284.525 53.3039 284.525 53.3878 284.609 53.3878L284.945 53.9754" fill="url(#paint28_linear)"/>
</g>
<g filter="url(#filter9_d)">
<path d="M296.949 46.6727L297.285 47.1764C298.796 49.6947 298.628 52.8006 296.949 55.067C297.369 56.2422 296.949 57.6692 295.858 58.3408C294.767 59.0123 293.256 58.7605 292.416 57.8371C289.646 58.3408 286.792 57.0816 285.197 54.5634L284.861 54.0597" fill="#989FB0"/>
</g>
<path d="M289.394 49.9464L274.452 39.0339L279.237 38.2784L281.084 34.417L285.365 34.501L288.219 30.5557L291.241 48.8552" stroke="#D6DDE8" stroke-width="2" stroke-miterlimit="10" stroke-linecap="round" stroke-linejoin="round"/>
<path fill-rule="evenodd" clip-rule="evenodd" d="M288.448 29.5823C288.841 29.6749 289.14 29.9945 289.205 30.3928L292.227 48.6923C292.317 49.2372 291.949 49.7519 291.404 49.8419C290.859 49.9319 290.344 49.5631 290.254 49.0182L287.623 33.0854L286.175 35.0871C285.983 35.3527 285.673 35.5073 285.345 35.5008L281.708 35.4295L280.139 38.7099C279.997 39.0068 279.718 39.2149 279.393 39.2662L276.986 39.6462L289.984 49.1389C290.43 49.4647 290.527 50.0903 290.202 50.5363C289.876 50.9823 289.25 51.0798 288.804 50.754L273.862 39.8415C273.536 39.6032 273.385 39.1918 273.48 38.799C273.575 38.4063 273.897 38.1092 274.296 38.0462L278.562 37.3727L280.182 33.9856C280.351 33.6318 280.711 33.4096 281.103 33.4173L284.861 33.491L287.409 29.9696C287.645 29.6426 288.055 29.4898 288.448 29.5823Z" fill="#989FB0"/>
<path fill-rule="evenodd" clip-rule="evenodd" d="M295.761 11.6783C296.266 11.9032 296.492 12.4944 296.267 12.9988L293.497 19.2106C293.272 19.715 292.681 19.9416 292.176 19.7166C291.672 19.4917 291.446 18.9004 291.67 18.396L294.441 12.1843C294.665 11.6799 295.257 11.4533 295.761 11.6783Z" fill="#667089"/>
<path fill-rule="evenodd" clip-rule="evenodd" d="M263.599 39.0168C263.701 39.5596 263.344 40.0823 262.801 40.1843L250.293 42.5347C249.75 42.6367 249.228 42.2793 249.126 41.7366C249.024 41.1938 249.381 40.6711 249.924 40.5691L262.431 38.2187C262.974 38.1167 263.497 38.474 263.599 39.0168Z" fill="#667089"/>
<path fill-rule="evenodd" clip-rule="evenodd" d="M267.101 48.4301C267.613 48.6352 267.863 49.2171 267.658 49.7299L264.636 57.2848C264.431 57.7976 263.849 58.047 263.336 57.8419C262.823 57.6368 262.574 57.0548 262.779 56.542L265.801 48.9872C266.006 48.4744 266.588 48.225 267.101 48.4301Z" fill="#667089"/>
<path fill-rule="evenodd" clip-rule="evenodd" d="M311.063 23.5701C311.258 24.0867 310.998 24.6639 310.481 24.8592L300.492 28.6366C299.976 28.832 299.398 28.5716 299.203 28.055C299.008 27.5384 299.268 26.9613 299.785 26.7659L309.774 22.9885C310.291 22.7932 310.868 23.0536 311.063 23.5701Z" fill="#667089"/>
<g filter="url(#filter10_d)">
<path d="M342.614 87.8881L329.603 99.8919L332.96 103.25C333.296 103.585 333.548 104.005 333.8 104.425C333.8 104.425 333.8 104.509 333.884 104.593C334.387 105.936 334.052 107.447 333.044 108.538L331.953 109.629L328.092 113.491L321.964 119.618L304.42 102.074L314.409 92.0852L315.5 90.994C316.927 89.5669 319.278 89.5669 320.789 90.994L324.146 94.3517L336.15 81.3406C337.913 79.4099 341.019 79.3259 342.866 81.1727C344.628 83.1033 344.545 86.1253 342.614 87.8881Z" fill="url(#paint29_linear)"/>
</g>
<path opacity="0.3" fill-rule="evenodd" clip-rule="evenodd" d="M315.118 91.2958L332.578 108.84L331.16 110.251L313.7 92.7066L315.118 91.2958Z" fill="#A4ADBF"/>
<path opacity="0.3" fill-rule="evenodd" clip-rule="evenodd" d="M331.414 98.2487L325.622 92.4567L327.036 91.0425L332.828 96.8345L331.414 98.2487Z" fill="#A4ADBF"/>
<path d="M340.928 84.9778C341.485 84.4205 341.485 83.517 340.928 82.9597C340.37 82.4024 339.467 82.4024 338.909 82.9597C338.352 83.517 338.352 84.4205 338.909 84.9778C339.467 85.5351 340.37 85.5351 340.928 84.9778Z" fill="#CFD5E3"/>
<path opacity="0.3" fill-rule="evenodd" clip-rule="evenodd" d="M314.277 101.271L309.156 106.391L307.742 104.977L312.863 99.8566L314.277 101.271Z" fill="#A4ADBF"/>
<path opacity="0.3" fill-rule="evenodd" clip-rule="evenodd" d="M317.97 104.88L312.766 110.084L311.352 108.67L316.556 103.466L317.97 104.88Z" fill="#A4ADBF"/>
<path d="M318.69 145.893C319.896 145.893 320.873 144.916 320.873 143.71C320.873 142.505 319.896 141.528 318.69 141.528C317.485 141.528 316.508 142.505 316.508 143.71C316.508 144.916 317.485 145.893 318.69 145.893Z" fill="#9DA6B6"/>
<path d="M333.8 104.593C333.8 104.509 333.8 104.509 333.716 104.425C333.464 104.005 332.877 104.509 331.869 106.02C331.45 106.691 330.61 107.027 329.603 107.279C329.015 107.447 328.26 107.615 327.588 107.699C326.917 107.447 326.161 107.531 325.658 107.951C325.406 108.118 325.154 108.286 324.986 108.454C323.895 109.21 322.636 109.713 320.621 109.294C318.69 108.874 316.508 111.56 316.508 113.743V134.476C316.508 137.331 320.873 137.414 320.873 134.393V121.717C320.873 119.031 325.238 118.443 325.238 122.221C325.238 125.075 329.603 125.159 329.603 122.053V112.735C329.603 112.4 329.603 112.148 329.603 111.896L331.869 109.629L332.961 108.538C333.968 107.447 334.304 105.852 333.8 104.593Z" fill="#9DA6B6"/>
<path d="M202.429 66.3149C201.338 67.3222 199.491 67.3222 198.4 66.3149C198.316 66.231 198.232 66.147 198.148 66.0631C197.896 65.7273 197.729 65.3076 197.561 64.9718C197.309 64.0485 197.561 63.0412 198.232 62.2017C198.82 61.5302 199.491 60.9426 200.079 60.2711C200.247 60.1032 200.499 60.1032 200.583 60.2711C201.338 60.9426 202.01 61.6141 202.597 62.2857C202.681 62.3696 202.681 62.3696 202.681 62.4536C202.849 62.7054 203.017 62.8733 203.101 63.1251C203.688 64.1324 203.437 65.4755 202.429 66.3149Z" fill="url(#paint30_linear)"/>
<path opacity="0.3" d="M200.667 65.4753C200.415 65.4753 200.247 65.4754 199.995 65.3914C199.575 65.2235 199.407 65.1396 199.24 64.8038C199.156 64.6359 199.072 64.468 198.988 64.3001C198.988 64.2162 198.988 64.2162 198.988 64.1323C198.904 63.8804 198.736 63.7126 198.484 63.7965C198.232 63.8804 198.064 64.0483 198.148 64.3001C198.148 64.3841 198.148 64.468 198.232 64.552C198.316 64.8878 198.484 65.2235 198.736 65.4753C198.82 65.5593 198.904 65.6432 198.988 65.7272C199.407 66.1469 200.079 66.3987 200.667 66.3987C200.751 66.3987 200.834 66.3987 200.918 66.3987C201.17 66.3987 201.338 66.1469 201.338 65.8951C201.086 65.6432 200.918 65.4753 200.667 65.4753Z" fill="#F1F3FA"/>
<g filter="url(#filter11_d)">
<path d="M217.035 41.8036L211.076 47.9314L204.444 54.7308C204.276 54.8987 204.024 55.0665 203.772 55.0665L201.002 55.822C200.331 55.9899 199.743 55.4023 199.995 54.8147L200.751 52.0446C200.834 51.7928 200.918 51.6249 201.086 51.3731L204.612 47.6796L213.678 38.3619" fill="#454C5E"/>
</g>
<path d="M211.076 48.0153L204.444 54.8147C204.276 54.9825 204.024 55.1504 203.772 55.1504L201.002 55.9059C200.331 56.0738 199.743 55.4862 199.995 54.8986L200.751 52.1285C200.834 51.8767 200.918 51.7088 201.086 51.4569L204.612 47.7635C204.864 47.6795 205.2 47.5956 205.451 47.5956L211.076 48.0153Z" fill="url(#paint31_linear)"/>
<g filter="url(#filter12_d)">
<path d="M218.126 42.8949L212.67 37.4386C212.083 36.851 212.083 36.0116 212.67 35.424C213.258 34.8364 214.097 34.8364 214.685 35.424L220.141 40.8803C220.729 41.4679 220.729 42.3073 220.141 42.8949C219.554 43.4825 218.714 43.4825 218.126 42.8949Z" fill="#A5AEBF"/>
</g>
<g filter="url(#filter13_d)">
<path d="M219.218 40.0408L215.44 36.2633L219.218 32.4859C220.309 31.3947 221.988 31.3947 222.995 32.4859C224.087 33.5772 224.087 35.256 222.995 36.2633L219.218 40.0408Z" fill="#A5AEBF"/>
</g>
<path d="M238.571 199.212C240.069 191.223 242.233 183.567 244.563 175.744C246.893 168.088 249.39 160.265 252.386 152.776L253.551 153.109C252.219 161.098 250.388 168.92 248.391 176.743C246.394 184.565 244.23 192.388 241.401 199.878L238.571 199.212Z" fill="url(#paint32_linear)"/>
<path d="M234.244 204.372L237.48 197.656H243.1L245.996 204.372H234.244Z" fill="url(#paint33_linear)"/>
<defs>
<filter id="filter0_d" x="356.71" y="75.293" width="62.814" height="65.9091" filterUnits="userSpaceOnUse" color-interpolation-filters="sRGB">
<feFlood flood-opacity="0" result="BackgroundImageFix"/>
<feColorMatrix in="SourceAlpha" type="matrix" values="0 0 0 0 0 0 0 0 0 0 0 0 0 0 0 0 0 0 127 0" result="hardAlpha"/>
<feOffset dy="11"/>
<feGaussianBlur stdDeviation="11"/>
<feColorMatrix type="matrix" values="0 0 0 0 0 0 0 0 0 0 0 0 0 0 0 0 0 0 0.27 0"/>
<feBlend mode="normal" in2="BackgroundImageFix" result="effect1_dropShadow"/>
<feBlend mode="normal" in="SourceGraphic" in2="effect1_dropShadow" result="shape"/>
</filter>
<filter id="filter1_d" x="19.1943" y="78.2599" width="81.3936" height="60.7291" filterUnits="userSpaceOnUse" color-interpolation-filters="sRGB">
<feFlood flood-opacity="0" result="BackgroundImageFix"/>
<feColorMatrix in="SourceAlpha" type="matrix" values="0 0 0 0 0 0 0 0 0 0 0 0 0 0 0 0 0 0 127 0" result="hardAlpha"/>
<feOffset dy="11"/>
<feGaussianBlur stdDeviation="11"/>
<feColorMatrix type="matrix" values="0 0 0 0 0 0 0 0 0 0 0 0 0 0 0 0 0 0 0.27 0"/>
<feBlend mode="normal" in2="BackgroundImageFix" result="effect1_dropShadow"/>
<feBlend mode="normal" in="SourceGraphic" in2="effect1_dropShadow" result="shape"/>
</filter>
<filter id="filter2_d" x="36.9883" y="152.856" width="91.3711" height="84.5444" filterUnits="userSpaceOnUse" color-interpolation-filters="sRGB">
<feFlood flood-opacity="0" result="BackgroundImageFix"/>
<feColorMatrix in="SourceAlpha" type="matrix" values="0 0 0 0 0 0 0 0 0 0 0 0 0 0 0 0 0 0 127 0" result="hardAlpha"/>
<feOffset dy="11"/>
<feGaussianBlur stdDeviation="11"/>
<feColorMatrix type="matrix" values="0 0 0 0 0 0 0 0 0 0 0 0 0 0 0 0 0 0 0.27 0"/>
<feBlend mode="normal" in2="BackgroundImageFix" result="effect1_dropShadow"/>
<feBlend mode="normal" in="SourceGraphic" in2="effect1_dropShadow" result="shape"/>
</filter>
<filter id="filter3_d" x="67.8203" y="155.5" width="82.2778" height="82.2778" filterUnits="userSpaceOnUse" color-interpolation-filters="sRGB">
<feFlood flood-opacity="0" result="BackgroundImageFix"/>
<feColorMatrix in="SourceAlpha" type="matrix" values="0 0 0 0 0 0 0 0 0 0 0 0 0 0 0 0 0 0 127 0" result="hardAlpha"/>
<feOffset dy="11"/>
<feGaussianBlur stdDeviation="11"/>
<feColorMatrix type="matrix" values="0 0 0 0 0 0 0 0 0 0 0 0 0 0 0 0 0 0 0.27 0"/>
<feBlend mode="normal" in2="BackgroundImageFix" result="effect1_dropShadow"/>
<feBlend mode="normal" in="SourceGraphic" in2="effect1_dropShadow" result="shape"/>
</filter>
<filter id="filter4_d" x="68.7339" y="163.381" width="84.6489" height="73.7361" filterUnits="userSpaceOnUse" color-interpolation-filters="sRGB">
<feFlood flood-opacity="0" result="BackgroundImageFix"/>
<feColorMatrix in="SourceAlpha" type="matrix" values="0 0 0 0 0 0 0 0 0 0 0 0 0 0 0 0 0 0 127 0" result="hardAlpha"/>
<feOffset dy="11"/>
<feGaussianBlur stdDeviation="11"/>
<feColorMatrix type="matrix" values="0 0 0 0 0 0 0 0 0 0 0 0 0 0 0 0 0 0 0.27 0"/>
<feBlend mode="normal" in2="BackgroundImageFix" result="effect1_dropShadow"/>
<feBlend mode="normal" in="SourceGraphic" in2="effect1_dropShadow" result="shape"/>
</filter>
<filter id="filter5_d" x="71.3877" y="174.597" width="81.6064" height="63.1389" filterUnits="userSpaceOnUse" color-interpolation-filters="sRGB">
<feFlood flood-opacity="0" result="BackgroundImageFix"/>
<feColorMatrix in="SourceAlpha" type="matrix" values="0 0 0 0 0 0 0 0 0 0 0 0 0 0 0 0 0 0 127 0" result="hardAlpha"/>
<feOffset dy="11"/>
<feGaussianBlur stdDeviation="11"/>
<feColorMatrix type="matrix" values="0 0 0 0 0 0 0 0 0 0 0 0 0 0 0 0 0 0 0.27 0"/>
<feBlend mode="normal" in2="BackgroundImageFix" result="effect1_dropShadow"/>
<feBlend mode="normal" in="SourceGraphic" in2="effect1_dropShadow" result="shape"/>
</filter>
<filter id="filter6_d" x="270.249" y="148.743" width="86.5591" height="88.8254" filterUnits="userSpaceOnUse" color-interpolation-filters="sRGB">
<feFlood flood-opacity="0" result="BackgroundImageFix"/>
<feColorMatrix in="SourceAlpha" type="matrix" values="0 0 0 0 0 0 0 0 0 0 0 0 0 0 0 0 0 0 127 0" result="hardAlpha"/>
<feOffset dy="11"/>
<feGaussianBlur stdDeviation="11"/>
<feColorMatrix type="matrix" values="0 0 0 0 0 0 0 0 0 0 0 0 0 0 0 0 0 0 0.27 0"/>
<feBlend mode="normal" in2="BackgroundImageFix" result="effect1_dropShadow"/>
<feBlend mode="normal" in="SourceGraphic" in2="effect1_dropShadow" result="shape"/>
</filter>
<filter id="filter7_d" x="135.101" y="75.4609" width="122.069" height="106.202" filterUnits="userSpaceOnUse" color-interpolation-filters="sRGB">
<feFlood flood-opacity="0" result="BackgroundImageFix"/>
<feColorMatrix in="SourceAlpha" type="matrix" values="0 0 0 0 0 0 0 0 0 0 0 0 0 0 0 0 0 0 127 0" result="hardAlpha"/>
<feOffset dy="11"/>
<feGaussianBlur stdDeviation="11"/>
<feColorMatrix type="matrix" values="0 0 0 0 0 0 0 0 0 0 0 0 0 0 0 0 0 0 0.27 0"/>
<feBlend mode="normal" in2="BackgroundImageFix" result="effect1_dropShadow"/>
<feBlend mode="normal" in="SourceGraphic" in2="effect1_dropShadow" result="shape"/>
</filter>
<filter id="filter8_d" x="244.698" y="9.1239" width="74.3345" height="77.8516" filterUnits="userSpaceOnUse" color-interpolation-filters="sRGB">
<feFlood flood-opacity="0" result="BackgroundImageFix"/>
<feColorMatrix in="SourceAlpha" type="matrix" values="0 0 0 0 0 0 0 0 0 0 0 0 0 0 0 0 0 0 127 0" result="hardAlpha"/>
<feOffset dy="11"/>
<feGaussianBlur stdDeviation="11"/>
<feColorMatrix type="matrix" values="0 0 0 0 0 0 0 0 0 0 0 0 0 0 0 0 0 0 0.27 0"/>
<feBlend mode="normal" in2="BackgroundImageFix" result="effect1_dropShadow"/>
<feBlend mode="normal" in="SourceGraphic" in2="effect1_dropShadow" result="shape"/>
</filter>
<filter id="filter9_d" x="262.861" y="35.6727" width="57.4595" height="56.0475" filterUnits="userSpaceOnUse" color-interpolation-filters="sRGB">
<feFlood flood-opacity="0" result="BackgroundImageFix"/>
<feColorMatrix in="SourceAlpha" type="matrix" values="0 0 0 0 0 0 0 0 0 0 0 0 0 0 0 0 0 0 127 0" result="hardAlpha"/>
<feOffset dy="11"/>
<feGaussianBlur stdDeviation="11"/>
<feColorMatrix type="matrix" values="0 0 0 0 0.397708 0 0 0 0 0.47749 0 0 0 0 0.575 0 0 0 0.27 0"/>
<feBlend mode="normal" in2="BackgroundImageFix" result="effect1_dropShadow"/>
<feBlend mode="normal" in="SourceGraphic" in2="effect1_dropShadow" result="shape"/>
</filter>
<filter id="filter10_d" x="282.42" y="68.8385" width="83.708" height="83.7799" filterUnits="userSpaceOnUse" color-interpolation-filters="sRGB">
<feFlood flood-opacity="0" result="BackgroundImageFix"/>
<feColorMatrix in="SourceAlpha" type="matrix" values="0 0 0 0 0 0 0 0 0 0 0 0 0 0 0 0 0 0 127 0" result="hardAlpha"/>
<feOffset dy="11"/>
<feGaussianBlur stdDeviation="11"/>
<feColorMatrix type="matrix" values="0 0 0 0 0 0 0 0 0 0 0 0 0 0 0 0 0 0 0.27 0"/>
<feBlend mode="normal" in2="BackgroundImageFix" result="effect1_dropShadow"/>
<feBlend mode="normal" in="SourceGraphic" in2="effect1_dropShadow" result="shape"/>
</filter>
<filter id="filter11_d" x="177.936" y="27.3619" width="61.1001" height="61.4893" filterUnits="userSpaceOnUse" color-interpolation-filters="sRGB">
<feFlood flood-opacity="0" result="BackgroundImageFix"/>
<feColorMatrix in="SourceAlpha" type="matrix" values="0 0 0 0 0 0 0 0 0 0 0 0 0 0 0 0 0 0 127 0" result="hardAlpha"/>
<feOffset dy="11"/>
<feGaussianBlur stdDeviation="11"/>
<feColorMatrix type="matrix" values="0 0 0 0 0.397708 0 0 0 0 0.47749 0 0 0 0 0.575 0 0 0 0.27 0"/>
<feBlend mode="normal" in2="BackgroundImageFix" result="effect1_dropShadow"/>
<feBlend mode="normal" in="SourceGraphic" in2="effect1_dropShadow" result="shape"/>
</filter>
<filter id="filter12_d" x="190.229" y="23.9833" width="52.3525" height="52.3523" filterUnits="userSpaceOnUse" color-interpolation-filters="sRGB">
<feFlood flood-opacity="0" result="BackgroundImageFix"/>
<feColorMatrix in="SourceAlpha" type="matrix" values="0 0 0 0 0 0 0 0 0 0 0 0 0 0 0 0 0 0 127 0" result="hardAlpha"/>
<feOffset dy="11"/>
<feGaussianBlur stdDeviation="11"/>
<feColorMatrix type="matrix" values="0 0 0 0 0.397708 0 0 0 0 0.47749 0 0 0 0 0.575 0 0 0 0.27 0"/>
<feBlend mode="normal" in2="BackgroundImageFix" result="effect1_dropShadow"/>
<feBlend mode="normal" in="SourceGraphic" in2="effect1_dropShadow" result="shape"/>
</filter>
<filter id="filter13_d" x="193.44" y="20.6675" width="52.3735" height="52.3733" filterUnits="userSpaceOnUse" color-interpolation-filters="sRGB">
<feFlood flood-opacity="0" result="BackgroundImageFix"/>
<feColorMatrix in="SourceAlpha" type="matrix" values="0 0 0 0 0 0 0 0 0 0 0 0 0 0 0 0 0 0 127 0" result="hardAlpha"/>
<feOffset dy="11"/>
<feGaussianBlur stdDeviation="11"/>
<feColorMatrix type="matrix" values="0 0 0 0 0.397708 0 0 0 0 0.47749 0 0 0 0 0.575 0 0 0 0.27 0"/>
<feBlend mode="normal" in2="BackgroundImageFix" result="effect1_dropShadow"/>
<feBlend mode="normal" in="SourceGraphic" in2="effect1_dropShadow" result="shape"/>
</filter>
<linearGradient id="paint0_linear" x1="205.24" y1="204.95" x2="205.24" y2="184.803" gradientUnits="userSpaceOnUse">
<stop stop-color="#474755"/>
<stop offset="0.9913" stop-color="#2F3338"/>
</linearGradient>
<linearGradient id="paint1_linear" x1="205.401" y1="182.23" x2="205.401" y2="100.308" gradientUnits="userSpaceOnUse">
<stop stop-color="#474E61"/>
<stop offset="0.9913" stop-color="#2F3338"/>
</linearGradient>
<linearGradient id="paint2_linear" x1="388.111" y1="85.7862" x2="388.111" y2="108.438" gradientUnits="userSpaceOnUse">
<stop stop-color="#68728B"/>
<stop offset="0.9964" stop-color="#646E87"/>
</linearGradient>
<linearGradient id="paint3_linear" x1="366.479" y1="86.3828" x2="369.668" y2="86.0669" gradientUnits="userSpaceOnUse">
<stop stop-color="#B0BACC"/>
<stop offset="1" stop-color="#969EAE"/>
</linearGradient>
<linearGradient id="paint4_linear" x1="396.479" y1="84.3828" x2="399.668" y2="84.0669" gradientUnits="userSpaceOnUse">
<stop stop-color="#B0BACC"/>
<stop offset="1" stop-color="#969EAE"/>
</linearGradient>
<linearGradient id="paint5_linear" x1="402.479" y1="114.383" x2="405.668" y2="114.067" gradientUnits="userSpaceOnUse">
<stop stop-color="#B0BACC"/>
<stop offset="1" stop-color="#969EAE"/>
</linearGradient>
<linearGradient id="paint6_linear" x1="413.479" y1="97.3828" x2="416.668" y2="97.0669" gradientUnits="userSpaceOnUse">
<stop stop-color="#B0BACC"/>
<stop offset="1" stop-color="#969EAE"/>
</linearGradient>
<linearGradient id="paint7_linear" x1="380.479" y1="71.3829" x2="383.668" y2="71.067" gradientUnits="userSpaceOnUse">
<stop stop-color="#B0BACC"/>
<stop offset="1" stop-color="#969EAE"/>
</linearGradient>
<linearGradient id="paint8_linear" x1="380.725" y1="101.662" x2="380.725" y2="109.198" gradientUnits="userSpaceOnUse">
<stop stop-color="#B0BACC"/>
<stop offset="1" stop-color="#969EAE"/>
</linearGradient>
<linearGradient id="paint9_linear" x1="59.8792" y1="88.8729" x2="59.8792" y2="106.169" gradientUnits="userSpaceOnUse">
<stop stop-color="#68728B"/>
<stop offset="0.9964" stop-color="#646E87"/>
</linearGradient>
<linearGradient id="paint10_linear" x1="114.554" y1="23.5258" x2="117.329" y2="25.1277" gradientUnits="userSpaceOnUse">
<stop stop-color="#B0BACC"/>
<stop offset="1" stop-color="#969EAE"/>
</linearGradient>
<linearGradient id="paint11_linear" x1="100.599" y1="51.5704" x2="103.374" y2="53.1724" gradientUnits="userSpaceOnUse">
<stop stop-color="#B0BACC"/>
<stop offset="1" stop-color="#969EAE"/>
</linearGradient>
<linearGradient id="paint12_linear" x1="143.599" y1="36.5704" x2="146.374" y2="38.1724" gradientUnits="userSpaceOnUse">
<stop stop-color="#B0BACC"/>
<stop offset="1" stop-color="#969EAE"/>
</linearGradient>
<linearGradient id="paint13_linear" x1="129.599" y1="65.5704" x2="132.374" y2="67.1724" gradientUnits="userSpaceOnUse">
<stop stop-color="#B0BACC"/>
<stop offset="1" stop-color="#969EAE"/>
</linearGradient>
<linearGradient id="paint14_linear" x1="108.266" y1="73.2519" x2="111.776" y2="75.2786" gradientUnits="userSpaceOnUse">
<stop stop-color="#B0BACC"/>
<stop offset="1" stop-color="#969EAE"/>
</linearGradient>
<linearGradient id="paint15_linear" x1="151.023" y1="57.2519" x2="154.533" y2="59.2786" gradientUnits="userSpaceOnUse">
<stop stop-color="#B0BACC"/>
<stop offset="1" stop-color="#969EAE"/>
</linearGradient>
<linearGradient id="paint16_linear" x1="136.023" y1="15.2521" x2="139.533" y2="17.2787" gradientUnits="userSpaceOnUse">
<stop stop-color="#B0BACC"/>
<stop offset="1" stop-color="#969EAE"/>
</linearGradient>
<linearGradient id="paint17_linear" x1="93.0228" y1="31.2522" x2="96.533" y2="33.2788" gradientUnits="userSpaceOnUse">
<stop stop-color="#B0BACC"/>
<stop offset="1" stop-color="#969EAE"/>
</linearGradient>
<linearGradient id="paint18_linear" x1="84.8263" y1="139.498" x2="84.8263" y2="158.251" gradientUnits="userSpaceOnUse">
<stop stop-color="#B0BACC"/>
<stop offset="1" stop-color="#969EAE"/>
</linearGradient>
<linearGradient id="paint19_linear" x1="71.2949" y1="142.423" x2="71.2949" y2="163.386" gradientUnits="userSpaceOnUse">
<stop stop-color="#B0BACC"/>
<stop offset="1" stop-color="#969EAE"/>
</linearGradient>
<linearGradient id="paint20_linear" x1="82.1458" y1="162.918" x2="82.1458" y2="204.838" gradientUnits="userSpaceOnUse">
<stop stop-color="#68728B"/>
<stop offset="0.9964" stop-color="#646E87"/>
</linearGradient>
<linearGradient id="paint21_linear" x1="108.947" y1="165.615" x2="108.947" y2="205.191" gradientUnits="userSpaceOnUse">
<stop stop-color="#68728B"/>
<stop offset="0.9964" stop-color="#646E87"/>
</linearGradient>
<linearGradient id="paint22_linear" x1="111.045" y1="173.693" x2="111.045" y2="204.437" gradientUnits="userSpaceOnUse">
<stop stop-color="#68728B"/>
<stop offset="0.9964" stop-color="#646E87"/>
</linearGradient>
<linearGradient id="paint23_linear" x1="112.179" y1="185.154" x2="112.179" y2="204.942" gradientUnits="userSpaceOnUse">
<stop stop-color="#68728B"/>
<stop offset="0.9964" stop-color="#646E87"/>
</linearGradient>
<linearGradient id="paint24_linear" x1="313.514" y1="158.706" x2="313.514" y2="205.052" gradientUnits="userSpaceOnUse">
<stop stop-color="#68728B"/>
<stop offset="0.9964" stop-color="#646E87"/>
</linearGradient>
<linearGradient id="paint25_linear" x1="196.11" y1="85.0222" x2="196.11" y2="149.333" gradientUnits="userSpaceOnUse">
<stop stop-color="#68728B"/>
<stop offset="0.9964" stop-color="#646E87"/>
</linearGradient>
<linearGradient id="paint26_linear" x1="159.964" y1="92.4316" x2="232.496" y2="90.6284" gradientUnits="userSpaceOnUse">
<stop stop-color="#363D4A"/>
<stop offset="1" stop-color="#464D5B" stop-opacity="0"/>
</linearGradient>
<linearGradient id="paint27_linear" x1="206.544" y1="125.295" x2="206.544" y2="132.928" gradientUnits="userSpaceOnUse">
<stop stop-color="#B0BACC"/>
<stop offset="1" stop-color="#969EAE"/>
</linearGradient>
<linearGradient id="paint28_linear" x1="281.856" y1="19.3409" x2="281.856" y2="54.3404" gradientUnits="userSpaceOnUse">
<stop stop-color="#68728B"/>
<stop offset="0.9964" stop-color="#646E87"/>
</linearGradient>
<linearGradient id="paint29_linear" x1="324.261" y1="78.9184" x2="324.261" y2="120.047" gradientUnits="userSpaceOnUse">
<stop stop-color="#68728B"/>
<stop offset="0.9964" stop-color="#646E87"/>
</linearGradient>
<linearGradient id="paint30_linear" x1="200.439" y1="60.3857" x2="200.439" y2="64.2728" gradientUnits="userSpaceOnUse">
<stop stop-color="#B0BACC"/>
<stop offset="1" stop-color="#969EAE"/>
</linearGradient>
<linearGradient id="paint31_linear" x1="205.506" y1="47.8853" x2="205.506" y2="52.5661" gradientUnits="userSpaceOnUse">
<stop stop-color="#B0BACC"/>
<stop offset="1" stop-color="#969EAE"/>
</linearGradient>
<linearGradient id="paint32_linear" x1="246.062" y1="154.412" x2="246.062" y2="180.85" gradientUnits="userSpaceOnUse">
<stop stop-color="#B0BACC"/>
<stop offset="1" stop-color="#969EAE"/>
</linearGradient>
<linearGradient id="paint33_linear" x1="240.121" y1="197.89" x2="240.121" y2="201.659" gradientUnits="userSpaceOnUse">
<stop stop-color="#B0BACC"/>
<stop offset="1" stop-color="#969EAE"/>
</linearGradient>
</defs>
</svg>
