<svg width="420" height="238" viewBox="0 0 420 238" fill="none" xmlns="http://www.w3.org/2000/svg">
<path d="M235.251 205.317C225.43 205.652 213.762 205.317 205.368 205.233C197.141 205.568 185.221 205.652 175.484 205.317C185.137 199.86 188.579 189.619 189.083 182.988H221.568C222.324 189.535 225.682 199.86 235.251 205.317Z" fill="#D5DDEA"/>
<g filter="url(#filter0_d)">
<path d="M266.646 96.702V180.813C266.646 182.911 264.967 184.59 263.12 184.59H148.202C146.188 184.59 144.677 182.911 144.677 180.813V96.702C144.677 94.6874 146.356 92.9246 148.202 92.9246H262.952C265.135 93.0924 266.646 94.7713 266.646 96.702Z" fill="white"/>
</g>
<path d="M267 96.7074V170H145V96.7074C145 94.7111 146.708 93 148.559 93H263.299C265.434 93 267 94.7111 267 96.7074Z" fill="#989FB0"/>
<path d="M262.857 98H149V166H263V98H262.857Z" fill="white"/>
<path d="M205.535 179.553C207.214 179.553 208.557 178.294 208.557 176.531C208.557 174.853 207.298 173.51 205.535 173.51C203.856 173.51 202.513 174.769 202.513 176.531C202.513 178.21 203.772 179.553 205.535 179.553Z" fill="#D6DDE8"/>
<path fill-rule="evenodd" clip-rule="evenodd" d="M22.4707 206.569C22.4707 205.464 23.3661 204.569 24.4707 204.569H408.089C409.194 204.569 410.089 205.464 410.089 206.569C410.089 207.673 409.194 208.569 408.089 208.569H24.4707C23.3661 208.569 22.4707 207.673 22.4707 206.569Z" fill="#D6DDE8"/>
<path d="M280.16 143.29C283.182 143.29 285.617 140.856 285.617 137.834C285.617 134.812 283.182 132.378 280.16 132.378C277.138 132.378 274.704 134.812 274.704 137.834C274.788 140.856 277.138 143.29 280.16 143.29Z" fill="#F1F3FA"/>
<g filter="url(#filter1_d)">
<path d="M387.104 108.202C387.356 107.95 387.524 107.782 387.608 107.698C387.608 107.698 388.195 107.195 388.195 107.111L388.615 106.775C388.951 106.607 389.539 106.02 390.546 105.768C392.225 105.264 393.232 105.768 393.82 105.684C393.904 105.684 394.071 105.6 394.071 105.6C394.239 105.516 394.407 105.432 394.407 105.432C394.911 105.012 394.743 105.012 397.429 87.5521L397.513 87.1324C397.597 86.6287 397.177 86.293 396.674 86.293H396.59H396.506L395.918 86.5448L389.371 89.3988L389.203 89.4828C377.283 94.6872 379.046 93.2602 379.801 96.6179C379.969 97.0376 380.221 98.5486 379.717 99.9756C379.549 100.563 379.214 101.067 378.71 101.906L387.104 108.202ZM385.425 101.906C384.334 101.067 384.082 99.472 384.922 98.2968C385.761 97.2055 387.356 96.9537 388.447 97.7931C389.539 98.6326 389.79 100.227 388.951 101.319C388.112 102.494 386.517 102.746 385.425 101.906Z" fill="#DBDFE9"/>
</g>
<path fill-rule="evenodd" clip-rule="evenodd" d="M397.115 86.6754C397.553 87.012 397.635 87.6398 397.298 88.0777L389.492 98.2348C389.155 98.6727 388.527 98.7548 388.089 98.4183C387.651 98.0817 387.569 97.4539 387.906 97.016L395.713 86.8589C396.049 86.421 396.677 86.3389 397.115 86.6754Z" fill="white"/>
<path d="M399.612 86.6289C406.075 92.337 409.685 101.487 406.915 111.308M371.239 83.7748C379.885 78.6543 389.454 79.6616 396.59 84.2785M397.597 82.8514L383.83 72.2747M414.553 95.8626L400.787 85.2858M416.316 95.4429C416.652 95.4429 416.988 95.5268 417.323 95.7786C418.079 96.3662 418.247 97.4575 417.659 98.213C417.072 98.9685 415.98 99.1364 415.225 98.5488C414.889 98.2969 414.721 97.9612 414.637 97.6254C414.469 97.1217 414.553 96.5341 414.889 96.1144C415.225 95.6108 415.813 95.3589 416.316 95.4429ZM382.235 69.2527C382.571 69.2527 382.907 69.3367 383.243 69.5885C383.998 70.1761 384.166 71.2674 383.578 72.0228C382.991 72.7783 381.9 72.9462 381.144 72.3586C380.808 72.1068 380.64 71.771 380.557 71.4352C380.389 70.9316 380.473 70.344 380.808 69.9243C381.144 69.4206 381.732 69.1688 382.235 69.2527ZM403.977 115.505L403.557 112.147L405.823 111.812L406.915 111.644L407.25 114.33L407.334 114.918L403.977 115.505ZM367.965 87.888L367.545 84.5303L369.812 84.1945L370.903 84.0266L371.239 86.7128L371.323 87.3004L367.965 87.888ZM397.093 86.6289L396.674 83.2712L398.94 82.9354L400.031 82.7675L400.367 85.4537L400.451 86.0413L397.093 86.6289Z" stroke="#D6DDE8" stroke-width="2" stroke-miterlimit="10" stroke-linecap="round" stroke-linejoin="round"/>
<path d="M366.099 84.5578L366.465 88.2478C366.519 88.7974 367.009 89.1988 367.559 89.1443L371.249 88.7788C371.798 88.7243 372.2 88.2346 372.145 87.685L371.78 83.995C371.725 83.4454 371.236 83.044 370.686 83.0985L366.996 83.464C366.446 83.5185 366.045 84.0082 366.099 84.5578Z" fill="url(#paint0_linear)"/>
<path d="M396.099 82.5578L396.465 86.2478C396.519 86.7974 397.009 87.1988 397.559 87.1443L401.249 86.7788C401.798 86.7243 402.2 86.2346 402.145 85.685L401.78 81.995C401.725 81.4454 401.236 81.044 400.686 81.0985L396.996 81.464C396.446 81.5185 396.045 82.0082 396.099 82.5578Z" fill="url(#paint1_linear)"/>
<path d="M402.099 112.558L402.465 116.248C402.519 116.797 403.009 117.199 403.559 117.144L407.249 116.779C407.798 116.724 408.2 116.235 408.145 115.685L407.78 111.995C407.725 111.445 407.236 111.044 406.686 111.098L402.996 111.464C402.446 111.518 402.045 112.008 402.099 112.558Z" fill="url(#paint2_linear)"/>
<path d="M416.404 99.9615C417.972 99.8061 419.118 98.4086 418.962 96.84C418.807 95.2715 417.409 94.1259 415.841 94.2813C414.272 94.4367 413.127 95.8342 413.282 97.4028C413.438 98.9713 414.835 100.117 416.404 99.9615Z" fill="url(#paint3_linear)"/>
<path d="M383.404 73.9615C384.972 73.8061 386.118 72.4086 385.962 70.84C385.807 69.2715 384.409 68.1259 382.841 68.2813C381.272 68.4367 380.127 69.8342 380.282 71.4028C380.438 72.9713 381.835 74.1169 383.404 73.9615Z" fill="url(#paint4_linear)"/>
<path d="M381.312 112.819L373.757 107.027C373.337 106.691 373.253 106.104 373.589 105.684L375.1 103.669L376.359 102.074L376.695 101.571C377.031 101.151 377.618 101.067 378.038 101.403L387.691 108.874C388.111 109.209 388.195 109.797 387.859 110.217L384.753 114.246C384.418 114.666 383.83 114.75 383.41 114.414L383.075 114.162L381.312 112.819Z" fill="url(#paint5_linear)"/>
<g filter="url(#filter2_d)">
<path d="M74.5839 105.936L48.058 99.3043C47.5543 99.2204 47.1346 98.8846 46.7988 98.5489L43.4411 95.1072L41.4265 93.0086C41.0068 92.5889 41.1747 91.8334 41.7623 91.6655L44.5324 90.8261L49.1492 89.3991C49.6529 89.2312 50.1566 89.2312 50.6602 89.3151L77.1861 95.9466C78.1934 96.1985 78.781 97.2058 78.5292 98.2131L76.9343 104.593C76.5985 105.516 75.5912 106.188 74.5839 105.936Z" fill="#DBDFE9"/>
</g>
<path d="M74.5843 105.936L70.3872 104.844L72.9055 94.8552L77.1026 95.9465C78.1099 96.1983 78.6975 97.2056 78.4457 98.2129L76.8508 104.593C76.599 105.516 75.5917 106.187 74.5843 105.936Z" fill="#9EA9BC"/>
<path d="M43.3576 95.107L41.343 93.0084C40.9233 92.5887 41.0912 91.8332 41.6788 91.6654L44.4489 90.8259L43.3576 95.107Z" fill="#9AA6BA"/>
<path d="M70.6389 94.2678L68.1206 104.341" stroke="#C1C9D6" stroke-width="2" stroke-miterlimit="10"/>
<path d="M50.157 89.1472L47.6387 99.1364" stroke="#C1C9D6" stroke-width="2" stroke-miterlimit="10"/>
<path d="M69.7995 97.4577L49.4014 92.3372" stroke="#C1C9D6" stroke-width="2" stroke-miterlimit="10"/>
<path d="M68.9605 100.899L48.4785 95.7788" stroke="#C1C9D6" stroke-width="2" stroke-miterlimit="10"/>
<path d="M145.525 38.0951L116.841 24.3323L103.078 53.0161L131.762 66.7789L145.525 38.0951Z" stroke="#D6DDE8" stroke-width="2" stroke-miterlimit="10"/>
<path d="M129.483 67.8257L112.778 73.7017L129.483 67.8257ZM151.14 60.1869L134.184 66.1468L151.14 60.1869ZM151.728 58.3401C151.98 58.0044 152.231 57.7525 152.651 57.6686C153.575 57.3328 154.666 57.8365 155.002 58.7598C155.337 59.6832 154.834 60.7745 153.91 61.1102C153.491 61.2781 153.155 61.2781 152.735 61.1102C152.231 60.9424 151.728 60.5226 151.56 59.935C151.308 59.4314 151.392 58.8438 151.728 58.3401ZM109.253 73.3659C109.505 73.0301 109.756 72.7783 110.176 72.6943C111.1 72.3586 112.191 72.8622 112.527 73.7856C112.862 74.709 112.359 75.8002 111.435 76.136C111.016 76.3039 110.68 76.3039 110.26 76.136C109.756 75.9681 109.253 75.5484 109.085 74.9608C108.833 74.3732 108.917 73.7856 109.253 73.3659ZM132.673 69.3366L129.483 67.8257L130.49 65.6431L130.994 64.6358L133.596 65.895L134.184 66.1468L132.673 69.3366Z" fill="#F1F3FA" stroke="#D6DDE8" stroke-width="2" stroke-miterlimit="10"/>
<path d="M137.037 16.4529C137.289 16.1171 137.541 15.8653 137.961 15.7814C138.884 15.4456 139.975 15.9493 140.311 16.8726C140.647 17.796 140.143 18.8873 139.22 19.223C138.8 19.3909 138.464 19.3909 138.045 19.223C137.541 19.0551 137.037 18.6354 136.869 18.0478C136.618 17.4602 136.702 16.8726 137.037 16.4529ZM94.4784 31.3947C94.7302 31.059 94.982 30.8071 95.4017 30.7232C96.3251 30.3874 97.4164 30.8911 97.7521 31.8144C98.0879 32.7378 97.5843 33.8291 96.6609 34.1648C96.2412 34.3327 95.9054 34.3327 95.4857 34.1648C94.982 33.997 94.4784 33.5772 94.3105 32.9896C94.0587 32.402 94.1426 31.8144 94.4784 31.3947ZM117.982 27.3655L114.793 25.8545L115.8 23.672L116.303 22.6647L118.906 23.9238L119.493 24.1756L117.982 27.3655ZM104.048 55.4863L100.858 53.9753L101.865 51.7928L102.369 50.7855L104.971 52.0446L105.559 52.2965L104.048 55.4863ZM148.202 37.3547L146.691 40.5445L144.508 39.5372L143.501 39.0335L144.76 36.4313L145.012 35.8437L148.202 37.3547Z" fill="#F1F3FA"/>
<path d="M114.793 25.8545L98.0879 31.7305M114.793 25.8545L117.982 27.3655L119.493 24.1756L118.906 23.9238L116.303 22.6647L115.8 23.672L114.793 25.8545ZM136.366 18.2997L119.409 24.2596M137.037 16.4529C137.289 16.1171 137.541 15.8653 137.961 15.7814C138.884 15.4456 139.975 15.9493 140.311 16.8726C140.647 17.796 140.143 18.8873 139.22 19.223C138.8 19.3909 138.464 19.3909 138.045 19.223C137.541 19.0551 137.037 18.6354 136.869 18.0478C136.618 17.4602 136.702 16.8726 137.037 16.4529ZM94.4784 31.3947C94.7302 31.059 94.982 30.8071 95.4017 30.7232C96.3251 30.3874 97.4164 30.8911 97.7521 31.8144C98.0879 32.7378 97.5843 33.8291 96.6609 34.1648C96.2412 34.3327 95.9054 34.3327 95.4857 34.1648C94.982 33.997 94.4784 33.5772 94.3105 32.9896C94.0587 32.402 94.1426 31.8144 94.4784 31.3947ZM104.048 55.4863L100.858 53.9753L101.865 51.7928L102.369 50.7855L104.971 52.0446L105.559 52.2965L104.048 55.4863ZM148.202 37.3547L146.691 40.5445L144.508 39.5372L143.501 39.0335L144.76 36.4313L145.012 35.8437L148.202 37.3547Z" stroke="#D6DDE8" stroke-width="2" stroke-miterlimit="10"/>
<path d="M115.309 21.8213L113.455 25.0327C113.179 25.5109 113.343 26.1225 113.821 26.3987L117.032 28.2527C117.511 28.5289 118.122 28.365 118.398 27.8867L120.252 24.6754C120.529 24.1971 120.365 23.5855 119.886 23.3094L116.675 21.4553C116.197 21.1792 115.585 21.3431 115.309 21.8213Z" fill="url(#paint6_linear)"/>
<path d="M101.354 49.866L99.5 53.0773C99.2239 53.5556 99.3877 54.1672 99.866 54.4434L103.077 56.2974C103.556 56.5736 104.167 56.4097 104.443 55.9314L106.297 52.7201C106.574 52.2418 106.41 51.6302 105.931 51.3541L102.72 49.5C102.242 49.2239 101.63 49.3877 101.354 49.866Z" fill="url(#paint7_linear)"/>
<path d="M144.354 34.866L142.5 38.0773C142.224 38.5556 142.388 39.1672 142.866 39.4434L146.077 41.2974C146.556 41.5736 147.167 41.4097 147.443 40.9314L149.297 37.7201C149.574 37.2418 149.41 36.6302 148.931 36.3541L145.72 34.5C145.242 34.2239 144.63 34.3877 144.354 34.866Z" fill="url(#paint8_linear)"/>
<path d="M130.354 63.866L128.5 67.0773C128.224 67.5556 128.388 68.1672 128.866 68.4434L132.077 70.2974C132.556 70.5736 133.167 70.4097 133.443 69.9314L135.297 66.7201C135.574 66.2418 135.41 65.6302 134.931 65.3541L131.72 63.5C131.242 63.2239 130.63 63.3877 130.354 63.866Z" fill="url(#paint9_linear)"/>
<path d="M109.37 78.0592C111.097 79.0563 113.305 78.4646 114.302 76.7376C115.299 75.0107 114.708 72.8025 112.981 71.8054C111.254 70.8084 109.046 71.4001 108.048 73.127C107.051 74.8539 107.643 77.0622 109.37 78.0592Z" fill="url(#paint10_linear)"/>
<path d="M152.127 62.0592C153.854 63.0563 156.062 62.4646 157.059 60.7376C158.056 59.0107 157.464 56.8025 155.738 55.8054C154.011 54.8084 151.802 55.4001 150.805 57.127C149.808 58.8539 150.4 61.0622 152.127 62.0592Z" fill="url(#paint11_linear)"/>
<path d="M137.127 20.0595C138.854 21.0565 141.062 20.4648 142.059 18.7379C143.056 17.011 142.464 14.8027 140.738 13.8057C139.011 12.8086 136.802 13.4003 135.805 15.1273C134.808 16.8542 135.4 19.0624 137.127 20.0595Z" fill="url(#paint12_linear)"/>
<path d="M94.1269 36.0595C95.8538 37.0565 98.0621 36.4648 99.0591 34.7379C100.056 33.011 99.4645 30.8027 97.7375 29.8057C96.0106 28.8086 93.8024 29.4003 92.8053 31.1273C91.8083 32.8542 92.4 35.0624 94.1269 36.0595Z" fill="url(#paint13_linear)"/>
<path d="M125.37 48.1832L115.884 51.5409C115.38 51.7088 114.877 51.457 114.709 50.9533L111.351 41.4678C111.183 40.9641 111.435 40.4604 111.939 40.2926L121.424 36.9349C121.928 36.767 122.432 37.0188 122.599 37.5225L125.957 47.008C126.125 47.5116 125.873 48.0153 125.37 48.1832Z" fill="#EDF0F8"/>
<path d="M131.329 49.946L125.789 53.4716C124.53 54.2271 122.935 53.8914 122.096 52.6322L118.57 47.092C117.814 45.8329 118.15 44.2379 119.409 43.3985L124.95 39.8729C126.209 39.1174 127.804 39.4532 128.643 40.7123L132.169 46.2526C132.924 47.5117 132.504 49.1906 131.329 49.946Z" fill="#DBDFE9"/>
<path d="M136.282 51.9606C134.855 54.8986 131.329 56.1577 128.391 54.7307C125.453 53.3037 124.194 49.7781 125.621 46.8401C127.048 43.9021 130.574 42.643 133.512 44.07C136.45 45.4131 137.709 48.9387 136.282 51.9606Z" fill="url(#paint14_linear)"/>
<path d="M90.3656 138.338H79.2852V171.747H90.3656V138.338Z" fill="url(#paint15_linear)"/>
<path d="M90.3654 144.129H85.8325" stroke="white" stroke-width="2" stroke-miterlimit="10" stroke-linecap="round" stroke-linejoin="round"/>
<path d="M90.3654 149.922H85.8325" stroke="white" stroke-width="2" stroke-miterlimit="10" stroke-linecap="round" stroke-linejoin="round"/>
<path d="M90.3654 155.798H85.8325" stroke="white" stroke-width="2" stroke-miterlimit="10" stroke-linecap="round" stroke-linejoin="round"/>
<path d="M90.3654 161.59H85.8325" stroke="white" stroke-width="2" stroke-miterlimit="10" stroke-linecap="round" stroke-linejoin="round"/>
<path d="M104.636 155.378L102.537 151.265L102.285 151.684L102.369 151.181L98.0883 152.776C98.0883 152.776 92.4641 161.506 87.9312 173.174C85.4129 179.805 88.6867 179.469 92.1284 177.958C93.6393 181.316 95.8218 183.834 98.4241 177.203C102.873 165.703 104.636 155.378 104.636 155.378Z" fill="#F1F3FA" stroke="#D6DDE8" stroke-width="2" stroke-miterlimit="10" stroke-linecap="round" stroke-linejoin="round"/>
<path d="M108.833 152.356C107.574 155.63 103.881 157.225 100.607 155.966C97.3333 154.706 95.7384 151.013 96.9976 147.739C98.0049 145.053 104.552 139.849 106.903 138.002C107.323 137.666 107.91 137.918 107.994 138.421C108.582 141.527 109.841 149.754 108.833 152.356Z" fill="url(#paint16_linear)"/>
<path d="M70.8909 177.203L61.8251 150.929C61.6572 150.425 61.6572 149.922 61.7412 149.418L62.8324 144.633L63.504 141.779C63.6719 141.192 64.3434 140.94 64.8471 141.276L67.1135 143.122L70.8909 146.228C71.3107 146.564 71.5625 146.984 71.7304 147.487L80.7962 173.761C81.132 174.769 80.6283 175.86 79.621 176.196L73.3253 178.378C72.234 178.714 71.2267 178.127 70.8909 177.203Z" fill="#DBDFE9"/>
<path d="M70.8909 177.203L69.4639 173.006L79.3691 169.564L80.7961 173.762C81.1319 174.769 80.6283 175.86 79.6209 176.196L73.3252 178.378C72.234 178.714 71.2267 178.127 70.8909 177.203Z" fill="#F1F3FA" stroke="#D6DDE8" stroke-width="2" stroke-miterlimit="10"/>
<path d="M62.748 144.549L63.4196 141.695C63.5875 141.108 64.259 140.856 64.7627 141.192L67.0291 143.038L62.748 144.549Z" fill="url(#paint17_linear)"/>
<path d="M78.5298 167.382L68.6245 170.74" stroke="#D6DDE8" stroke-width="2" stroke-miterlimit="10"/>
<path d="M71.5625 147.152L61.7412 150.509" stroke="#C1C9D6" stroke-width="2" stroke-miterlimit="10"/>
<path d="M73.9965 169.061L67.0293 148.83" stroke="#C1C9D6" stroke-width="2" stroke-miterlimit="10"/>
<path d="M64.0078 163.856H105.643C105.643 163.856 110.344 180.309 95.6542 191.305C95.6542 203.225 95.6542 204.401 95.6542 204.401H74.3327V195.503H64.7632V183.667L57.9639 181.988L63.9238 171.327C63.0844 167.969 63.2523 166.374 64.0078 163.856Z" fill="url(#paint18_linear)"/>
<path d="M72.4859 172.586C69.8837 172.586 67.7852 170.488 67.7852 167.802H69.3801C69.3801 169.564 70.8071 170.991 72.5699 170.991C74.3327 170.991 75.7597 169.564 75.7597 167.802H77.3546C77.2707 170.488 75.0882 172.586 72.4859 172.586Z" fill="white"/>
<g filter="url(#filter3_d)">
<path d="M127.469 180.645L103.965 204.149C103.125 204.988 101.782 204.988 100.943 204.149L90.4499 193.656C89.6105 192.816 89.6105 191.473 90.4499 190.634L113.954 167.13C114.793 166.29 116.136 166.29 116.976 167.13L127.469 177.623C128.308 178.378 128.308 179.805 127.469 180.645Z" fill="url(#paint19_linear)"/>
</g>
<path d="M127.469 180.645L120.334 187.78L106.819 174.265L113.954 167.13C114.793 166.29 116.136 166.29 116.976 167.13L127.469 177.623C128.308 178.378 128.308 179.805 127.469 180.645Z" fill="#A1A9BA"/>
<g filter="url(#filter4_d)">
<path d="M129.987 192.397L98.8446 203.981C97.7533 204.4 96.4942 203.813 96.0744 202.722L90.87 188.871C90.4503 187.78 91.0379 186.521 92.1291 186.101L123.272 174.517C124.363 174.097 125.622 174.685 126.042 175.776L131.246 189.626C131.666 190.802 131.079 191.977 129.987 192.397Z" fill="url(#paint20_linear)"/>
</g>
<path d="M129.987 192.397L120.586 195.922L113.954 178.042L123.356 174.517C124.447 174.097 125.706 174.685 126.126 175.776L131.33 189.626C131.666 190.802 131.078 191.977 129.987 192.397Z" fill="white"/>
<path d="M113.931 178.028L102.051 182.447L108.723 200.386L120.603 195.967L113.931 178.028Z" fill="#DBDFE9"/>
<g filter="url(#filter5_d)">
<path d="M128.812 204.736H95.5702C94.395 204.736 93.3877 203.729 93.3877 202.554V187.78C93.3877 186.604 94.3111 185.597 95.5702 185.597H128.812C129.987 185.597 130.994 186.521 130.994 187.78V202.554C130.91 203.729 129.987 204.736 128.812 204.736Z" fill="url(#paint21_linear)"/>
</g>
<path d="M128.811 204.736H118.738V185.597H128.811C129.987 185.597 130.994 186.521 130.994 187.78V202.554C130.91 203.729 129.987 204.736 128.811 204.736Z" fill="#A1A9BA"/>
<path d="M118.738 185.597H106.063V204.736H118.738V185.597Z" fill="#DBDFE9"/>
<path d="M99.5999 197.265C100.944 197.265 102.034 196.175 102.034 194.831C102.034 193.486 100.944 192.396 99.5999 192.396C98.2554 192.396 97.1655 193.486 97.1655 194.831C97.1655 196.175 98.2554 197.265 99.5999 197.265Z" fill="white" stroke="#D6DDE8" stroke-width="2" stroke-miterlimit="10"/>
<g filter="url(#filter6_d)">
<path d="M328.26 204.569H298.796C295.187 204.569 292.249 201.631 292.249 198.021V159.743H334.808V198.021C334.808 201.631 331.87 204.569 328.26 204.569Z" fill="#DBDFE9"/>
</g>
<path d="M329.099 159.743V173.09C329.099 174.265 328.092 175.273 326.917 175.273C325.741 175.273 324.734 174.265 324.734 173.09V164.528C324.734 163.353 323.727 162.345 322.552 162.345C321.376 162.345 320.369 163.353 320.369 164.528V169.313C320.369 170.488 319.362 171.495 318.186 171.495C317.011 171.495 316.004 170.488 316.004 169.313V168.725C316.004 167.55 314.997 166.543 313.821 166.543C312.646 166.543 311.639 167.55 311.639 168.725V181.568C311.639 182.743 310.632 183.751 309.456 183.751C308.281 183.751 307.274 182.743 307.274 181.568V159.743H329.099Z" fill="url(#paint22_linear)"/>
<path fill-rule="evenodd" clip-rule="evenodd" d="M286.887 166.123C286.887 165.294 287.558 164.623 288.387 164.623H292.248C293.077 164.623 293.748 165.294 293.748 166.123C293.748 166.951 293.077 167.623 292.248 167.623H289.934C290.709 179.948 300.967 189.722 313.486 189.722C326.004 189.722 336.262 179.948 337.037 167.623H334.891C334.063 167.623 333.391 166.951 333.391 166.123C333.391 165.294 334.063 164.623 334.891 164.623H338.584C339.413 164.623 340.084 165.294 340.084 166.123C340.084 180.802 328.165 192.722 313.486 192.722C298.807 192.722 286.887 180.802 286.887 166.123Z" fill="#C7CEDD"/>
<path d="M336.486 160.834H290.905C290.317 160.834 289.813 160.331 289.813 159.743C289.813 159.156 290.317 158.652 290.905 158.652H336.486C337.073 158.652 337.577 159.156 337.577 159.743C337.577 160.331 337.073 160.834 336.486 160.834Z" fill="#D6DCE8" stroke="#AAB2C5" stroke-width="2" stroke-miterlimit="10" stroke-linejoin="round"/>
<g filter="url(#filter7_d)">
<path d="M229.627 148.663H162.641C159.535 148.663 157.101 146.144 157.101 143.122V92.0012C157.101 88.8953 159.619 86.4609 162.641 86.4609H229.627C232.733 86.4609 235.167 88.9792 235.167 92.0012V143.122C235.251 146.144 232.733 148.663 229.627 148.663Z" fill="url(#paint23_linear)"/>
</g>
<path d="M235 94H157V89.0533C157 87.374 158.072 86 159.382 86H232.618C233.928 86 235 87.374 235 89.0533V94Z" fill="url(#paint24_linear)"/>
<path d="M161 91C161.556 91 162 90.6111 162 90C162 89.4444 161.611 89 161 89C160.444 89 160 89.3889 160 90C160 90.5556 160.444 91 161 91Z" fill="white"/>
<path d="M164 91C164.556 91 165 90.6111 165 90C165 89.4444 164.611 89 164 89C163.444 89 163 89.3889 163 90C163 90.5556 163.389 91 164 91Z" fill="white"/>
<path d="M167 91C167.556 91 168 90.6111 168 90C168 89.4444 167.611 89 167 89C166.444 89 166 89.3889 166 90C166 90.5556 166.444 91 167 91Z" fill="white"/>
<path d="M207.717 108.454H183.458V133.217H207.717V108.454Z" stroke="#D6DDE8" stroke-width="2" stroke-miterlimit="10" stroke-linecap="round" stroke-linejoin="round"/>
<path d="M185.312 105.6H181.604C181.052 105.6 180.604 106.048 180.604 106.6V110.308C180.604 110.86 181.052 111.308 181.604 111.308H185.312C185.864 111.308 186.312 110.86 186.312 110.308V106.6C186.312 106.048 185.864 105.6 185.312 105.6Z" fill="url(#paint25_linear)"/>
<path d="M209.571 105.6H205.863C205.311 105.6 204.863 106.048 204.863 106.6V110.308C204.863 110.86 205.311 111.308 205.863 111.308H209.571C210.124 111.308 210.571 110.86 210.571 110.308V106.6C210.571 106.048 210.124 105.6 209.571 105.6Z" fill="url(#paint26_linear)"/>
<path d="M185.312 130.279H181.604C181.052 130.279 180.604 130.727 180.604 131.279V134.987C180.604 135.539 181.052 135.987 181.604 135.987H185.312C185.864 135.987 186.312 135.539 186.312 134.987V131.279C186.312 130.727 185.864 130.279 185.312 130.279Z" fill="url(#paint27_linear)"/>
<path d="M200.29 126.716C200.03 125.935 200.772 125.191 201.553 125.45L211.071 128.604C211.914 128.883 212.002 130.04 211.212 130.443L210.608 130.752C210.007 131.058 209.876 131.86 210.348 132.342L212.733 134.776C213.117 135.168 213.114 135.796 212.726 136.183L211.195 137.714C210.804 138.105 210.171 138.105 209.781 137.714L207.451 135.385C206.99 134.924 206.218 135.02 205.885 135.58L205.309 136.546C204.871 137.281 203.772 137.162 203.502 136.35L200.29 126.716Z" fill="url(#paint28_linear)"/>
<path d="M154.918 23.9237H154.246C153.155 23.9237 152.315 23.0843 152.315 21.9931V21.3215C152.315 20.4821 151.644 19.8105 150.804 19.8105C149.965 19.8105 149.293 20.4821 149.293 21.3215V21.9931C149.293 23.0843 148.454 23.9237 147.363 23.9237H146.691C145.852 23.9237 145.18 24.5953 145.18 25.4347C145.18 26.2741 145.852 26.9457 146.691 26.9457H147.363C148.454 26.9457 149.293 27.7851 149.293 28.8764V29.5479C149.293 30.3873 149.965 31.0589 150.804 31.0589C151.644 31.0589 152.315 30.3873 152.315 29.5479V28.8764C152.315 27.7851 153.155 26.9457 154.246 26.9457H154.918C155.757 26.9457 156.429 26.2741 156.429 25.4347C156.429 24.5953 155.757 23.9237 154.918 23.9237Z" fill="#D6DDE8"/>
<path d="M100.271 87.9719H99.6833C98.8438 87.9719 98.0884 87.3004 98.0884 86.377V85.7894C98.0884 85.1179 97.5008 84.5303 96.8292 84.5303C96.1577 84.5303 95.5701 85.1179 95.5701 85.7894V86.377C95.5701 87.2164 94.8985 87.9719 93.9752 87.9719H93.3876C92.716 87.9719 92.1284 88.5595 92.1284 89.2311C92.1284 89.9026 92.716 90.4902 93.3876 90.4902H93.9752C94.8146 90.4902 95.5701 91.1618 95.5701 92.0851V92.6727C95.5701 93.3443 96.1577 93.9319 96.8292 93.9319C97.5008 93.9319 98.0884 93.3443 98.0884 92.6727V92.0851C98.0884 91.2457 98.7599 90.4902 99.6833 90.4902H100.271C100.942 90.4902 101.53 89.9026 101.53 89.2311C101.53 88.5595 101.026 87.9719 100.271 87.9719Z" fill="#D6DDE8"/>
<path d="M211.076 3.35771H210.488C209.649 3.35771 208.893 2.68617 208.893 1.7628V1.25914C208.893 0.587599 208.305 0 207.634 0C206.962 0 206.375 0.587599 206.375 1.25914V1.84674C206.375 2.68617 205.703 3.44165 204.78 3.44165H204.192C203.521 3.44165 202.933 4.02925 202.933 4.7008C202.933 5.37234 203.521 5.95994 204.192 5.95994H204.78C205.619 5.95994 206.375 6.63148 206.375 7.55485V8.14245C206.375 8.81399 206.962 9.40159 207.634 9.40159C208.305 9.40159 208.893 8.81399 208.893 8.14245V7.38696C208.893 6.54754 209.565 5.79205 210.488 5.79205H211.076C211.747 5.79205 212.335 5.20445 212.335 4.53291C212.335 3.94531 211.747 3.35771 211.076 3.35771Z" fill="#D6DDE8"/>
<path d="M375.603 33.745H374.932C373.84 33.745 373.001 32.9056 373.001 31.8143V31.1428C373.001 30.3034 372.329 29.6318 371.49 29.6318C370.65 29.6318 369.979 30.3034 369.979 31.1428V31.8143C369.979 32.9056 369.139 33.745 368.048 33.745H367.377C366.537 33.745 365.866 34.4166 365.866 35.256C365.866 36.0954 366.537 36.767 367.377 36.767H368.048C369.139 36.767 369.979 37.6064 369.979 38.6977V39.3692C369.979 40.2086 370.65 40.8802 371.49 40.8802C372.329 40.8802 373.001 40.2086 373.001 39.3692V38.6977C373.001 37.6064 373.84 36.767 374.932 36.767H375.603C376.443 36.767 377.114 36.0954 377.114 35.256C377.114 34.4166 376.443 33.745 375.603 33.745Z" fill="#D6DDE8"/>
<path d="M359.99 131.622H359.318C358.227 131.622 357.388 130.783 357.388 129.692V129.02C357.388 128.181 356.716 127.509 355.877 127.509C355.037 127.509 354.366 128.181 354.366 129.02V129.692C354.366 130.783 353.526 131.622 352.435 131.622H351.763C350.924 131.622 350.252 132.294 350.252 133.133C350.252 133.973 350.924 134.644 351.763 134.644H352.435C353.526 134.644 354.366 135.484 354.366 136.575V137.246C354.366 138.086 355.037 138.757 355.877 138.757C356.716 138.757 357.388 138.086 357.388 137.246V136.575C357.388 135.484 358.227 134.644 359.318 134.644H359.99C360.829 134.644 361.501 133.973 361.501 133.133C361.501 132.294 360.829 131.622 359.99 131.622Z" fill="#D6DDE8"/>
<path d="M402.465 159.911H402.045C401.374 159.911 400.87 159.407 400.87 158.736V158.316C400.87 157.813 400.45 157.393 399.947 157.393C399.443 157.393 399.023 157.813 399.023 158.316V158.736C399.023 159.407 398.52 159.911 397.848 159.911H397.428C396.925 159.911 396.505 160.331 396.505 160.834C396.505 161.338 396.925 161.758 397.428 161.758H397.848C398.52 161.758 399.023 162.262 399.023 162.933V163.353C399.023 163.856 399.443 164.276 399.947 164.276C400.45 164.276 400.87 163.856 400.87 163.353V162.933C400.87 162.262 401.374 161.758 402.045 161.758H402.465C402.968 161.758 403.388 161.338 403.388 160.834C403.388 160.331 402.968 159.911 402.465 159.911Z" fill="#D6DDE8"/>
<path d="M363.18 180.729H362.844C362.34 180.729 361.921 180.309 361.921 179.805V179.47C361.921 179.05 361.585 178.714 361.165 178.714C360.745 178.714 360.41 179.05 360.41 179.47V179.805C360.41 180.309 359.99 180.729 359.486 180.729H359.15C358.731 180.729 358.395 181.065 358.395 181.484C358.395 181.904 358.731 182.24 359.15 182.24H359.486C359.99 182.24 360.41 182.659 360.41 183.163V183.499C360.41 183.919 360.745 184.254 361.165 184.254C361.585 184.254 361.921 183.919 361.921 183.499V183.163C361.921 182.659 362.34 182.24 362.844 182.24H363.18C363.599 182.24 363.935 181.904 363.935 181.484C363.851 181.065 363.516 180.729 363.18 180.729Z" fill="#D6DDE8"/>
<path d="M286.54 110.553H286.204C285.701 110.553 285.281 110.133 285.281 109.629V109.294C285.281 108.874 284.945 108.538 284.525 108.538C284.106 108.538 283.77 108.874 283.77 109.294V109.629C283.77 110.133 283.35 110.553 282.847 110.553H282.511C282.091 110.553 281.755 110.888 281.755 111.308C281.755 111.728 282.091 112.064 282.511 112.064H282.847C283.35 112.064 283.77 112.483 283.77 112.987V113.323C283.77 113.743 284.106 114.078 284.525 114.078C284.945 114.078 285.281 113.743 285.281 113.323V112.987C285.281 112.483 285.701 112.064 286.204 112.064H286.54C286.96 112.064 287.296 111.728 287.296 111.308C287.296 110.888 286.96 110.553 286.54 110.553Z" fill="#D6DDE8"/>
<path d="M28.9197 139.933H28.5C27.8284 139.933 27.2408 139.345 27.2408 138.673V138.254C27.2408 137.666 26.8211 137.246 26.2335 137.246C25.6459 137.246 25.2262 137.666 25.2262 138.254V138.673C25.2262 139.345 24.6386 139.933 23.9671 139.933H23.5474C22.9598 139.933 22.54 140.352 22.54 140.94C22.54 141.527 22.9598 141.947 23.5474 141.947H23.9671C24.6386 141.947 25.2262 142.535 25.2262 143.206V143.626C25.2262 144.214 25.6459 144.633 26.2335 144.633C26.8211 144.633 27.2408 144.214 27.2408 143.626V143.206C27.2408 142.535 27.8284 141.947 28.5 141.947H28.9197C29.5073 141.947 29.927 141.527 29.927 140.94C29.927 140.352 29.5073 139.933 28.9197 139.933Z" fill="#D6DDE8"/>
<path d="M6.00332 83.7748H5.66755C5.07995 83.7748 4.66024 83.3551 4.66024 82.7675V82.4317C4.66024 82.012 4.32447 81.5923 3.82081 81.5923C3.4011 81.5923 2.98138 81.9281 2.98138 82.4317V82.7675C2.98138 83.3551 2.56167 83.7748 1.97407 83.7748H1.72224C1.30253 83.7748 0.882812 84.1106 0.882812 84.6142C0.882812 85.0339 1.21858 85.4537 1.72224 85.4537H2.05801C2.64561 85.4537 3.06532 85.8734 3.06532 86.461V86.7967C3.06532 87.2165 3.4011 87.6362 3.90475 87.6362C4.32447 87.6362 4.74418 87.3004 4.74418 86.7967V86.461C4.74418 85.8734 5.16389 85.4537 5.75149 85.4537H6.08726C6.50698 85.4537 6.92669 85.1179 6.92669 84.6142C6.84275 84.1945 6.50698 83.7748 6.00332 83.7748Z" fill="#D6DDE8"/>
<path d="M52.3397 48.6029H52.0039C51.4163 48.6029 50.9966 48.1832 50.9966 47.5956V47.2598C50.9966 46.8401 50.6609 46.4204 50.1572 46.4204C49.7375 46.4204 49.3178 46.7562 49.3178 47.2598V47.5956C49.3178 48.1832 48.8981 48.6029 48.3105 48.6029H47.9747C47.555 48.6029 47.1353 48.9387 47.1353 49.4424C47.1353 49.8621 47.471 50.2818 47.9747 50.2818H48.3105C48.8981 50.2818 49.3178 50.7015 49.3178 51.2891V51.6249C49.3178 52.0446 49.6535 52.4643 50.1572 52.4643C50.5769 52.4643 50.9966 52.1285 50.9966 51.6249V51.2051C50.9966 50.6175 51.4163 50.1978 52.0039 50.1978H52.3397C52.7594 50.1978 53.1791 49.8621 53.1791 49.3584C53.1791 48.9387 52.7594 48.6029 52.3397 48.6029Z" fill="#D6DDE8"/>
<path d="M233.404 27.7849C230.802 27.7849 228.703 25.6863 228.703 23.0841C228.703 20.4819 230.802 18.3833 233.404 18.3833C236.006 18.3833 238.105 20.4819 238.105 23.0841C238.105 25.6863 236.006 27.7849 233.404 27.7849ZM233.404 20.9855C232.229 20.9855 231.221 21.9089 231.221 23.168C231.221 24.4272 232.145 25.3506 233.404 25.3506C234.579 25.3506 235.586 24.4272 235.586 23.168C235.586 21.9089 234.579 20.9855 233.404 20.9855Z" fill="#D6DDE8"/>
<path d="M94.5631 125.242C91.9609 125.242 89.8623 123.144 89.8623 120.542C89.8623 117.939 91.9609 115.841 94.5631 115.841C97.1653 115.841 99.2639 117.939 99.2639 120.542C99.2639 123.144 97.0814 125.242 94.5631 125.242ZM94.5631 118.359C93.3879 118.359 92.3806 119.282 92.3806 120.542C92.3806 121.801 93.304 122.724 94.5631 122.724C95.8222 122.724 96.7456 121.801 96.7456 120.542C96.7456 119.282 95.7383 118.359 94.5631 118.359Z" fill="#D6DDE8"/>
<path d="M307.526 70.344C305.679 70.344 304.084 68.833 304.084 66.9023C304.084 64.9717 305.595 63.4607 307.526 63.4607C309.372 63.4607 310.967 64.9717 310.967 66.9023C310.967 68.833 309.456 70.344 307.526 70.344ZM307.526 65.3074C306.686 65.3074 305.931 65.979 305.931 66.9023C305.931 67.7418 306.602 68.4973 307.526 68.4973C308.365 68.4973 309.121 67.8257 309.121 66.9023C309.121 66.0629 308.449 65.3074 307.526 65.3074Z" fill="#D6DDE8"/>
<g filter="url(#filter8_d)">
<path d="M297.033 46.7562L296.697 46.1686C296.613 46.0847 296.613 46.0007 296.529 45.9168C295.102 43.5664 294.598 40.7123 295.27 38.0262C296.193 34.3327 295.69 30.3034 293.423 26.7778C289.31 20.3982 280.916 18.2996 274.284 21.8252C266.897 25.7705 264.547 35.0882 268.828 42.0554C270.843 45.4131 274.116 47.5956 277.642 48.4351C280.496 49.1905 283.014 50.8694 284.525 53.3037C284.525 53.3037 284.525 53.3877 284.609 53.3877L284.945 53.9753" fill="#DBDFE9"/>
</g>
<g filter="url(#filter9_d)">
<path d="M296.949 46.6726L297.285 47.1763C298.796 49.6945 298.628 52.8004 296.949 55.0669C297.369 56.2421 296.949 57.6691 295.858 58.3407C294.767 59.0122 293.256 58.7604 292.416 57.837C289.646 58.3407 286.792 57.0815 285.197 54.5632L284.861 54.0596" fill="#989FB0"/>
</g>
<path d="M289.394 49.9464L274.452 39.0339L279.237 38.2784L281.084 34.417L285.365 34.501L288.219 30.5557L291.241 48.8552" stroke="#D6DDE8" stroke-width="2" stroke-miterlimit="10" stroke-linecap="round" stroke-linejoin="round"/>
<path fill-rule="evenodd" clip-rule="evenodd" d="M288.448 29.5821C288.841 29.6746 289.14 29.9943 289.205 30.3925L292.227 48.6921C292.317 49.237 291.949 49.7516 291.404 49.8416C290.859 49.9316 290.344 49.5628 290.254 49.0179L287.623 33.0852L286.175 35.0869C285.983 35.3524 285.673 35.507 285.345 35.5006L281.708 35.4293L280.139 38.7097C279.997 39.0066 279.718 39.2146 279.393 39.266L276.986 39.646L289.984 49.1387C290.43 49.4644 290.527 50.09 290.202 50.536C289.876 50.982 289.25 51.0795 288.804 50.7538L273.862 39.8412C273.536 39.6029 273.385 39.1916 273.48 38.7988C273.575 38.406 273.897 38.1089 274.296 38.0459L278.562 37.3724L280.182 33.9854C280.351 33.6316 280.711 33.4093 281.103 33.417L284.861 33.4907L287.409 29.9693C287.645 29.6423 288.055 29.4896 288.448 29.5821Z" fill="#989FB0"/>
<path fill-rule="evenodd" clip-rule="evenodd" d="M295.761 11.6783C296.266 11.9032 296.492 12.4944 296.267 12.9988L293.497 19.2106C293.272 19.715 292.681 19.9416 292.176 19.7166C291.672 19.4917 291.446 18.9004 291.67 18.396L294.441 12.1843C294.665 11.6799 295.257 11.4533 295.761 11.6783Z" fill="#989FB0"/>
<path fill-rule="evenodd" clip-rule="evenodd" d="M263.599 39.0167C263.701 39.5594 263.344 40.0821 262.801 40.1841L250.293 42.5345C249.75 42.6365 249.228 42.2792 249.126 41.7364C249.024 41.1937 249.381 40.671 249.924 40.569L262.431 38.2186C262.974 38.1166 263.497 38.4739 263.599 39.0167Z" fill="#989FB0"/>
<path fill-rule="evenodd" clip-rule="evenodd" d="M267.101 48.4302C267.613 48.6353 267.863 49.2173 267.658 49.7301L264.636 57.2849C264.431 57.7977 263.849 58.0471 263.336 57.842C262.823 57.6369 262.574 57.0549 262.779 56.5421L265.801 48.9873C266.006 48.4745 266.588 48.2251 267.101 48.4302Z" fill="#989FB0"/>
<path fill-rule="evenodd" clip-rule="evenodd" d="M311.063 23.5701C311.258 24.0867 310.998 24.6639 310.481 24.8592L300.492 28.6366C299.976 28.832 299.398 28.5716 299.203 28.055C299.008 27.5384 299.268 26.9613 299.785 26.7659L309.774 22.9885C310.291 22.7932 310.868 23.0536 311.063 23.5701Z" fill="#989FB0"/>
<path d="M342.614 87.888L329.603 99.8918L332.96 103.249C333.296 103.585 333.548 104.005 333.8 104.425C333.8 104.425 333.8 104.509 333.884 104.593C334.387 105.936 334.052 107.447 333.044 108.538L331.953 109.629L328.092 113.491L321.964 119.618L304.42 102.074L314.409 92.0851L315.5 90.9939C316.927 89.5668 319.278 89.5668 320.789 90.9939L324.146 94.3516L336.15 81.3404C337.913 79.4097 341.019 79.3258 342.866 81.1725C344.628 83.1032 344.545 86.1252 342.614 87.888Z" fill="#DBDFE9"/>
<path opacity="0.3" fill-rule="evenodd" clip-rule="evenodd" d="M315.118 91.2957L332.578 108.84L331.16 110.251L313.7 92.7065L315.118 91.2957Z" fill="#A4ADBF"/>
<path opacity="0.3" fill-rule="evenodd" clip-rule="evenodd" d="M331.414 98.2485L325.622 92.4564L327.036 91.0422L332.828 96.8343L331.414 98.2485Z" fill="#A4ADBF"/>
<path d="M340.928 84.9778C341.485 84.4205 341.485 83.517 340.928 82.9597C340.37 82.4024 339.467 82.4024 338.909 82.9597C338.352 83.517 338.352 84.4205 338.909 84.9778C339.467 85.5351 340.37 85.5351 340.928 84.9778Z" fill="#CFD5E3"/>
<path opacity="0.3" fill-rule="evenodd" clip-rule="evenodd" d="M314.277 101.271L309.156 106.391L307.742 104.977L312.863 99.8564L314.277 101.271Z" fill="#A4ADBF"/>
<path opacity="0.3" fill-rule="evenodd" clip-rule="evenodd" d="M317.97 104.88L312.766 110.084L311.352 108.67L316.556 103.466L317.97 104.88Z" fill="#A4ADBF"/>
<path d="M318.69 145.893C319.896 145.893 320.873 144.915 320.873 143.71C320.873 142.505 319.896 141.528 318.69 141.528C317.485 141.528 316.508 142.505 316.508 143.71C316.508 144.915 317.485 145.893 318.69 145.893Z" fill="url(#paint29_linear)"/>
<path d="M333.8 104.593C333.8 104.509 333.8 104.509 333.716 104.425C333.464 104.005 332.877 104.509 331.869 106.02C331.45 106.691 330.61 107.027 329.603 107.279C329.015 107.447 328.26 107.615 327.588 107.699C326.917 107.447 326.161 107.531 325.658 107.95C325.406 108.118 325.154 108.286 324.986 108.454C323.895 109.21 322.636 109.713 320.621 109.294C318.69 108.874 316.508 111.56 316.508 113.742V134.476C316.508 137.33 320.873 137.414 320.873 134.392V121.717C320.873 119.031 325.238 118.443 325.238 122.221C325.238 125.075 329.603 125.159 329.603 122.053V112.735C329.603 112.399 329.603 112.148 329.603 111.896L331.869 109.629L332.961 108.538C333.968 107.447 334.304 105.852 333.8 104.593Z" fill="url(#paint30_linear)"/>
<path d="M202.429 66.3151C201.338 67.3224 199.491 67.3224 198.4 66.3151C198.316 66.2311 198.232 66.1472 198.148 66.0632C197.896 65.7275 197.729 65.3077 197.561 64.972C197.309 64.0486 197.561 63.0413 198.232 62.2019C198.82 61.5303 199.491 60.9427 200.079 60.2712C200.247 60.1033 200.499 60.1033 200.583 60.2712C201.338 60.9427 202.01 61.6143 202.597 62.2858C202.681 62.3697 202.681 62.3697 202.681 62.4537C202.849 62.7055 203.017 62.8734 203.101 63.1252C203.688 64.1325 203.437 65.4756 202.429 66.3151Z" fill="url(#paint31_linear)"/>
<path opacity="0.3" d="M200.667 65.4756C200.415 65.4756 200.247 65.4756 199.995 65.3917C199.575 65.2238 199.407 65.1398 199.24 64.804C199.156 64.6362 199.072 64.4683 198.988 64.3004C198.988 64.2165 198.988 64.2165 198.988 64.1325C198.904 63.8807 198.736 63.7128 198.484 63.7967C198.232 63.8807 198.064 64.0486 198.148 64.3004C198.148 64.3843 198.148 64.4683 198.232 64.5522C198.316 64.888 198.484 65.2238 198.736 65.4756C198.82 65.5595 198.904 65.6435 198.988 65.7274C199.407 66.1471 200.079 66.399 200.667 66.399C200.751 66.399 200.834 66.399 200.918 66.399C201.17 66.399 201.338 66.1471 201.338 65.8953C201.086 65.6435 200.918 65.4756 200.667 65.4756Z" fill="#F1F3FA"/>
<g filter="url(#filter10_d)">
<path d="M217.035 41.8037L211.076 47.9315L204.444 54.7309C204.276 54.8988 204.024 55.0667 203.772 55.0667L201.002 55.8222C200.331 55.99 199.743 55.4024 199.995 54.8148L200.751 52.0447C200.834 51.7929 200.918 51.625 201.086 51.3732L204.612 47.6797L213.678 38.3621" fill="#DBDFE9"/>
</g>
<path d="M211.076 48.0154L204.444 54.8148C204.276 54.9827 204.024 55.1505 203.772 55.1505L201.002 55.906C200.331 56.0739 199.743 55.4863 199.995 54.8987L200.751 52.1286C200.834 51.8768 200.918 51.7089 201.086 51.4571L204.612 47.7636C204.864 47.6796 205.2 47.5957 205.451 47.5957L211.076 48.0154Z" fill="url(#paint32_linear)"/>
<g filter="url(#filter11_d)">
<path d="M218.126 42.895L212.67 37.4387C212.083 36.8511 212.083 36.0117 212.67 35.4241C213.258 34.8365 214.097 34.8365 214.685 35.4241L220.141 40.8804C220.729 41.468 220.729 42.3074 220.141 42.895C219.554 43.4826 218.714 43.4826 218.126 42.895Z" fill="#DBDFE9"/>
</g>
<g filter="url(#filter12_d)">
<path d="M219.218 40.041L215.44 36.2636L219.218 32.4862C220.309 31.3949 221.988 31.3949 222.995 32.4862C224.087 33.5774 224.087 35.2563 222.995 36.2636L219.218 40.041Z" fill="#DBDFE9"/>
</g>
<path d="M238.571 199.212C240.069 191.223 242.233 183.567 244.563 175.744C246.893 168.088 249.39 160.265 252.386 152.776L253.551 153.109C252.219 161.098 250.388 168.92 248.391 176.743C246.394 184.565 244.23 192.388 241.401 199.878L238.571 199.212Z" fill="url(#paint33_linear)"/>
<path d="M234.244 204.372L237.48 197.656H243.1L245.996 204.372H234.244Z" fill="url(#paint34_linear)"/>
<defs>
<filter id="filter0_d" x="122.677" y="81.9246" width="165.969" height="135.666" filterUnits="userSpaceOnUse" color-interpolation-filters="sRGB">
<feFlood flood-opacity="0" result="BackgroundImageFix"/>
<feColorMatrix in="SourceAlpha" type="matrix" values="0 0 0 0 0 0 0 0 0 0 0 0 0 0 0 0 0 0 127 0" result="hardAlpha"/>
<feOffset dy="11"/>
<feGaussianBlur stdDeviation="11"/>
<feColorMatrix type="matrix" values="0 0 0 0 0.397708 0 0 0 0 0.47749 0 0 0 0 0.575 0 0 0 0.27 0"/>
<feBlend mode="normal" in2="BackgroundImageFix" result="effect1_dropShadow"/>
<feBlend mode="normal" in="SourceGraphic" in2="effect1_dropShadow" result="shape"/>
</filter>
<filter id="filter1_d" x="356.71" y="75.293" width="62.8139" height="65.9091" filterUnits="userSpaceOnUse" color-interpolation-filters="sRGB">
<feFlood flood-opacity="0" result="BackgroundImageFix"/>
<feColorMatrix in="SourceAlpha" type="matrix" values="0 0 0 0 0 0 0 0 0 0 0 0 0 0 0 0 0 0 127 0" result="hardAlpha"/>
<feOffset dy="11"/>
<feGaussianBlur stdDeviation="11"/>
<feColorMatrix type="matrix" values="0 0 0 0 0.397708 0 0 0 0 0.47749 0 0 0 0 0.575 0 0 0 0.27 0"/>
<feBlend mode="normal" in2="BackgroundImageFix" result="effect1_dropShadow"/>
<feBlend mode="normal" in="SourceGraphic" in2="effect1_dropShadow" result="shape"/>
</filter>
<filter id="filter2_d" x="19.1934" y="78.26" width="81.394" height="60.7292" filterUnits="userSpaceOnUse" color-interpolation-filters="sRGB">
<feFlood flood-opacity="0" result="BackgroundImageFix"/>
<feColorMatrix in="SourceAlpha" type="matrix" values="0 0 0 0 0 0 0 0 0 0 0 0 0 0 0 0 0 0 127 0" result="hardAlpha"/>
<feOffset dy="11"/>
<feGaussianBlur stdDeviation="11"/>
<feColorMatrix type="matrix" values="0 0 0 0 0.397708 0 0 0 0 0.47749 0 0 0 0 0.575 0 0 0 0.27 0"/>
<feBlend mode="normal" in2="BackgroundImageFix" result="effect1_dropShadow"/>
<feBlend mode="normal" in="SourceGraphic" in2="effect1_dropShadow" result="shape"/>
</filter>
<filter id="filter3_d" x="67.8203" y="155.5" width="82.2779" height="82.2779" filterUnits="userSpaceOnUse" color-interpolation-filters="sRGB">
<feFlood flood-opacity="0" result="BackgroundImageFix"/>
<feColorMatrix in="SourceAlpha" type="matrix" values="0 0 0 0 0 0 0 0 0 0 0 0 0 0 0 0 0 0 127 0" result="hardAlpha"/>
<feOffset dy="11"/>
<feGaussianBlur stdDeviation="11"/>
<feColorMatrix type="matrix" values="0 0 0 0 0.397708 0 0 0 0 0.47749 0 0 0 0 0.575 0 0 0 0.27 0"/>
<feBlend mode="normal" in2="BackgroundImageFix" result="effect1_dropShadow"/>
<feBlend mode="normal" in="SourceGraphic" in2="effect1_dropShadow" result="shape"/>
</filter>
<filter id="filter4_d" x="68.7339" y="163.381" width="84.6487" height="73.7361" filterUnits="userSpaceOnUse" color-interpolation-filters="sRGB">
<feFlood flood-opacity="0" result="BackgroundImageFix"/>
<feColorMatrix in="SourceAlpha" type="matrix" values="0 0 0 0 0 0 0 0 0 0 0 0 0 0 0 0 0 0 127 0" result="hardAlpha"/>
<feOffset dy="11"/>
<feGaussianBlur stdDeviation="11"/>
<feColorMatrix type="matrix" values="0 0 0 0 0.397708 0 0 0 0 0.47749 0 0 0 0 0.575 0 0 0 0.27 0"/>
<feBlend mode="normal" in2="BackgroundImageFix" result="effect1_dropShadow"/>
<feBlend mode="normal" in="SourceGraphic" in2="effect1_dropShadow" result="shape"/>
</filter>
<filter id="filter5_d" x="71.3877" y="174.597" width="81.6064" height="63.1389" filterUnits="userSpaceOnUse" color-interpolation-filters="sRGB">
<feFlood flood-opacity="0" result="BackgroundImageFix"/>
<feColorMatrix in="SourceAlpha" type="matrix" values="0 0 0 0 0 0 0 0 0 0 0 0 0 0 0 0 0 0 127 0" result="hardAlpha"/>
<feOffset dy="11"/>
<feGaussianBlur stdDeviation="11"/>
<feColorMatrix type="matrix" values="0 0 0 0 0.397708 0 0 0 0 0.47749 0 0 0 0 0.575 0 0 0 0.27 0"/>
<feBlend mode="normal" in2="BackgroundImageFix" result="effect1_dropShadow"/>
<feBlend mode="normal" in="SourceGraphic" in2="effect1_dropShadow" result="shape"/>
</filter>
<filter id="filter6_d" x="270.249" y="148.743" width="86.559" height="88.8254" filterUnits="userSpaceOnUse" color-interpolation-filters="sRGB">
<feFlood flood-opacity="0" result="BackgroundImageFix"/>
<feColorMatrix in="SourceAlpha" type="matrix" values="0 0 0 0 0 0 0 0 0 0 0 0 0 0 0 0 0 0 127 0" result="hardAlpha"/>
<feOffset dy="11"/>
<feGaussianBlur stdDeviation="11"/>
<feColorMatrix type="matrix" values="0 0 0 0 0.397708 0 0 0 0 0.47749 0 0 0 0 0.575 0 0 0 0.27 0"/>
<feBlend mode="normal" in2="BackgroundImageFix" result="effect1_dropShadow"/>
<feBlend mode="normal" in="SourceGraphic" in2="effect1_dropShadow" result="shape"/>
</filter>
<filter id="filter7_d" x="135.101" y="75.4609" width="122.069" height="106.202" filterUnits="userSpaceOnUse" color-interpolation-filters="sRGB">
<feFlood flood-opacity="0" result="BackgroundImageFix"/>
<feColorMatrix in="SourceAlpha" type="matrix" values="0 0 0 0 0 0 0 0 0 0 0 0 0 0 0 0 0 0 127 0" result="hardAlpha"/>
<feOffset dy="11"/>
<feGaussianBlur stdDeviation="11"/>
<feColorMatrix type="matrix" values="0 0 0 0 0.397708 0 0 0 0 0.47749 0 0 0 0 0.575 0 0 0 0.27 0"/>
<feBlend mode="normal" in2="BackgroundImageFix" result="effect1_dropShadow"/>
<feBlend mode="normal" in="SourceGraphic" in2="effect1_dropShadow" result="shape"/>
</filter>
<filter id="filter8_d" x="244.698" y="9.12378" width="74.3346" height="77.8515" filterUnits="userSpaceOnUse" color-interpolation-filters="sRGB">
<feFlood flood-opacity="0" result="BackgroundImageFix"/>
<feColorMatrix in="SourceAlpha" type="matrix" values="0 0 0 0 0 0 0 0 0 0 0 0 0 0 0 0 0 0 127 0" result="hardAlpha"/>
<feOffset dy="11"/>
<feGaussianBlur stdDeviation="11"/>
<feColorMatrix type="matrix" values="0 0 0 0 0.397708 0 0 0 0 0.47749 0 0 0 0 0.575 0 0 0 0.27 0"/>
<feBlend mode="normal" in2="BackgroundImageFix" result="effect1_dropShadow"/>
<feBlend mode="normal" in="SourceGraphic" in2="effect1_dropShadow" result="shape"/>
</filter>
<filter id="filter9_d" x="262.861" y="35.6726" width="57.4593" height="56.0475" filterUnits="userSpaceOnUse" color-interpolation-filters="sRGB">
<feFlood flood-opacity="0" result="BackgroundImageFix"/>
<feColorMatrix in="SourceAlpha" type="matrix" values="0 0 0 0 0 0 0 0 0 0 0 0 0 0 0 0 0 0 127 0" result="hardAlpha"/>
<feOffset dy="11"/>
<feGaussianBlur stdDeviation="11"/>
<feColorMatrix type="matrix" values="0 0 0 0 0.397708 0 0 0 0 0.47749 0 0 0 0 0.575 0 0 0 0.27 0"/>
<feBlend mode="normal" in2="BackgroundImageFix" result="effect1_dropShadow"/>
<feBlend mode="normal" in="SourceGraphic" in2="effect1_dropShadow" result="shape"/>
</filter>
<filter id="filter10_d" x="177.936" y="27.3621" width="61.0999" height="61.4892" filterUnits="userSpaceOnUse" color-interpolation-filters="sRGB">
<feFlood flood-opacity="0" result="BackgroundImageFix"/>
<feColorMatrix in="SourceAlpha" type="matrix" values="0 0 0 0 0 0 0 0 0 0 0 0 0 0 0 0 0 0 127 0" result="hardAlpha"/>
<feOffset dy="11"/>
<feGaussianBlur stdDeviation="11"/>
<feColorMatrix type="matrix" values="0 0 0 0 0.397708 0 0 0 0 0.47749 0 0 0 0 0.575 0 0 0 0.27 0"/>
<feBlend mode="normal" in2="BackgroundImageFix" result="effect1_dropShadow"/>
<feBlend mode="normal" in="SourceGraphic" in2="effect1_dropShadow" result="shape"/>
</filter>
<filter id="filter11_d" x="190.229" y="23.9834" width="52.3523" height="52.3523" filterUnits="userSpaceOnUse" color-interpolation-filters="sRGB">
<feFlood flood-opacity="0" result="BackgroundImageFix"/>
<feColorMatrix in="SourceAlpha" type="matrix" values="0 0 0 0 0 0 0 0 0 0 0 0 0 0 0 0 0 0 127 0" result="hardAlpha"/>
<feOffset dy="11"/>
<feGaussianBlur stdDeviation="11"/>
<feColorMatrix type="matrix" values="0 0 0 0 0.397708 0 0 0 0 0.47749 0 0 0 0 0.575 0 0 0 0.27 0"/>
<feBlend mode="normal" in2="BackgroundImageFix" result="effect1_dropShadow"/>
<feBlend mode="normal" in="SourceGraphic" in2="effect1_dropShadow" result="shape"/>
</filter>
<filter id="filter12_d" x="193.44" y="20.6677" width="52.3733" height="52.3733" filterUnits="userSpaceOnUse" color-interpolation-filters="sRGB">
<feFlood flood-opacity="0" result="BackgroundImageFix"/>
<feColorMatrix in="SourceAlpha" type="matrix" values="0 0 0 0 0 0 0 0 0 0 0 0 0 0 0 0 0 0 127 0" result="hardAlpha"/>
<feOffset dy="11"/>
<feGaussianBlur stdDeviation="11"/>
<feColorMatrix type="matrix" values="0 0 0 0 0.397708 0 0 0 0 0.47749 0 0 0 0 0.575 0 0 0 0.27 0"/>
<feBlend mode="normal" in2="BackgroundImageFix" result="effect1_dropShadow"/>
<feBlend mode="normal" in="SourceGraphic" in2="effect1_dropShadow" result="shape"/>
</filter>
<linearGradient id="paint0_linear" x1="366.479" y1="86.3828" x2="369.668" y2="86.0669" gradientUnits="userSpaceOnUse">
<stop stop-color="#B0BACC"/>
<stop offset="1" stop-color="#969EAE"/>
</linearGradient>
<linearGradient id="paint1_linear" x1="396.479" y1="84.3828" x2="399.668" y2="84.0669" gradientUnits="userSpaceOnUse">
<stop stop-color="#B0BACC"/>
<stop offset="1" stop-color="#969EAE"/>
</linearGradient>
<linearGradient id="paint2_linear" x1="402.479" y1="114.383" x2="405.668" y2="114.067" gradientUnits="userSpaceOnUse">
<stop stop-color="#B0BACC"/>
<stop offset="1" stop-color="#969EAE"/>
</linearGradient>
<linearGradient id="paint3_linear" x1="413.479" y1="97.3828" x2="416.668" y2="97.0669" gradientUnits="userSpaceOnUse">
<stop stop-color="#B0BACC"/>
<stop offset="1" stop-color="#969EAE"/>
</linearGradient>
<linearGradient id="paint4_linear" x1="380.479" y1="71.3828" x2="383.668" y2="71.0669" gradientUnits="userSpaceOnUse">
<stop stop-color="#B0BACC"/>
<stop offset="1" stop-color="#969EAE"/>
</linearGradient>
<linearGradient id="paint5_linear" x1="380.725" y1="101.662" x2="380.725" y2="109.198" gradientUnits="userSpaceOnUse">
<stop stop-color="#B0BACC"/>
<stop offset="1" stop-color="#969EAE"/>
</linearGradient>
<linearGradient id="paint6_linear" x1="114.554" y1="23.5258" x2="117.329" y2="25.1277" gradientUnits="userSpaceOnUse">
<stop stop-color="#B0BACC"/>
<stop offset="1" stop-color="#969EAE"/>
</linearGradient>
<linearGradient id="paint7_linear" x1="100.599" y1="51.5704" x2="103.374" y2="53.1724" gradientUnits="userSpaceOnUse">
<stop stop-color="#B0BACC"/>
<stop offset="1" stop-color="#969EAE"/>
</linearGradient>
<linearGradient id="paint8_linear" x1="143.599" y1="36.5704" x2="146.374" y2="38.1724" gradientUnits="userSpaceOnUse">
<stop stop-color="#B0BACC"/>
<stop offset="1" stop-color="#969EAE"/>
</linearGradient>
<linearGradient id="paint9_linear" x1="129.599" y1="65.5704" x2="132.374" y2="67.1724" gradientUnits="userSpaceOnUse">
<stop stop-color="#B0BACC"/>
<stop offset="1" stop-color="#969EAE"/>
</linearGradient>
<linearGradient id="paint10_linear" x1="108.266" y1="73.2519" x2="111.776" y2="75.2786" gradientUnits="userSpaceOnUse">
<stop stop-color="#B0BACC"/>
<stop offset="1" stop-color="#969EAE"/>
</linearGradient>
<linearGradient id="paint11_linear" x1="151.023" y1="57.2519" x2="154.533" y2="59.2786" gradientUnits="userSpaceOnUse">
<stop stop-color="#B0BACC"/>
<stop offset="1" stop-color="#969EAE"/>
</linearGradient>
<linearGradient id="paint12_linear" x1="136.023" y1="15.2522" x2="139.533" y2="17.2788" gradientUnits="userSpaceOnUse">
<stop stop-color="#B0BACC"/>
<stop offset="1" stop-color="#969EAE"/>
</linearGradient>
<linearGradient id="paint13_linear" x1="93.0228" y1="31.2522" x2="96.533" y2="33.2788" gradientUnits="userSpaceOnUse">
<stop stop-color="#B0BACC"/>
<stop offset="1" stop-color="#969EAE"/>
</linearGradient>
<linearGradient id="paint14_linear" x1="130.953" y1="43.8922" x2="130.953" y2="50.5372" gradientUnits="userSpaceOnUse">
<stop stop-color="#B0BACC"/>
<stop offset="1" stop-color="#969EAE"/>
</linearGradient>
<linearGradient id="paint15_linear" x1="84.8263" y1="139.498" x2="84.8263" y2="158.251" gradientUnits="userSpaceOnUse">
<stop stop-color="#B0BACC"/>
<stop offset="1" stop-color="#969EAE"/>
</linearGradient>
<linearGradient id="paint16_linear" x1="102.89" y1="138.493" x2="102.89" y2="148.903" gradientUnits="userSpaceOnUse">
<stop stop-color="#B0BACC"/>
<stop offset="1" stop-color="#969EAE"/>
</linearGradient>
<linearGradient id="paint17_linear" x1="64.8889" y1="141.163" x2="64.8889" y2="143.132" gradientUnits="userSpaceOnUse">
<stop stop-color="#B0BACC"/>
<stop offset="1" stop-color="#969EAE"/>
</linearGradient>
<linearGradient id="paint18_linear" x1="82.1654" y1="165.265" x2="82.1654" y2="188.022" gradientUnits="userSpaceOnUse">
<stop stop-color="#B0BACC"/>
<stop offset="1" stop-color="#969EAE"/>
</linearGradient>
<linearGradient id="paint19_linear" x1="108.947" y1="165.615" x2="108.947" y2="205.191" gradientUnits="userSpaceOnUse">
<stop stop-color="#FDFEFF"/>
<stop offset="0.9964" stop-color="#ECF0F5"/>
</linearGradient>
<linearGradient id="paint20_linear" x1="111.045" y1="173.693" x2="111.045" y2="204.437" gradientUnits="userSpaceOnUse">
<stop stop-color="#FDFEFF"/>
<stop offset="0.9964" stop-color="#ECF0F5"/>
</linearGradient>
<linearGradient id="paint21_linear" x1="112.179" y1="185.154" x2="112.179" y2="204.942" gradientUnits="userSpaceOnUse">
<stop stop-color="#FDFEFF"/>
<stop offset="0.9964" stop-color="#ECF0F5"/>
</linearGradient>
<linearGradient id="paint22_linear" x1="318.188" y1="160.577" x2="318.188" y2="174.052" gradientUnits="userSpaceOnUse">
<stop stop-color="#B0BACC"/>
<stop offset="1" stop-color="#969EAE"/>
</linearGradient>
<linearGradient id="paint23_linear" x1="196.11" y1="85.0222" x2="196.11" y2="149.333" gradientUnits="userSpaceOnUse">
<stop stop-color="#FDFEFF"/>
<stop offset="0.9964" stop-color="#ECF0F5"/>
</linearGradient>
<linearGradient id="paint24_linear" x1="159.964" y1="92.4316" x2="232.496" y2="90.6284" gradientUnits="userSpaceOnUse">
<stop stop-color="#D5DDEA"/>
<stop offset="1" stop-color="#D5DDEA" stop-opacity="0"/>
</linearGradient>
<linearGradient id="paint25_linear" x1="183.459" y1="105.798" x2="183.459" y2="109.002" gradientUnits="userSpaceOnUse">
<stop stop-color="#B0BACC"/>
<stop offset="1" stop-color="#969EAE"/>
</linearGradient>
<linearGradient id="paint26_linear" x1="207.718" y1="105.798" x2="207.718" y2="109.002" gradientUnits="userSpaceOnUse">
<stop stop-color="#B0BACC"/>
<stop offset="1" stop-color="#969EAE"/>
</linearGradient>
<linearGradient id="paint27_linear" x1="183.459" y1="130.477" x2="183.459" y2="133.681" gradientUnits="userSpaceOnUse">
<stop stop-color="#B0BACC"/>
<stop offset="1" stop-color="#969EAE"/>
</linearGradient>
<linearGradient id="paint28_linear" x1="206.544" y1="125.295" x2="206.544" y2="132.928" gradientUnits="userSpaceOnUse">
<stop stop-color="#B0BACC"/>
<stop offset="1" stop-color="#969EAE"/>
</linearGradient>
<linearGradient id="paint29_linear" x1="318.691" y1="141.679" x2="318.691" y2="144.129" gradientUnits="userSpaceOnUse">
<stop stop-color="#B0BACC"/>
<stop offset="1" stop-color="#969EAE"/>
</linearGradient>
<linearGradient id="paint30_linear" x1="325.271" y1="105.407" x2="325.271" y2="123.567" gradientUnits="userSpaceOnUse">
<stop stop-color="#B0BACC"/>
<stop offset="1" stop-color="#969EAE"/>
</linearGradient>
<linearGradient id="paint31_linear" x1="200.439" y1="60.3858" x2="200.439" y2="64.2729" gradientUnits="userSpaceOnUse">
<stop stop-color="#B0BACC"/>
<stop offset="1" stop-color="#969EAE"/>
</linearGradient>
<linearGradient id="paint32_linear" x1="205.506" y1="47.8854" x2="205.506" y2="52.5663" gradientUnits="userSpaceOnUse">
<stop stop-color="#B0BACC"/>
<stop offset="1" stop-color="#969EAE"/>
</linearGradient>
<linearGradient id="paint33_linear" x1="246.062" y1="154.412" x2="246.062" y2="180.85" gradientUnits="userSpaceOnUse">
<stop stop-color="#B0BACC"/>
<stop offset="1" stop-color="#969EAE"/>
</linearGradient>
<linearGradient id="paint34_linear" x1="240.121" y1="197.89" x2="240.121" y2="201.659" gradientUnits="userSpaceOnUse">
<stop stop-color="#B0BACC"/>
<stop offset="1" stop-color="#969EAE"/>
</linearGradient>
</defs>
</svg>
